G04 #@! TF.GenerationSoftware,KiCad,Pcbnew,5.1.10*
G04 #@! TF.CreationDate,2021-09-17T19:19:20-07:00*
G04 #@! TF.ProjectId,PCIEX1-SMA,50434945-5831-42d5-934d-412e6b696361,rev?*
G04 #@! TF.SameCoordinates,Original*
G04 #@! TF.FileFunction,Copper,L1,Top*
G04 #@! TF.FilePolarity,Positive*
%FSLAX46Y46*%
G04 Gerber Fmt 4.6, Leading zero omitted, Abs format (unit mm)*
G04 Created by KiCad (PCBNEW 5.1.10) date 2021-09-17 19:19:20*
%MOMM*%
%LPD*%
G01*
G04 APERTURE LIST*
G04 #@! TA.AperFunction,ComponentPad*
%ADD10R,1.700000X1.700000*%
G04 #@! TD*
G04 #@! TA.AperFunction,ComponentPad*
%ADD11O,1.700000X1.700000*%
G04 #@! TD*
G04 #@! TA.AperFunction,ComponentPad*
%ADD12C,2.050000*%
G04 #@! TD*
G04 #@! TA.AperFunction,ComponentPad*
%ADD13C,2.250000*%
G04 #@! TD*
G04 #@! TA.AperFunction,ConnectorPad*
%ADD14R,0.700000X4.300000*%
G04 #@! TD*
G04 #@! TA.AperFunction,ConnectorPad*
%ADD15R,0.700000X3.200000*%
G04 #@! TD*
G04 #@! TA.AperFunction,ViaPad*
%ADD16C,0.800000*%
G04 #@! TD*
G04 #@! TA.AperFunction,Conductor*
%ADD17C,0.250000*%
G04 #@! TD*
G04 #@! TA.AperFunction,Conductor*
%ADD18C,0.149098*%
G04 #@! TD*
G04 APERTURE END LIST*
G04 #@! TA.AperFunction,SMDPad,CuDef*
G36*
G01*
X150272500Y-75747500D02*
X150747500Y-75747500D01*
G75*
G02*
X150985000Y-75985000I0J-237500D01*
G01*
X150985000Y-76485000D01*
G75*
G02*
X150747500Y-76722500I-237500J0D01*
G01*
X150272500Y-76722500D01*
G75*
G02*
X150035000Y-76485000I0J237500D01*
G01*
X150035000Y-75985000D01*
G75*
G02*
X150272500Y-75747500I237500J0D01*
G01*
G37*
G04 #@! TD.AperFunction*
G04 #@! TA.AperFunction,SMDPad,CuDef*
G36*
G01*
X150272500Y-77572500D02*
X150747500Y-77572500D01*
G75*
G02*
X150985000Y-77810000I0J-237500D01*
G01*
X150985000Y-78310000D01*
G75*
G02*
X150747500Y-78547500I-237500J0D01*
G01*
X150272500Y-78547500D01*
G75*
G02*
X150035000Y-78310000I0J237500D01*
G01*
X150035000Y-77810000D01*
G75*
G02*
X150272500Y-77572500I237500J0D01*
G01*
G37*
G04 #@! TD.AperFunction*
G04 #@! TA.AperFunction,SMDPad,CuDef*
G36*
G01*
X150747500Y-75135000D02*
X150272500Y-75135000D01*
G75*
G02*
X150035000Y-74897500I0J237500D01*
G01*
X150035000Y-74322500D01*
G75*
G02*
X150272500Y-74085000I237500J0D01*
G01*
X150747500Y-74085000D01*
G75*
G02*
X150985000Y-74322500I0J-237500D01*
G01*
X150985000Y-74897500D01*
G75*
G02*
X150747500Y-75135000I-237500J0D01*
G01*
G37*
G04 #@! TD.AperFunction*
G04 #@! TA.AperFunction,SMDPad,CuDef*
G36*
G01*
X150747500Y-73385000D02*
X150272500Y-73385000D01*
G75*
G02*
X150035000Y-73147500I0J237500D01*
G01*
X150035000Y-72572500D01*
G75*
G02*
X150272500Y-72335000I237500J0D01*
G01*
X150747500Y-72335000D01*
G75*
G02*
X150985000Y-72572500I0J-237500D01*
G01*
X150985000Y-73147500D01*
G75*
G02*
X150747500Y-73385000I-237500J0D01*
G01*
G37*
G04 #@! TD.AperFunction*
D10*
X150350000Y-104300000D03*
D11*
X147810000Y-104300000D03*
X145270000Y-104300000D03*
X142730000Y-104300000D03*
D12*
X155510000Y-76250000D03*
D13*
X158050000Y-78790000D03*
X158050000Y-73710000D03*
X152970000Y-73710000D03*
X152970000Y-78790000D03*
D12*
X155510000Y-95460000D03*
D13*
X158050000Y-98000000D03*
X158050000Y-92920000D03*
X152970000Y-92920000D03*
X152970000Y-98000000D03*
D12*
X145510000Y-76250000D03*
D13*
X148050000Y-78790000D03*
X148050000Y-73710000D03*
X142970000Y-73710000D03*
X142970000Y-78790000D03*
D12*
X155510000Y-86250000D03*
D13*
X158050000Y-88790000D03*
X158050000Y-83710000D03*
X152970000Y-83710000D03*
X152970000Y-88790000D03*
D12*
X145510000Y-86250000D03*
D13*
X148050000Y-88790000D03*
X148050000Y-83710000D03*
X142970000Y-83710000D03*
X142970000Y-88790000D03*
D12*
X145510000Y-95460000D03*
D13*
X148050000Y-98000000D03*
X148050000Y-92920000D03*
X142970000Y-92920000D03*
X142970000Y-98000000D03*
D14*
X155130000Y-112990000D03*
X154130000Y-112990000D03*
X160130000Y-112990000D03*
D15*
X159130000Y-112440000D03*
D14*
X158130000Y-112990000D03*
X157130000Y-112990000D03*
X156130000Y-112990000D03*
X151130000Y-112990000D03*
X150130000Y-112990000D03*
X149130000Y-112990000D03*
X148130000Y-112990000D03*
X147130000Y-112990000D03*
X146130000Y-112990000D03*
X145130000Y-112990000D03*
X144130000Y-112990000D03*
X143130000Y-112990000D03*
X142130000Y-112990000D03*
X141130000Y-112990000D03*
D16*
X147140000Y-110040000D03*
X144130000Y-110030000D03*
X154780000Y-108790000D03*
X157550000Y-109150000D03*
X159620000Y-109210000D03*
X149130000Y-110030000D03*
X150510000Y-71490000D03*
X141650000Y-101100000D03*
D17*
X147130000Y-110050000D02*
X147140000Y-110040000D01*
X147130000Y-112990000D02*
X147130000Y-110050000D01*
X144130000Y-112990000D02*
X144130000Y-110030000D01*
X155130000Y-109140000D02*
X155130000Y-112990000D01*
X154780000Y-108790000D02*
X155130000Y-109140000D01*
X158130000Y-109730000D02*
X157550000Y-109150000D01*
X158130000Y-112990000D02*
X158130000Y-109730000D01*
X160130000Y-109720000D02*
X159620000Y-109210000D01*
X160130000Y-112990000D02*
X160130000Y-109720000D01*
X149780000Y-78790000D02*
X150510000Y-78060000D01*
X148050000Y-78790000D02*
X149780000Y-78790000D01*
X151240000Y-78790000D02*
X150510000Y-78060000D01*
X152970000Y-78790000D02*
X151240000Y-78790000D01*
D18*
X145457286Y-93722589D02*
X145486072Y-93768401D01*
X145510000Y-95201236D02*
X145510000Y-95460000D01*
X145419028Y-93684331D02*
X145457286Y-93722589D01*
X145322147Y-93637675D02*
X145373216Y-93655545D01*
X145214616Y-93625560D02*
X145322147Y-93637675D01*
X145457286Y-92940646D02*
X145419028Y-92978904D01*
X145486072Y-92894834D02*
X145457286Y-92940646D01*
X145322147Y-93025560D02*
X145214616Y-93037675D01*
X145079477Y-93122589D02*
X145050691Y-93168401D01*
X145079477Y-93540646D02*
X145117735Y-93578904D01*
X146700000Y-90988049D02*
X145510000Y-92178049D01*
X148792817Y-90988049D02*
X146700000Y-90988049D01*
X145026764Y-93273236D02*
X145026764Y-93390000D01*
X145163547Y-93055545D02*
X145117735Y-93084331D01*
X145510000Y-92790000D02*
X145503942Y-92843765D01*
X150411951Y-92607183D02*
X148792817Y-90988049D01*
X150411951Y-99407183D02*
X150411951Y-92607183D01*
X156491951Y-105487183D02*
X150411951Y-99407183D01*
X145503942Y-93819470D02*
X145510000Y-93873236D01*
X156491951Y-109403048D02*
X156491951Y-105487183D01*
X145503942Y-92843765D02*
X145486072Y-92894834D01*
X145510000Y-92178049D02*
X145510000Y-92790000D01*
X156130000Y-112990000D02*
X156130000Y-109764999D01*
X145373216Y-93007690D02*
X145322147Y-93025560D01*
X145419028Y-92978904D02*
X145373216Y-93007690D01*
X145050691Y-93168401D02*
X145032821Y-93219470D01*
X145510000Y-93873236D02*
X145510000Y-95201236D01*
X156130000Y-109764999D02*
X156491951Y-109403048D01*
X145032821Y-93219470D02*
X145026764Y-93273236D01*
X145214616Y-93037675D02*
X145163547Y-93055545D01*
X145117735Y-93084331D02*
X145079477Y-93122589D01*
X145026764Y-93390000D02*
X145032821Y-93443765D01*
X145032821Y-93443765D02*
X145050691Y-93494834D01*
X145373216Y-93655545D02*
X145419028Y-93684331D01*
X145050691Y-93494834D02*
X145079477Y-93540646D01*
X145117735Y-93578904D02*
X145163547Y-93607690D01*
X145486072Y-93768401D02*
X145503942Y-93819470D01*
X145163547Y-93607690D02*
X145214616Y-93625560D01*
X145510000Y-89521951D02*
X145510000Y-86250000D01*
X146700000Y-90711951D02*
X145510000Y-89521951D01*
X148907183Y-90711951D02*
X146700000Y-90711951D01*
X150688049Y-92492817D02*
X148907183Y-90711951D01*
X157130000Y-109764999D02*
X156768049Y-109403048D01*
X150688049Y-99292817D02*
X150688049Y-92492817D01*
X157130000Y-112990000D02*
X157130000Y-109764999D01*
X156768049Y-109403048D02*
X156768049Y-105372817D01*
X156768049Y-105372817D02*
X150688049Y-99292817D01*
D17*
X148130000Y-112990000D02*
X148130000Y-110530000D01*
X148630000Y-110030000D02*
X149130000Y-110030000D01*
X148130000Y-110530000D02*
X148630000Y-110030000D01*
X150510000Y-72860000D02*
X150510000Y-71490000D01*
X159130000Y-112440000D02*
X159130000Y-110090000D01*
X159130000Y-110090000D02*
X158680000Y-109640000D01*
X158680000Y-109640000D02*
X158680000Y-106770000D01*
X159150000Y-90900000D02*
X151150000Y-90900000D01*
X158680000Y-106770000D02*
X160050000Y-105400000D01*
X160050000Y-105400000D02*
X160050000Y-91800000D01*
X141050000Y-82000000D02*
X141050000Y-100500000D01*
X141050000Y-100500000D02*
X141650000Y-101100000D01*
X160050000Y-91800000D02*
X159150000Y-90900000D01*
X151150000Y-90900000D02*
X150550000Y-90300000D01*
X150550000Y-90300000D02*
X150550000Y-82100000D01*
X150550000Y-82100000D02*
X149750000Y-81300000D01*
X149750000Y-81300000D02*
X141750000Y-81300000D01*
X141750000Y-81300000D02*
X141050000Y-82000000D01*
X145270000Y-104300000D02*
X145270000Y-106080000D01*
X146130000Y-106940000D02*
X146130000Y-107680000D01*
X145270000Y-106080000D02*
X146130000Y-106940000D01*
X146130000Y-107680000D02*
X146130000Y-112990000D01*
X145130000Y-108720000D02*
X145130000Y-112990000D01*
X142730000Y-106080000D02*
X145130000Y-108480000D01*
X145130000Y-108480000D02*
X145130000Y-108720000D01*
X142730000Y-104300000D02*
X142730000Y-106080000D01*
X150510000Y-74610000D02*
X150510000Y-76235000D01*
M02*
