G04 #@! TF.GenerationSoftware,KiCad,Pcbnew,5.1.10*
G04 #@! TF.CreationDate,2021-09-17T19:19:20-07:00*
G04 #@! TF.ProjectId,PCIEX1-SMA,50434945-5831-42d5-934d-412e6b696361,rev?*
G04 #@! TF.SameCoordinates,Original*
G04 #@! TF.FileFunction,Copper,L2,Inr*
G04 #@! TF.FilePolarity,Positive*
%FSLAX46Y46*%
G04 Gerber Fmt 4.6, Leading zero omitted, Abs format (unit mm)*
G04 Created by KiCad (PCBNEW 5.1.10) date 2021-09-17 19:19:20*
%MOMM*%
%LPD*%
G01*
G04 APERTURE LIST*
G04 #@! TA.AperFunction,ComponentPad*
%ADD10R,1.700000X1.700000*%
G04 #@! TD*
G04 #@! TA.AperFunction,ComponentPad*
%ADD11O,1.700000X1.700000*%
G04 #@! TD*
G04 #@! TA.AperFunction,ComponentPad*
%ADD12C,2.050000*%
G04 #@! TD*
G04 #@! TA.AperFunction,ComponentPad*
%ADD13C,2.250000*%
G04 #@! TD*
G04 #@! TA.AperFunction,ViaPad*
%ADD14C,0.800000*%
G04 #@! TD*
G04 #@! TA.AperFunction,Conductor*
%ADD15C,0.254000*%
G04 #@! TD*
G04 #@! TA.AperFunction,Conductor*
%ADD16C,0.100000*%
G04 #@! TD*
G04 APERTURE END LIST*
D10*
X150350000Y-104300000D03*
D11*
X147810000Y-104300000D03*
X145270000Y-104300000D03*
X142730000Y-104300000D03*
D12*
X155510000Y-76250000D03*
D13*
X158050000Y-78790000D03*
X158050000Y-73710000D03*
X152970000Y-73710000D03*
X152970000Y-78790000D03*
D12*
X155510000Y-95460000D03*
D13*
X158050000Y-98000000D03*
X158050000Y-92920000D03*
X152970000Y-92920000D03*
X152970000Y-98000000D03*
D12*
X145510000Y-76250000D03*
D13*
X148050000Y-78790000D03*
X148050000Y-73710000D03*
X142970000Y-73710000D03*
X142970000Y-78790000D03*
D12*
X155510000Y-86250000D03*
D13*
X158050000Y-88790000D03*
X158050000Y-83710000D03*
X152970000Y-83710000D03*
X152970000Y-88790000D03*
D12*
X145510000Y-86250000D03*
D13*
X148050000Y-88790000D03*
X148050000Y-83710000D03*
X142970000Y-83710000D03*
X142970000Y-88790000D03*
D12*
X145510000Y-95460000D03*
D13*
X148050000Y-98000000D03*
X148050000Y-92920000D03*
X142970000Y-92920000D03*
X142970000Y-98000000D03*
D14*
X147140000Y-110040000D03*
X144130000Y-110030000D03*
X154780000Y-108790000D03*
X157550000Y-109150000D03*
X159620000Y-109210000D03*
X149130000Y-110030000D03*
X150510000Y-71490000D03*
X141650000Y-101100000D03*
D15*
X149514774Y-71188102D02*
X149475000Y-71388061D01*
X149475000Y-71591939D01*
X149514774Y-71791898D01*
X149592795Y-71980256D01*
X149706063Y-72149774D01*
X149850226Y-72293937D01*
X150019744Y-72407205D01*
X150208102Y-72485226D01*
X150408061Y-72525000D01*
X150611939Y-72525000D01*
X150810676Y-72485469D01*
X151925074Y-72485469D01*
X152970000Y-73530395D01*
X154014926Y-72485469D01*
X157005074Y-72485469D01*
X158050000Y-73530395D01*
X159094926Y-72485469D01*
X158984079Y-72208286D01*
X158673160Y-72054911D01*
X158338295Y-71965140D01*
X157992350Y-71942424D01*
X157648620Y-71987634D01*
X157320315Y-72099034D01*
X157115921Y-72208286D01*
X157005074Y-72485469D01*
X154014926Y-72485469D01*
X153904079Y-72208286D01*
X153593160Y-72054911D01*
X153258295Y-71965140D01*
X152912350Y-71942424D01*
X152568620Y-71987634D01*
X152240315Y-72099034D01*
X152035921Y-72208286D01*
X151925074Y-72485469D01*
X150810676Y-72485469D01*
X150811898Y-72485226D01*
X151000256Y-72407205D01*
X151169774Y-72293937D01*
X151313937Y-72149774D01*
X151427205Y-71980256D01*
X151505226Y-71791898D01*
X151545000Y-71591939D01*
X151545000Y-71388061D01*
X151505226Y-71188102D01*
X151472875Y-71110000D01*
X160120001Y-71110000D01*
X160120000Y-107855979D01*
X160104912Y-107905718D01*
X160095000Y-108006354D01*
X160095001Y-115656263D01*
X159996264Y-115755000D01*
X154363736Y-115755000D01*
X154265000Y-115656264D01*
X154265000Y-108956353D01*
X154261638Y-108922219D01*
X154261638Y-108909892D01*
X154260638Y-108900380D01*
X154239971Y-108716128D01*
X154227062Y-108655396D01*
X154215004Y-108594500D01*
X154212177Y-108585364D01*
X154156115Y-108408634D01*
X154131667Y-108351592D01*
X154107998Y-108294167D01*
X154103449Y-108285753D01*
X154014128Y-108123279D01*
X153979037Y-108072031D01*
X153944693Y-108020339D01*
X153938597Y-108012970D01*
X153819419Y-107870940D01*
X153775062Y-107827502D01*
X153731315Y-107783449D01*
X153723903Y-107777404D01*
X153579409Y-107661228D01*
X153527499Y-107627259D01*
X153475988Y-107592515D01*
X153467544Y-107588025D01*
X153303235Y-107502126D01*
X153245680Y-107478872D01*
X153188435Y-107454809D01*
X153179283Y-107452046D01*
X153179277Y-107452044D01*
X153001415Y-107399697D01*
X152940408Y-107388059D01*
X152879614Y-107375580D01*
X152870096Y-107374646D01*
X152685452Y-107357842D01*
X152623362Y-107358276D01*
X152561283Y-107357843D01*
X152551764Y-107358776D01*
X152367372Y-107378157D01*
X152306569Y-107390638D01*
X152245574Y-107402273D01*
X152236418Y-107405038D01*
X152236413Y-107405039D01*
X152236408Y-107405041D01*
X152059302Y-107459864D01*
X152002057Y-107483927D01*
X151944502Y-107507181D01*
X151936063Y-107511668D01*
X151936059Y-107511670D01*
X151936058Y-107511671D01*
X151772965Y-107599855D01*
X151721508Y-107634563D01*
X151669542Y-107668569D01*
X151662130Y-107674614D01*
X151519271Y-107792798D01*
X151475526Y-107836850D01*
X151431168Y-107880288D01*
X151425072Y-107887657D01*
X151425069Y-107887660D01*
X151425067Y-107887664D01*
X151307889Y-108031337D01*
X151273535Y-108083044D01*
X151238456Y-108134275D01*
X151233907Y-108142688D01*
X151146863Y-108306394D01*
X151123213Y-108363772D01*
X151098745Y-108420862D01*
X151095917Y-108429998D01*
X151042329Y-108607492D01*
X151030274Y-108668373D01*
X151017362Y-108729119D01*
X151016362Y-108738631D01*
X150998269Y-108923154D01*
X150998269Y-108923159D01*
X150995000Y-108956354D01*
X150995001Y-115656263D01*
X150896264Y-115755000D01*
X141495085Y-115755000D01*
X141263279Y-115754543D01*
X141165000Y-115656264D01*
X141165000Y-109928061D01*
X148095000Y-109928061D01*
X148095000Y-110131939D01*
X148134774Y-110331898D01*
X148212795Y-110520256D01*
X148326063Y-110689774D01*
X148470226Y-110833937D01*
X148639744Y-110947205D01*
X148828102Y-111025226D01*
X149028061Y-111065000D01*
X149231939Y-111065000D01*
X149431898Y-111025226D01*
X149620256Y-110947205D01*
X149789774Y-110833937D01*
X149933937Y-110689774D01*
X150047205Y-110520256D01*
X150125226Y-110331898D01*
X150165000Y-110131939D01*
X150165000Y-109928061D01*
X150125226Y-109728102D01*
X150047205Y-109539744D01*
X149933937Y-109370226D01*
X149789774Y-109226063D01*
X149620256Y-109112795D01*
X149431898Y-109034774D01*
X149231939Y-108995000D01*
X149028061Y-108995000D01*
X148828102Y-109034774D01*
X148639744Y-109112795D01*
X148470226Y-109226063D01*
X148326063Y-109370226D01*
X148212795Y-109539744D01*
X148134774Y-109728102D01*
X148095000Y-109928061D01*
X141165000Y-109928061D01*
X141165000Y-108006353D01*
X141155088Y-107905717D01*
X141140000Y-107855978D01*
X141140000Y-104153740D01*
X141245000Y-104153740D01*
X141245000Y-104446260D01*
X141302068Y-104733158D01*
X141414010Y-105003411D01*
X141576525Y-105246632D01*
X141783368Y-105453475D01*
X142026589Y-105615990D01*
X142296842Y-105727932D01*
X142583740Y-105785000D01*
X142876260Y-105785000D01*
X143163158Y-105727932D01*
X143433411Y-105615990D01*
X143676632Y-105453475D01*
X143883475Y-105246632D01*
X144000000Y-105072240D01*
X144116525Y-105246632D01*
X144323368Y-105453475D01*
X144566589Y-105615990D01*
X144836842Y-105727932D01*
X145123740Y-105785000D01*
X145416260Y-105785000D01*
X145703158Y-105727932D01*
X145973411Y-105615990D01*
X146216632Y-105453475D01*
X146423475Y-105246632D01*
X146540000Y-105072240D01*
X146656525Y-105246632D01*
X146863368Y-105453475D01*
X147106589Y-105615990D01*
X147376842Y-105727932D01*
X147663740Y-105785000D01*
X147956260Y-105785000D01*
X148243158Y-105727932D01*
X148513411Y-105615990D01*
X148756632Y-105453475D01*
X148888487Y-105321620D01*
X148910498Y-105394180D01*
X148969463Y-105504494D01*
X149048815Y-105601185D01*
X149145506Y-105680537D01*
X149255820Y-105739502D01*
X149375518Y-105775812D01*
X149500000Y-105788072D01*
X150064250Y-105785000D01*
X150223000Y-105626250D01*
X150223000Y-104427000D01*
X150477000Y-104427000D01*
X150477000Y-105626250D01*
X150635750Y-105785000D01*
X151200000Y-105788072D01*
X151324482Y-105775812D01*
X151444180Y-105739502D01*
X151554494Y-105680537D01*
X151651185Y-105601185D01*
X151730537Y-105504494D01*
X151789502Y-105394180D01*
X151825812Y-105274482D01*
X151838072Y-105150000D01*
X151835000Y-104585750D01*
X151676250Y-104427000D01*
X150477000Y-104427000D01*
X150223000Y-104427000D01*
X150203000Y-104427000D01*
X150203000Y-104173000D01*
X150223000Y-104173000D01*
X150223000Y-102973750D01*
X150477000Y-102973750D01*
X150477000Y-104173000D01*
X151676250Y-104173000D01*
X151835000Y-104014250D01*
X151838072Y-103450000D01*
X151825812Y-103325518D01*
X151789502Y-103205820D01*
X151730537Y-103095506D01*
X151651185Y-102998815D01*
X151554494Y-102919463D01*
X151444180Y-102860498D01*
X151324482Y-102824188D01*
X151200000Y-102811928D01*
X150635750Y-102815000D01*
X150477000Y-102973750D01*
X150223000Y-102973750D01*
X150064250Y-102815000D01*
X149500000Y-102811928D01*
X149375518Y-102824188D01*
X149255820Y-102860498D01*
X149145506Y-102919463D01*
X149048815Y-102998815D01*
X148969463Y-103095506D01*
X148910498Y-103205820D01*
X148888487Y-103278380D01*
X148756632Y-103146525D01*
X148513411Y-102984010D01*
X148243158Y-102872068D01*
X147956260Y-102815000D01*
X147663740Y-102815000D01*
X147376842Y-102872068D01*
X147106589Y-102984010D01*
X146863368Y-103146525D01*
X146656525Y-103353368D01*
X146540000Y-103527760D01*
X146423475Y-103353368D01*
X146216632Y-103146525D01*
X145973411Y-102984010D01*
X145703158Y-102872068D01*
X145416260Y-102815000D01*
X145123740Y-102815000D01*
X144836842Y-102872068D01*
X144566589Y-102984010D01*
X144323368Y-103146525D01*
X144116525Y-103353368D01*
X144000000Y-103527760D01*
X143883475Y-103353368D01*
X143676632Y-103146525D01*
X143433411Y-102984010D01*
X143163158Y-102872068D01*
X142876260Y-102815000D01*
X142583740Y-102815000D01*
X142296842Y-102872068D01*
X142026589Y-102984010D01*
X141783368Y-103146525D01*
X141576525Y-103353368D01*
X141414010Y-103596589D01*
X141302068Y-103866842D01*
X141245000Y-104153740D01*
X141140000Y-104153740D01*
X141140000Y-102004013D01*
X141159744Y-102017205D01*
X141348102Y-102095226D01*
X141548061Y-102135000D01*
X141751939Y-102135000D01*
X141951898Y-102095226D01*
X142140256Y-102017205D01*
X142309774Y-101903937D01*
X142453937Y-101759774D01*
X142567205Y-101590256D01*
X142645226Y-101401898D01*
X142685000Y-101201939D01*
X142685000Y-100998061D01*
X142645226Y-100798102D01*
X142567205Y-100609744D01*
X142453937Y-100440226D01*
X142309774Y-100296063D01*
X142140256Y-100182795D01*
X141951898Y-100104774D01*
X141751939Y-100065000D01*
X141548061Y-100065000D01*
X141348102Y-100104774D01*
X141159744Y-100182795D01*
X141140000Y-100195987D01*
X141140000Y-99224531D01*
X141925074Y-99224531D01*
X142035921Y-99501714D01*
X142346840Y-99655089D01*
X142681705Y-99744860D01*
X143027650Y-99767576D01*
X143371380Y-99722366D01*
X143699685Y-99610966D01*
X143904079Y-99501714D01*
X144014926Y-99224531D01*
X147005074Y-99224531D01*
X147115921Y-99501714D01*
X147426840Y-99655089D01*
X147761705Y-99744860D01*
X148107650Y-99767576D01*
X148451380Y-99722366D01*
X148779685Y-99610966D01*
X148984079Y-99501714D01*
X149094926Y-99224531D01*
X151925074Y-99224531D01*
X152035921Y-99501714D01*
X152346840Y-99655089D01*
X152681705Y-99744860D01*
X153027650Y-99767576D01*
X153371380Y-99722366D01*
X153699685Y-99610966D01*
X153904079Y-99501714D01*
X154014926Y-99224531D01*
X157005074Y-99224531D01*
X157115921Y-99501714D01*
X157426840Y-99655089D01*
X157761705Y-99744860D01*
X158107650Y-99767576D01*
X158451380Y-99722366D01*
X158779685Y-99610966D01*
X158984079Y-99501714D01*
X159094926Y-99224531D01*
X158050000Y-98179605D01*
X157005074Y-99224531D01*
X154014926Y-99224531D01*
X152970000Y-98179605D01*
X151925074Y-99224531D01*
X149094926Y-99224531D01*
X148050000Y-98179605D01*
X147005074Y-99224531D01*
X144014926Y-99224531D01*
X142970000Y-98179605D01*
X141925074Y-99224531D01*
X141140000Y-99224531D01*
X141140000Y-98057650D01*
X141202424Y-98057650D01*
X141247634Y-98401380D01*
X141359034Y-98729685D01*
X141468286Y-98934079D01*
X141745469Y-99044926D01*
X142790395Y-98000000D01*
X143149605Y-98000000D01*
X144194531Y-99044926D01*
X144471714Y-98934079D01*
X144625089Y-98623160D01*
X144714860Y-98288295D01*
X144730004Y-98057650D01*
X146282424Y-98057650D01*
X146327634Y-98401380D01*
X146439034Y-98729685D01*
X146548286Y-98934079D01*
X146825469Y-99044926D01*
X147870395Y-98000000D01*
X148229605Y-98000000D01*
X149274531Y-99044926D01*
X149551714Y-98934079D01*
X149705089Y-98623160D01*
X149794860Y-98288295D01*
X149810004Y-98057650D01*
X151202424Y-98057650D01*
X151247634Y-98401380D01*
X151359034Y-98729685D01*
X151468286Y-98934079D01*
X151745469Y-99044926D01*
X152790395Y-98000000D01*
X153149605Y-98000000D01*
X154194531Y-99044926D01*
X154471714Y-98934079D01*
X154625089Y-98623160D01*
X154714860Y-98288295D01*
X154730004Y-98057650D01*
X156282424Y-98057650D01*
X156327634Y-98401380D01*
X156439034Y-98729685D01*
X156548286Y-98934079D01*
X156825469Y-99044926D01*
X157870395Y-98000000D01*
X158229605Y-98000000D01*
X159274531Y-99044926D01*
X159551714Y-98934079D01*
X159705089Y-98623160D01*
X159794860Y-98288295D01*
X159817576Y-97942350D01*
X159772366Y-97598620D01*
X159660966Y-97270315D01*
X159551714Y-97065921D01*
X159274531Y-96955074D01*
X158229605Y-98000000D01*
X157870395Y-98000000D01*
X156825469Y-96955074D01*
X156548286Y-97065921D01*
X156394911Y-97376840D01*
X156305140Y-97711705D01*
X156282424Y-98057650D01*
X154730004Y-98057650D01*
X154737576Y-97942350D01*
X154692366Y-97598620D01*
X154580966Y-97270315D01*
X154471714Y-97065921D01*
X154194531Y-96955074D01*
X153149605Y-98000000D01*
X152790395Y-98000000D01*
X151745469Y-96955074D01*
X151468286Y-97065921D01*
X151314911Y-97376840D01*
X151225140Y-97711705D01*
X151202424Y-98057650D01*
X149810004Y-98057650D01*
X149817576Y-97942350D01*
X149772366Y-97598620D01*
X149660966Y-97270315D01*
X149551714Y-97065921D01*
X149274531Y-96955074D01*
X148229605Y-98000000D01*
X147870395Y-98000000D01*
X146825469Y-96955074D01*
X146548286Y-97065921D01*
X146394911Y-97376840D01*
X146305140Y-97711705D01*
X146282424Y-98057650D01*
X144730004Y-98057650D01*
X144737576Y-97942350D01*
X144692366Y-97598620D01*
X144580966Y-97270315D01*
X144471714Y-97065921D01*
X144194531Y-96955074D01*
X143149605Y-98000000D01*
X142790395Y-98000000D01*
X141745469Y-96955074D01*
X141468286Y-97065921D01*
X141314911Y-97376840D01*
X141225140Y-97711705D01*
X141202424Y-98057650D01*
X141140000Y-98057650D01*
X141140000Y-96775469D01*
X141925074Y-96775469D01*
X142970000Y-97820395D01*
X144014926Y-96775469D01*
X143904079Y-96498286D01*
X143593160Y-96344911D01*
X143258295Y-96255140D01*
X142912350Y-96232424D01*
X142568620Y-96277634D01*
X142240315Y-96389034D01*
X142035921Y-96498286D01*
X141925074Y-96775469D01*
X141140000Y-96775469D01*
X141140000Y-95296504D01*
X143850000Y-95296504D01*
X143850000Y-95623496D01*
X143913793Y-95944204D01*
X144038927Y-96246305D01*
X144220594Y-96518188D01*
X144451812Y-96749406D01*
X144723695Y-96931073D01*
X145025796Y-97056207D01*
X145346504Y-97120000D01*
X145673496Y-97120000D01*
X145994204Y-97056207D01*
X146296305Y-96931073D01*
X146529182Y-96775469D01*
X147005074Y-96775469D01*
X148050000Y-97820395D01*
X149094926Y-96775469D01*
X151925074Y-96775469D01*
X152970000Y-97820395D01*
X154014926Y-96775469D01*
X153904079Y-96498286D01*
X153593160Y-96344911D01*
X153258295Y-96255140D01*
X152912350Y-96232424D01*
X152568620Y-96277634D01*
X152240315Y-96389034D01*
X152035921Y-96498286D01*
X151925074Y-96775469D01*
X149094926Y-96775469D01*
X148984079Y-96498286D01*
X148673160Y-96344911D01*
X148338295Y-96255140D01*
X147992350Y-96232424D01*
X147648620Y-96277634D01*
X147320315Y-96389034D01*
X147115921Y-96498286D01*
X147005074Y-96775469D01*
X146529182Y-96775469D01*
X146568188Y-96749406D01*
X146799406Y-96518188D01*
X146981073Y-96246305D01*
X147106207Y-95944204D01*
X147170000Y-95623496D01*
X147170000Y-95296504D01*
X153850000Y-95296504D01*
X153850000Y-95623496D01*
X153913793Y-95944204D01*
X154038927Y-96246305D01*
X154220594Y-96518188D01*
X154451812Y-96749406D01*
X154723695Y-96931073D01*
X155025796Y-97056207D01*
X155346504Y-97120000D01*
X155673496Y-97120000D01*
X155994204Y-97056207D01*
X156296305Y-96931073D01*
X156529182Y-96775469D01*
X157005074Y-96775469D01*
X158050000Y-97820395D01*
X159094926Y-96775469D01*
X158984079Y-96498286D01*
X158673160Y-96344911D01*
X158338295Y-96255140D01*
X157992350Y-96232424D01*
X157648620Y-96277634D01*
X157320315Y-96389034D01*
X157115921Y-96498286D01*
X157005074Y-96775469D01*
X156529182Y-96775469D01*
X156568188Y-96749406D01*
X156799406Y-96518188D01*
X156981073Y-96246305D01*
X157106207Y-95944204D01*
X157170000Y-95623496D01*
X157170000Y-95296504D01*
X157106207Y-94975796D01*
X156981073Y-94673695D01*
X156799406Y-94401812D01*
X156568188Y-94170594D01*
X156529183Y-94144531D01*
X157005074Y-94144531D01*
X157115921Y-94421714D01*
X157426840Y-94575089D01*
X157761705Y-94664860D01*
X158107650Y-94687576D01*
X158451380Y-94642366D01*
X158779685Y-94530966D01*
X158984079Y-94421714D01*
X159094926Y-94144531D01*
X158050000Y-93099605D01*
X157005074Y-94144531D01*
X156529183Y-94144531D01*
X156296305Y-93988927D01*
X155994204Y-93863793D01*
X155673496Y-93800000D01*
X155346504Y-93800000D01*
X155025796Y-93863793D01*
X154723695Y-93988927D01*
X154451812Y-94170594D01*
X154220594Y-94401812D01*
X154038927Y-94673695D01*
X153913793Y-94975796D01*
X153850000Y-95296504D01*
X147170000Y-95296504D01*
X147106207Y-94975796D01*
X146981073Y-94673695D01*
X146799406Y-94401812D01*
X146568188Y-94170594D01*
X146529183Y-94144531D01*
X147005074Y-94144531D01*
X147115921Y-94421714D01*
X147426840Y-94575089D01*
X147761705Y-94664860D01*
X148107650Y-94687576D01*
X148451380Y-94642366D01*
X148779685Y-94530966D01*
X148984079Y-94421714D01*
X149094926Y-94144531D01*
X151925074Y-94144531D01*
X152035921Y-94421714D01*
X152346840Y-94575089D01*
X152681705Y-94664860D01*
X153027650Y-94687576D01*
X153371380Y-94642366D01*
X153699685Y-94530966D01*
X153904079Y-94421714D01*
X154014926Y-94144531D01*
X152970000Y-93099605D01*
X151925074Y-94144531D01*
X149094926Y-94144531D01*
X148050000Y-93099605D01*
X147005074Y-94144531D01*
X146529183Y-94144531D01*
X146296305Y-93988927D01*
X145994204Y-93863793D01*
X145673496Y-93800000D01*
X145346504Y-93800000D01*
X145025796Y-93863793D01*
X144723695Y-93988927D01*
X144451812Y-94170594D01*
X144220594Y-94401812D01*
X144038927Y-94673695D01*
X143913793Y-94975796D01*
X143850000Y-95296504D01*
X141140000Y-95296504D01*
X141140000Y-94144531D01*
X141925074Y-94144531D01*
X142035921Y-94421714D01*
X142346840Y-94575089D01*
X142681705Y-94664860D01*
X143027650Y-94687576D01*
X143371380Y-94642366D01*
X143699685Y-94530966D01*
X143904079Y-94421714D01*
X144014926Y-94144531D01*
X142970000Y-93099605D01*
X141925074Y-94144531D01*
X141140000Y-94144531D01*
X141140000Y-92977650D01*
X141202424Y-92977650D01*
X141247634Y-93321380D01*
X141359034Y-93649685D01*
X141468286Y-93854079D01*
X141745469Y-93964926D01*
X142790395Y-92920000D01*
X143149605Y-92920000D01*
X144194531Y-93964926D01*
X144471714Y-93854079D01*
X144625089Y-93543160D01*
X144714860Y-93208295D01*
X144730004Y-92977650D01*
X146282424Y-92977650D01*
X146327634Y-93321380D01*
X146439034Y-93649685D01*
X146548286Y-93854079D01*
X146825469Y-93964926D01*
X147870395Y-92920000D01*
X148229605Y-92920000D01*
X149274531Y-93964926D01*
X149551714Y-93854079D01*
X149705089Y-93543160D01*
X149794860Y-93208295D01*
X149810004Y-92977650D01*
X151202424Y-92977650D01*
X151247634Y-93321380D01*
X151359034Y-93649685D01*
X151468286Y-93854079D01*
X151745469Y-93964926D01*
X152790395Y-92920000D01*
X153149605Y-92920000D01*
X154194531Y-93964926D01*
X154471714Y-93854079D01*
X154625089Y-93543160D01*
X154714860Y-93208295D01*
X154730004Y-92977650D01*
X156282424Y-92977650D01*
X156327634Y-93321380D01*
X156439034Y-93649685D01*
X156548286Y-93854079D01*
X156825469Y-93964926D01*
X157870395Y-92920000D01*
X158229605Y-92920000D01*
X159274531Y-93964926D01*
X159551714Y-93854079D01*
X159705089Y-93543160D01*
X159794860Y-93208295D01*
X159817576Y-92862350D01*
X159772366Y-92518620D01*
X159660966Y-92190315D01*
X159551714Y-91985921D01*
X159274531Y-91875074D01*
X158229605Y-92920000D01*
X157870395Y-92920000D01*
X156825469Y-91875074D01*
X156548286Y-91985921D01*
X156394911Y-92296840D01*
X156305140Y-92631705D01*
X156282424Y-92977650D01*
X154730004Y-92977650D01*
X154737576Y-92862350D01*
X154692366Y-92518620D01*
X154580966Y-92190315D01*
X154471714Y-91985921D01*
X154194531Y-91875074D01*
X153149605Y-92920000D01*
X152790395Y-92920000D01*
X151745469Y-91875074D01*
X151468286Y-91985921D01*
X151314911Y-92296840D01*
X151225140Y-92631705D01*
X151202424Y-92977650D01*
X149810004Y-92977650D01*
X149817576Y-92862350D01*
X149772366Y-92518620D01*
X149660966Y-92190315D01*
X149551714Y-91985921D01*
X149274531Y-91875074D01*
X148229605Y-92920000D01*
X147870395Y-92920000D01*
X146825469Y-91875074D01*
X146548286Y-91985921D01*
X146394911Y-92296840D01*
X146305140Y-92631705D01*
X146282424Y-92977650D01*
X144730004Y-92977650D01*
X144737576Y-92862350D01*
X144692366Y-92518620D01*
X144580966Y-92190315D01*
X144471714Y-91985921D01*
X144194531Y-91875074D01*
X143149605Y-92920000D01*
X142790395Y-92920000D01*
X141745469Y-91875074D01*
X141468286Y-91985921D01*
X141314911Y-92296840D01*
X141225140Y-92631705D01*
X141202424Y-92977650D01*
X141140000Y-92977650D01*
X141140000Y-91695469D01*
X141925074Y-91695469D01*
X142970000Y-92740395D01*
X144014926Y-91695469D01*
X147005074Y-91695469D01*
X148050000Y-92740395D01*
X149094926Y-91695469D01*
X151925074Y-91695469D01*
X152970000Y-92740395D01*
X154014926Y-91695469D01*
X157005074Y-91695469D01*
X158050000Y-92740395D01*
X159094926Y-91695469D01*
X158984079Y-91418286D01*
X158673160Y-91264911D01*
X158338295Y-91175140D01*
X157992350Y-91152424D01*
X157648620Y-91197634D01*
X157320315Y-91309034D01*
X157115921Y-91418286D01*
X157005074Y-91695469D01*
X154014926Y-91695469D01*
X153904079Y-91418286D01*
X153593160Y-91264911D01*
X153258295Y-91175140D01*
X152912350Y-91152424D01*
X152568620Y-91197634D01*
X152240315Y-91309034D01*
X152035921Y-91418286D01*
X151925074Y-91695469D01*
X149094926Y-91695469D01*
X148984079Y-91418286D01*
X148673160Y-91264911D01*
X148338295Y-91175140D01*
X147992350Y-91152424D01*
X147648620Y-91197634D01*
X147320315Y-91309034D01*
X147115921Y-91418286D01*
X147005074Y-91695469D01*
X144014926Y-91695469D01*
X143904079Y-91418286D01*
X143593160Y-91264911D01*
X143258295Y-91175140D01*
X142912350Y-91152424D01*
X142568620Y-91197634D01*
X142240315Y-91309034D01*
X142035921Y-91418286D01*
X141925074Y-91695469D01*
X141140000Y-91695469D01*
X141140000Y-90014531D01*
X141925074Y-90014531D01*
X142035921Y-90291714D01*
X142346840Y-90445089D01*
X142681705Y-90534860D01*
X143027650Y-90557576D01*
X143371380Y-90512366D01*
X143699685Y-90400966D01*
X143904079Y-90291714D01*
X144014926Y-90014531D01*
X147005074Y-90014531D01*
X147115921Y-90291714D01*
X147426840Y-90445089D01*
X147761705Y-90534860D01*
X148107650Y-90557576D01*
X148451380Y-90512366D01*
X148779685Y-90400966D01*
X148984079Y-90291714D01*
X149094926Y-90014531D01*
X151925074Y-90014531D01*
X152035921Y-90291714D01*
X152346840Y-90445089D01*
X152681705Y-90534860D01*
X153027650Y-90557576D01*
X153371380Y-90512366D01*
X153699685Y-90400966D01*
X153904079Y-90291714D01*
X154014926Y-90014531D01*
X157005074Y-90014531D01*
X157115921Y-90291714D01*
X157426840Y-90445089D01*
X157761705Y-90534860D01*
X158107650Y-90557576D01*
X158451380Y-90512366D01*
X158779685Y-90400966D01*
X158984079Y-90291714D01*
X159094926Y-90014531D01*
X158050000Y-88969605D01*
X157005074Y-90014531D01*
X154014926Y-90014531D01*
X152970000Y-88969605D01*
X151925074Y-90014531D01*
X149094926Y-90014531D01*
X148050000Y-88969605D01*
X147005074Y-90014531D01*
X144014926Y-90014531D01*
X142970000Y-88969605D01*
X141925074Y-90014531D01*
X141140000Y-90014531D01*
X141140000Y-88847650D01*
X141202424Y-88847650D01*
X141247634Y-89191380D01*
X141359034Y-89519685D01*
X141468286Y-89724079D01*
X141745469Y-89834926D01*
X142790395Y-88790000D01*
X143149605Y-88790000D01*
X144194531Y-89834926D01*
X144471714Y-89724079D01*
X144625089Y-89413160D01*
X144714860Y-89078295D01*
X144730004Y-88847650D01*
X146282424Y-88847650D01*
X146327634Y-89191380D01*
X146439034Y-89519685D01*
X146548286Y-89724079D01*
X146825469Y-89834926D01*
X147870395Y-88790000D01*
X148229605Y-88790000D01*
X149274531Y-89834926D01*
X149551714Y-89724079D01*
X149705089Y-89413160D01*
X149794860Y-89078295D01*
X149810004Y-88847650D01*
X151202424Y-88847650D01*
X151247634Y-89191380D01*
X151359034Y-89519685D01*
X151468286Y-89724079D01*
X151745469Y-89834926D01*
X152790395Y-88790000D01*
X153149605Y-88790000D01*
X154194531Y-89834926D01*
X154471714Y-89724079D01*
X154625089Y-89413160D01*
X154714860Y-89078295D01*
X154730004Y-88847650D01*
X156282424Y-88847650D01*
X156327634Y-89191380D01*
X156439034Y-89519685D01*
X156548286Y-89724079D01*
X156825469Y-89834926D01*
X157870395Y-88790000D01*
X158229605Y-88790000D01*
X159274531Y-89834926D01*
X159551714Y-89724079D01*
X159705089Y-89413160D01*
X159794860Y-89078295D01*
X159817576Y-88732350D01*
X159772366Y-88388620D01*
X159660966Y-88060315D01*
X159551714Y-87855921D01*
X159274531Y-87745074D01*
X158229605Y-88790000D01*
X157870395Y-88790000D01*
X156825469Y-87745074D01*
X156548286Y-87855921D01*
X156394911Y-88166840D01*
X156305140Y-88501705D01*
X156282424Y-88847650D01*
X154730004Y-88847650D01*
X154737576Y-88732350D01*
X154692366Y-88388620D01*
X154580966Y-88060315D01*
X154471714Y-87855921D01*
X154194531Y-87745074D01*
X153149605Y-88790000D01*
X152790395Y-88790000D01*
X151745469Y-87745074D01*
X151468286Y-87855921D01*
X151314911Y-88166840D01*
X151225140Y-88501705D01*
X151202424Y-88847650D01*
X149810004Y-88847650D01*
X149817576Y-88732350D01*
X149772366Y-88388620D01*
X149660966Y-88060315D01*
X149551714Y-87855921D01*
X149274531Y-87745074D01*
X148229605Y-88790000D01*
X147870395Y-88790000D01*
X146825469Y-87745074D01*
X146548286Y-87855921D01*
X146394911Y-88166840D01*
X146305140Y-88501705D01*
X146282424Y-88847650D01*
X144730004Y-88847650D01*
X144737576Y-88732350D01*
X144692366Y-88388620D01*
X144580966Y-88060315D01*
X144471714Y-87855921D01*
X144194531Y-87745074D01*
X143149605Y-88790000D01*
X142790395Y-88790000D01*
X141745469Y-87745074D01*
X141468286Y-87855921D01*
X141314911Y-88166840D01*
X141225140Y-88501705D01*
X141202424Y-88847650D01*
X141140000Y-88847650D01*
X141140000Y-87565469D01*
X141925074Y-87565469D01*
X142970000Y-88610395D01*
X144014926Y-87565469D01*
X143904079Y-87288286D01*
X143593160Y-87134911D01*
X143258295Y-87045140D01*
X142912350Y-87022424D01*
X142568620Y-87067634D01*
X142240315Y-87179034D01*
X142035921Y-87288286D01*
X141925074Y-87565469D01*
X141140000Y-87565469D01*
X141140000Y-86086504D01*
X143850000Y-86086504D01*
X143850000Y-86413496D01*
X143913793Y-86734204D01*
X144038927Y-87036305D01*
X144220594Y-87308188D01*
X144451812Y-87539406D01*
X144723695Y-87721073D01*
X145025796Y-87846207D01*
X145346504Y-87910000D01*
X145673496Y-87910000D01*
X145994204Y-87846207D01*
X146296305Y-87721073D01*
X146529182Y-87565469D01*
X147005074Y-87565469D01*
X148050000Y-88610395D01*
X149094926Y-87565469D01*
X151925074Y-87565469D01*
X152970000Y-88610395D01*
X154014926Y-87565469D01*
X153904079Y-87288286D01*
X153593160Y-87134911D01*
X153258295Y-87045140D01*
X152912350Y-87022424D01*
X152568620Y-87067634D01*
X152240315Y-87179034D01*
X152035921Y-87288286D01*
X151925074Y-87565469D01*
X149094926Y-87565469D01*
X148984079Y-87288286D01*
X148673160Y-87134911D01*
X148338295Y-87045140D01*
X147992350Y-87022424D01*
X147648620Y-87067634D01*
X147320315Y-87179034D01*
X147115921Y-87288286D01*
X147005074Y-87565469D01*
X146529182Y-87565469D01*
X146568188Y-87539406D01*
X146799406Y-87308188D01*
X146981073Y-87036305D01*
X147106207Y-86734204D01*
X147170000Y-86413496D01*
X147170000Y-86086504D01*
X153850000Y-86086504D01*
X153850000Y-86413496D01*
X153913793Y-86734204D01*
X154038927Y-87036305D01*
X154220594Y-87308188D01*
X154451812Y-87539406D01*
X154723695Y-87721073D01*
X155025796Y-87846207D01*
X155346504Y-87910000D01*
X155673496Y-87910000D01*
X155994204Y-87846207D01*
X156296305Y-87721073D01*
X156529182Y-87565469D01*
X157005074Y-87565469D01*
X158050000Y-88610395D01*
X159094926Y-87565469D01*
X158984079Y-87288286D01*
X158673160Y-87134911D01*
X158338295Y-87045140D01*
X157992350Y-87022424D01*
X157648620Y-87067634D01*
X157320315Y-87179034D01*
X157115921Y-87288286D01*
X157005074Y-87565469D01*
X156529182Y-87565469D01*
X156568188Y-87539406D01*
X156799406Y-87308188D01*
X156981073Y-87036305D01*
X157106207Y-86734204D01*
X157170000Y-86413496D01*
X157170000Y-86086504D01*
X157106207Y-85765796D01*
X156981073Y-85463695D01*
X156799406Y-85191812D01*
X156568188Y-84960594D01*
X156529183Y-84934531D01*
X157005074Y-84934531D01*
X157115921Y-85211714D01*
X157426840Y-85365089D01*
X157761705Y-85454860D01*
X158107650Y-85477576D01*
X158451380Y-85432366D01*
X158779685Y-85320966D01*
X158984079Y-85211714D01*
X159094926Y-84934531D01*
X158050000Y-83889605D01*
X157005074Y-84934531D01*
X156529183Y-84934531D01*
X156296305Y-84778927D01*
X155994204Y-84653793D01*
X155673496Y-84590000D01*
X155346504Y-84590000D01*
X155025796Y-84653793D01*
X154723695Y-84778927D01*
X154451812Y-84960594D01*
X154220594Y-85191812D01*
X154038927Y-85463695D01*
X153913793Y-85765796D01*
X153850000Y-86086504D01*
X147170000Y-86086504D01*
X147106207Y-85765796D01*
X146981073Y-85463695D01*
X146799406Y-85191812D01*
X146568188Y-84960594D01*
X146529183Y-84934531D01*
X147005074Y-84934531D01*
X147115921Y-85211714D01*
X147426840Y-85365089D01*
X147761705Y-85454860D01*
X148107650Y-85477576D01*
X148451380Y-85432366D01*
X148779685Y-85320966D01*
X148984079Y-85211714D01*
X149094926Y-84934531D01*
X151925074Y-84934531D01*
X152035921Y-85211714D01*
X152346840Y-85365089D01*
X152681705Y-85454860D01*
X153027650Y-85477576D01*
X153371380Y-85432366D01*
X153699685Y-85320966D01*
X153904079Y-85211714D01*
X154014926Y-84934531D01*
X152970000Y-83889605D01*
X151925074Y-84934531D01*
X149094926Y-84934531D01*
X148050000Y-83889605D01*
X147005074Y-84934531D01*
X146529183Y-84934531D01*
X146296305Y-84778927D01*
X145994204Y-84653793D01*
X145673496Y-84590000D01*
X145346504Y-84590000D01*
X145025796Y-84653793D01*
X144723695Y-84778927D01*
X144451812Y-84960594D01*
X144220594Y-85191812D01*
X144038927Y-85463695D01*
X143913793Y-85765796D01*
X143850000Y-86086504D01*
X141140000Y-86086504D01*
X141140000Y-84934531D01*
X141925074Y-84934531D01*
X142035921Y-85211714D01*
X142346840Y-85365089D01*
X142681705Y-85454860D01*
X143027650Y-85477576D01*
X143371380Y-85432366D01*
X143699685Y-85320966D01*
X143904079Y-85211714D01*
X144014926Y-84934531D01*
X142970000Y-83889605D01*
X141925074Y-84934531D01*
X141140000Y-84934531D01*
X141140000Y-83767650D01*
X141202424Y-83767650D01*
X141247634Y-84111380D01*
X141359034Y-84439685D01*
X141468286Y-84644079D01*
X141745469Y-84754926D01*
X142790395Y-83710000D01*
X143149605Y-83710000D01*
X144194531Y-84754926D01*
X144471714Y-84644079D01*
X144625089Y-84333160D01*
X144714860Y-83998295D01*
X144730004Y-83767650D01*
X146282424Y-83767650D01*
X146327634Y-84111380D01*
X146439034Y-84439685D01*
X146548286Y-84644079D01*
X146825469Y-84754926D01*
X147870395Y-83710000D01*
X148229605Y-83710000D01*
X149274531Y-84754926D01*
X149551714Y-84644079D01*
X149705089Y-84333160D01*
X149794860Y-83998295D01*
X149810004Y-83767650D01*
X151202424Y-83767650D01*
X151247634Y-84111380D01*
X151359034Y-84439685D01*
X151468286Y-84644079D01*
X151745469Y-84754926D01*
X152790395Y-83710000D01*
X153149605Y-83710000D01*
X154194531Y-84754926D01*
X154471714Y-84644079D01*
X154625089Y-84333160D01*
X154714860Y-83998295D01*
X154730004Y-83767650D01*
X156282424Y-83767650D01*
X156327634Y-84111380D01*
X156439034Y-84439685D01*
X156548286Y-84644079D01*
X156825469Y-84754926D01*
X157870395Y-83710000D01*
X158229605Y-83710000D01*
X159274531Y-84754926D01*
X159551714Y-84644079D01*
X159705089Y-84333160D01*
X159794860Y-83998295D01*
X159817576Y-83652350D01*
X159772366Y-83308620D01*
X159660966Y-82980315D01*
X159551714Y-82775921D01*
X159274531Y-82665074D01*
X158229605Y-83710000D01*
X157870395Y-83710000D01*
X156825469Y-82665074D01*
X156548286Y-82775921D01*
X156394911Y-83086840D01*
X156305140Y-83421705D01*
X156282424Y-83767650D01*
X154730004Y-83767650D01*
X154737576Y-83652350D01*
X154692366Y-83308620D01*
X154580966Y-82980315D01*
X154471714Y-82775921D01*
X154194531Y-82665074D01*
X153149605Y-83710000D01*
X152790395Y-83710000D01*
X151745469Y-82665074D01*
X151468286Y-82775921D01*
X151314911Y-83086840D01*
X151225140Y-83421705D01*
X151202424Y-83767650D01*
X149810004Y-83767650D01*
X149817576Y-83652350D01*
X149772366Y-83308620D01*
X149660966Y-82980315D01*
X149551714Y-82775921D01*
X149274531Y-82665074D01*
X148229605Y-83710000D01*
X147870395Y-83710000D01*
X146825469Y-82665074D01*
X146548286Y-82775921D01*
X146394911Y-83086840D01*
X146305140Y-83421705D01*
X146282424Y-83767650D01*
X144730004Y-83767650D01*
X144737576Y-83652350D01*
X144692366Y-83308620D01*
X144580966Y-82980315D01*
X144471714Y-82775921D01*
X144194531Y-82665074D01*
X143149605Y-83710000D01*
X142790395Y-83710000D01*
X141745469Y-82665074D01*
X141468286Y-82775921D01*
X141314911Y-83086840D01*
X141225140Y-83421705D01*
X141202424Y-83767650D01*
X141140000Y-83767650D01*
X141140000Y-82485469D01*
X141925074Y-82485469D01*
X142970000Y-83530395D01*
X144014926Y-82485469D01*
X147005074Y-82485469D01*
X148050000Y-83530395D01*
X149094926Y-82485469D01*
X151925074Y-82485469D01*
X152970000Y-83530395D01*
X154014926Y-82485469D01*
X157005074Y-82485469D01*
X158050000Y-83530395D01*
X159094926Y-82485469D01*
X158984079Y-82208286D01*
X158673160Y-82054911D01*
X158338295Y-81965140D01*
X157992350Y-81942424D01*
X157648620Y-81987634D01*
X157320315Y-82099034D01*
X157115921Y-82208286D01*
X157005074Y-82485469D01*
X154014926Y-82485469D01*
X153904079Y-82208286D01*
X153593160Y-82054911D01*
X153258295Y-81965140D01*
X152912350Y-81942424D01*
X152568620Y-81987634D01*
X152240315Y-82099034D01*
X152035921Y-82208286D01*
X151925074Y-82485469D01*
X149094926Y-82485469D01*
X148984079Y-82208286D01*
X148673160Y-82054911D01*
X148338295Y-81965140D01*
X147992350Y-81942424D01*
X147648620Y-81987634D01*
X147320315Y-82099034D01*
X147115921Y-82208286D01*
X147005074Y-82485469D01*
X144014926Y-82485469D01*
X143904079Y-82208286D01*
X143593160Y-82054911D01*
X143258295Y-81965140D01*
X142912350Y-81942424D01*
X142568620Y-81987634D01*
X142240315Y-82099034D01*
X142035921Y-82208286D01*
X141925074Y-82485469D01*
X141140000Y-82485469D01*
X141140000Y-80014531D01*
X141925074Y-80014531D01*
X142035921Y-80291714D01*
X142346840Y-80445089D01*
X142681705Y-80534860D01*
X143027650Y-80557576D01*
X143371380Y-80512366D01*
X143699685Y-80400966D01*
X143904079Y-80291714D01*
X144014926Y-80014531D01*
X147005074Y-80014531D01*
X147115921Y-80291714D01*
X147426840Y-80445089D01*
X147761705Y-80534860D01*
X148107650Y-80557576D01*
X148451380Y-80512366D01*
X148779685Y-80400966D01*
X148984079Y-80291714D01*
X149094926Y-80014531D01*
X151925074Y-80014531D01*
X152035921Y-80291714D01*
X152346840Y-80445089D01*
X152681705Y-80534860D01*
X153027650Y-80557576D01*
X153371380Y-80512366D01*
X153699685Y-80400966D01*
X153904079Y-80291714D01*
X154014926Y-80014531D01*
X157005074Y-80014531D01*
X157115921Y-80291714D01*
X157426840Y-80445089D01*
X157761705Y-80534860D01*
X158107650Y-80557576D01*
X158451380Y-80512366D01*
X158779685Y-80400966D01*
X158984079Y-80291714D01*
X159094926Y-80014531D01*
X158050000Y-78969605D01*
X157005074Y-80014531D01*
X154014926Y-80014531D01*
X152970000Y-78969605D01*
X151925074Y-80014531D01*
X149094926Y-80014531D01*
X148050000Y-78969605D01*
X147005074Y-80014531D01*
X144014926Y-80014531D01*
X142970000Y-78969605D01*
X141925074Y-80014531D01*
X141140000Y-80014531D01*
X141140000Y-78847650D01*
X141202424Y-78847650D01*
X141247634Y-79191380D01*
X141359034Y-79519685D01*
X141468286Y-79724079D01*
X141745469Y-79834926D01*
X142790395Y-78790000D01*
X143149605Y-78790000D01*
X144194531Y-79834926D01*
X144471714Y-79724079D01*
X144625089Y-79413160D01*
X144714860Y-79078295D01*
X144730004Y-78847650D01*
X146282424Y-78847650D01*
X146327634Y-79191380D01*
X146439034Y-79519685D01*
X146548286Y-79724079D01*
X146825469Y-79834926D01*
X147870395Y-78790000D01*
X148229605Y-78790000D01*
X149274531Y-79834926D01*
X149551714Y-79724079D01*
X149705089Y-79413160D01*
X149794860Y-79078295D01*
X149810004Y-78847650D01*
X151202424Y-78847650D01*
X151247634Y-79191380D01*
X151359034Y-79519685D01*
X151468286Y-79724079D01*
X151745469Y-79834926D01*
X152790395Y-78790000D01*
X153149605Y-78790000D01*
X154194531Y-79834926D01*
X154471714Y-79724079D01*
X154625089Y-79413160D01*
X154714860Y-79078295D01*
X154730004Y-78847650D01*
X156282424Y-78847650D01*
X156327634Y-79191380D01*
X156439034Y-79519685D01*
X156548286Y-79724079D01*
X156825469Y-79834926D01*
X157870395Y-78790000D01*
X158229605Y-78790000D01*
X159274531Y-79834926D01*
X159551714Y-79724079D01*
X159705089Y-79413160D01*
X159794860Y-79078295D01*
X159817576Y-78732350D01*
X159772366Y-78388620D01*
X159660966Y-78060315D01*
X159551714Y-77855921D01*
X159274531Y-77745074D01*
X158229605Y-78790000D01*
X157870395Y-78790000D01*
X156825469Y-77745074D01*
X156548286Y-77855921D01*
X156394911Y-78166840D01*
X156305140Y-78501705D01*
X156282424Y-78847650D01*
X154730004Y-78847650D01*
X154737576Y-78732350D01*
X154692366Y-78388620D01*
X154580966Y-78060315D01*
X154471714Y-77855921D01*
X154194531Y-77745074D01*
X153149605Y-78790000D01*
X152790395Y-78790000D01*
X151745469Y-77745074D01*
X151468286Y-77855921D01*
X151314911Y-78166840D01*
X151225140Y-78501705D01*
X151202424Y-78847650D01*
X149810004Y-78847650D01*
X149817576Y-78732350D01*
X149772366Y-78388620D01*
X149660966Y-78060315D01*
X149551714Y-77855921D01*
X149274531Y-77745074D01*
X148229605Y-78790000D01*
X147870395Y-78790000D01*
X146825469Y-77745074D01*
X146548286Y-77855921D01*
X146394911Y-78166840D01*
X146305140Y-78501705D01*
X146282424Y-78847650D01*
X144730004Y-78847650D01*
X144737576Y-78732350D01*
X144692366Y-78388620D01*
X144580966Y-78060315D01*
X144471714Y-77855921D01*
X144194531Y-77745074D01*
X143149605Y-78790000D01*
X142790395Y-78790000D01*
X141745469Y-77745074D01*
X141468286Y-77855921D01*
X141314911Y-78166840D01*
X141225140Y-78501705D01*
X141202424Y-78847650D01*
X141140000Y-78847650D01*
X141140000Y-77565469D01*
X141925074Y-77565469D01*
X142970000Y-78610395D01*
X144014926Y-77565469D01*
X143904079Y-77288286D01*
X143593160Y-77134911D01*
X143258295Y-77045140D01*
X142912350Y-77022424D01*
X142568620Y-77067634D01*
X142240315Y-77179034D01*
X142035921Y-77288286D01*
X141925074Y-77565469D01*
X141140000Y-77565469D01*
X141140000Y-76086504D01*
X143850000Y-76086504D01*
X143850000Y-76413496D01*
X143913793Y-76734204D01*
X144038927Y-77036305D01*
X144220594Y-77308188D01*
X144451812Y-77539406D01*
X144723695Y-77721073D01*
X145025796Y-77846207D01*
X145346504Y-77910000D01*
X145673496Y-77910000D01*
X145994204Y-77846207D01*
X146296305Y-77721073D01*
X146529182Y-77565469D01*
X147005074Y-77565469D01*
X148050000Y-78610395D01*
X149094926Y-77565469D01*
X151925074Y-77565469D01*
X152970000Y-78610395D01*
X154014926Y-77565469D01*
X153904079Y-77288286D01*
X153593160Y-77134911D01*
X153258295Y-77045140D01*
X152912350Y-77022424D01*
X152568620Y-77067634D01*
X152240315Y-77179034D01*
X152035921Y-77288286D01*
X151925074Y-77565469D01*
X149094926Y-77565469D01*
X148984079Y-77288286D01*
X148673160Y-77134911D01*
X148338295Y-77045140D01*
X147992350Y-77022424D01*
X147648620Y-77067634D01*
X147320315Y-77179034D01*
X147115921Y-77288286D01*
X147005074Y-77565469D01*
X146529182Y-77565469D01*
X146568188Y-77539406D01*
X146799406Y-77308188D01*
X146981073Y-77036305D01*
X147106207Y-76734204D01*
X147170000Y-76413496D01*
X147170000Y-76086504D01*
X153850000Y-76086504D01*
X153850000Y-76413496D01*
X153913793Y-76734204D01*
X154038927Y-77036305D01*
X154220594Y-77308188D01*
X154451812Y-77539406D01*
X154723695Y-77721073D01*
X155025796Y-77846207D01*
X155346504Y-77910000D01*
X155673496Y-77910000D01*
X155994204Y-77846207D01*
X156296305Y-77721073D01*
X156529182Y-77565469D01*
X157005074Y-77565469D01*
X158050000Y-78610395D01*
X159094926Y-77565469D01*
X158984079Y-77288286D01*
X158673160Y-77134911D01*
X158338295Y-77045140D01*
X157992350Y-77022424D01*
X157648620Y-77067634D01*
X157320315Y-77179034D01*
X157115921Y-77288286D01*
X157005074Y-77565469D01*
X156529182Y-77565469D01*
X156568188Y-77539406D01*
X156799406Y-77308188D01*
X156981073Y-77036305D01*
X157106207Y-76734204D01*
X157170000Y-76413496D01*
X157170000Y-76086504D01*
X157106207Y-75765796D01*
X156981073Y-75463695D01*
X156799406Y-75191812D01*
X156568188Y-74960594D01*
X156529183Y-74934531D01*
X157005074Y-74934531D01*
X157115921Y-75211714D01*
X157426840Y-75365089D01*
X157761705Y-75454860D01*
X158107650Y-75477576D01*
X158451380Y-75432366D01*
X158779685Y-75320966D01*
X158984079Y-75211714D01*
X159094926Y-74934531D01*
X158050000Y-73889605D01*
X157005074Y-74934531D01*
X156529183Y-74934531D01*
X156296305Y-74778927D01*
X155994204Y-74653793D01*
X155673496Y-74590000D01*
X155346504Y-74590000D01*
X155025796Y-74653793D01*
X154723695Y-74778927D01*
X154451812Y-74960594D01*
X154220594Y-75191812D01*
X154038927Y-75463695D01*
X153913793Y-75765796D01*
X153850000Y-76086504D01*
X147170000Y-76086504D01*
X147106207Y-75765796D01*
X146981073Y-75463695D01*
X146799406Y-75191812D01*
X146568188Y-74960594D01*
X146529183Y-74934531D01*
X147005074Y-74934531D01*
X147115921Y-75211714D01*
X147426840Y-75365089D01*
X147761705Y-75454860D01*
X148107650Y-75477576D01*
X148451380Y-75432366D01*
X148779685Y-75320966D01*
X148984079Y-75211714D01*
X149094926Y-74934531D01*
X151925074Y-74934531D01*
X152035921Y-75211714D01*
X152346840Y-75365089D01*
X152681705Y-75454860D01*
X153027650Y-75477576D01*
X153371380Y-75432366D01*
X153699685Y-75320966D01*
X153904079Y-75211714D01*
X154014926Y-74934531D01*
X152970000Y-73889605D01*
X151925074Y-74934531D01*
X149094926Y-74934531D01*
X148050000Y-73889605D01*
X147005074Y-74934531D01*
X146529183Y-74934531D01*
X146296305Y-74778927D01*
X145994204Y-74653793D01*
X145673496Y-74590000D01*
X145346504Y-74590000D01*
X145025796Y-74653793D01*
X144723695Y-74778927D01*
X144451812Y-74960594D01*
X144220594Y-75191812D01*
X144038927Y-75463695D01*
X143913793Y-75765796D01*
X143850000Y-76086504D01*
X141140000Y-76086504D01*
X141140000Y-74934531D01*
X141925074Y-74934531D01*
X142035921Y-75211714D01*
X142346840Y-75365089D01*
X142681705Y-75454860D01*
X143027650Y-75477576D01*
X143371380Y-75432366D01*
X143699685Y-75320966D01*
X143904079Y-75211714D01*
X144014926Y-74934531D01*
X142970000Y-73889605D01*
X141925074Y-74934531D01*
X141140000Y-74934531D01*
X141140000Y-73767650D01*
X141202424Y-73767650D01*
X141247634Y-74111380D01*
X141359034Y-74439685D01*
X141468286Y-74644079D01*
X141745469Y-74754926D01*
X142790395Y-73710000D01*
X143149605Y-73710000D01*
X144194531Y-74754926D01*
X144471714Y-74644079D01*
X144625089Y-74333160D01*
X144714860Y-73998295D01*
X144730004Y-73767650D01*
X146282424Y-73767650D01*
X146327634Y-74111380D01*
X146439034Y-74439685D01*
X146548286Y-74644079D01*
X146825469Y-74754926D01*
X147870395Y-73710000D01*
X148229605Y-73710000D01*
X149274531Y-74754926D01*
X149551714Y-74644079D01*
X149705089Y-74333160D01*
X149794860Y-73998295D01*
X149810004Y-73767650D01*
X151202424Y-73767650D01*
X151247634Y-74111380D01*
X151359034Y-74439685D01*
X151468286Y-74644079D01*
X151745469Y-74754926D01*
X152790395Y-73710000D01*
X153149605Y-73710000D01*
X154194531Y-74754926D01*
X154471714Y-74644079D01*
X154625089Y-74333160D01*
X154714860Y-73998295D01*
X154730004Y-73767650D01*
X156282424Y-73767650D01*
X156327634Y-74111380D01*
X156439034Y-74439685D01*
X156548286Y-74644079D01*
X156825469Y-74754926D01*
X157870395Y-73710000D01*
X158229605Y-73710000D01*
X159274531Y-74754926D01*
X159551714Y-74644079D01*
X159705089Y-74333160D01*
X159794860Y-73998295D01*
X159817576Y-73652350D01*
X159772366Y-73308620D01*
X159660966Y-72980315D01*
X159551714Y-72775921D01*
X159274531Y-72665074D01*
X158229605Y-73710000D01*
X157870395Y-73710000D01*
X156825469Y-72665074D01*
X156548286Y-72775921D01*
X156394911Y-73086840D01*
X156305140Y-73421705D01*
X156282424Y-73767650D01*
X154730004Y-73767650D01*
X154737576Y-73652350D01*
X154692366Y-73308620D01*
X154580966Y-72980315D01*
X154471714Y-72775921D01*
X154194531Y-72665074D01*
X153149605Y-73710000D01*
X152790395Y-73710000D01*
X151745469Y-72665074D01*
X151468286Y-72775921D01*
X151314911Y-73086840D01*
X151225140Y-73421705D01*
X151202424Y-73767650D01*
X149810004Y-73767650D01*
X149817576Y-73652350D01*
X149772366Y-73308620D01*
X149660966Y-72980315D01*
X149551714Y-72775921D01*
X149274531Y-72665074D01*
X148229605Y-73710000D01*
X147870395Y-73710000D01*
X146825469Y-72665074D01*
X146548286Y-72775921D01*
X146394911Y-73086840D01*
X146305140Y-73421705D01*
X146282424Y-73767650D01*
X144730004Y-73767650D01*
X144737576Y-73652350D01*
X144692366Y-73308620D01*
X144580966Y-72980315D01*
X144471714Y-72775921D01*
X144194531Y-72665074D01*
X143149605Y-73710000D01*
X142790395Y-73710000D01*
X141745469Y-72665074D01*
X141468286Y-72775921D01*
X141314911Y-73086840D01*
X141225140Y-73421705D01*
X141202424Y-73767650D01*
X141140000Y-73767650D01*
X141140000Y-72485469D01*
X141925074Y-72485469D01*
X142970000Y-73530395D01*
X144014926Y-72485469D01*
X147005074Y-72485469D01*
X148050000Y-73530395D01*
X149094926Y-72485469D01*
X148984079Y-72208286D01*
X148673160Y-72054911D01*
X148338295Y-71965140D01*
X147992350Y-71942424D01*
X147648620Y-71987634D01*
X147320315Y-72099034D01*
X147115921Y-72208286D01*
X147005074Y-72485469D01*
X144014926Y-72485469D01*
X143904079Y-72208286D01*
X143593160Y-72054911D01*
X143258295Y-71965140D01*
X142912350Y-71942424D01*
X142568620Y-71987634D01*
X142240315Y-72099034D01*
X142035921Y-72208286D01*
X141925074Y-72485469D01*
X141140000Y-72485469D01*
X141140000Y-71110000D01*
X149547125Y-71110000D01*
X149514774Y-71188102D01*
G04 #@! TA.AperFunction,Conductor*
D16*
G36*
X149514774Y-71188102D02*
G01*
X149475000Y-71388061D01*
X149475000Y-71591939D01*
X149514774Y-71791898D01*
X149592795Y-71980256D01*
X149706063Y-72149774D01*
X149850226Y-72293937D01*
X150019744Y-72407205D01*
X150208102Y-72485226D01*
X150408061Y-72525000D01*
X150611939Y-72525000D01*
X150810676Y-72485469D01*
X151925074Y-72485469D01*
X152970000Y-73530395D01*
X154014926Y-72485469D01*
X157005074Y-72485469D01*
X158050000Y-73530395D01*
X159094926Y-72485469D01*
X158984079Y-72208286D01*
X158673160Y-72054911D01*
X158338295Y-71965140D01*
X157992350Y-71942424D01*
X157648620Y-71987634D01*
X157320315Y-72099034D01*
X157115921Y-72208286D01*
X157005074Y-72485469D01*
X154014926Y-72485469D01*
X153904079Y-72208286D01*
X153593160Y-72054911D01*
X153258295Y-71965140D01*
X152912350Y-71942424D01*
X152568620Y-71987634D01*
X152240315Y-72099034D01*
X152035921Y-72208286D01*
X151925074Y-72485469D01*
X150810676Y-72485469D01*
X150811898Y-72485226D01*
X151000256Y-72407205D01*
X151169774Y-72293937D01*
X151313937Y-72149774D01*
X151427205Y-71980256D01*
X151505226Y-71791898D01*
X151545000Y-71591939D01*
X151545000Y-71388061D01*
X151505226Y-71188102D01*
X151472875Y-71110000D01*
X160120001Y-71110000D01*
X160120000Y-107855979D01*
X160104912Y-107905718D01*
X160095000Y-108006354D01*
X160095001Y-115656263D01*
X159996264Y-115755000D01*
X154363736Y-115755000D01*
X154265000Y-115656264D01*
X154265000Y-108956353D01*
X154261638Y-108922219D01*
X154261638Y-108909892D01*
X154260638Y-108900380D01*
X154239971Y-108716128D01*
X154227062Y-108655396D01*
X154215004Y-108594500D01*
X154212177Y-108585364D01*
X154156115Y-108408634D01*
X154131667Y-108351592D01*
X154107998Y-108294167D01*
X154103449Y-108285753D01*
X154014128Y-108123279D01*
X153979037Y-108072031D01*
X153944693Y-108020339D01*
X153938597Y-108012970D01*
X153819419Y-107870940D01*
X153775062Y-107827502D01*
X153731315Y-107783449D01*
X153723903Y-107777404D01*
X153579409Y-107661228D01*
X153527499Y-107627259D01*
X153475988Y-107592515D01*
X153467544Y-107588025D01*
X153303235Y-107502126D01*
X153245680Y-107478872D01*
X153188435Y-107454809D01*
X153179283Y-107452046D01*
X153179277Y-107452044D01*
X153001415Y-107399697D01*
X152940408Y-107388059D01*
X152879614Y-107375580D01*
X152870096Y-107374646D01*
X152685452Y-107357842D01*
X152623362Y-107358276D01*
X152561283Y-107357843D01*
X152551764Y-107358776D01*
X152367372Y-107378157D01*
X152306569Y-107390638D01*
X152245574Y-107402273D01*
X152236418Y-107405038D01*
X152236413Y-107405039D01*
X152236408Y-107405041D01*
X152059302Y-107459864D01*
X152002057Y-107483927D01*
X151944502Y-107507181D01*
X151936063Y-107511668D01*
X151936059Y-107511670D01*
X151936058Y-107511671D01*
X151772965Y-107599855D01*
X151721508Y-107634563D01*
X151669542Y-107668569D01*
X151662130Y-107674614D01*
X151519271Y-107792798D01*
X151475526Y-107836850D01*
X151431168Y-107880288D01*
X151425072Y-107887657D01*
X151425069Y-107887660D01*
X151425067Y-107887664D01*
X151307889Y-108031337D01*
X151273535Y-108083044D01*
X151238456Y-108134275D01*
X151233907Y-108142688D01*
X151146863Y-108306394D01*
X151123213Y-108363772D01*
X151098745Y-108420862D01*
X151095917Y-108429998D01*
X151042329Y-108607492D01*
X151030274Y-108668373D01*
X151017362Y-108729119D01*
X151016362Y-108738631D01*
X150998269Y-108923154D01*
X150998269Y-108923159D01*
X150995000Y-108956354D01*
X150995001Y-115656263D01*
X150896264Y-115755000D01*
X141495085Y-115755000D01*
X141263279Y-115754543D01*
X141165000Y-115656264D01*
X141165000Y-109928061D01*
X148095000Y-109928061D01*
X148095000Y-110131939D01*
X148134774Y-110331898D01*
X148212795Y-110520256D01*
X148326063Y-110689774D01*
X148470226Y-110833937D01*
X148639744Y-110947205D01*
X148828102Y-111025226D01*
X149028061Y-111065000D01*
X149231939Y-111065000D01*
X149431898Y-111025226D01*
X149620256Y-110947205D01*
X149789774Y-110833937D01*
X149933937Y-110689774D01*
X150047205Y-110520256D01*
X150125226Y-110331898D01*
X150165000Y-110131939D01*
X150165000Y-109928061D01*
X150125226Y-109728102D01*
X150047205Y-109539744D01*
X149933937Y-109370226D01*
X149789774Y-109226063D01*
X149620256Y-109112795D01*
X149431898Y-109034774D01*
X149231939Y-108995000D01*
X149028061Y-108995000D01*
X148828102Y-109034774D01*
X148639744Y-109112795D01*
X148470226Y-109226063D01*
X148326063Y-109370226D01*
X148212795Y-109539744D01*
X148134774Y-109728102D01*
X148095000Y-109928061D01*
X141165000Y-109928061D01*
X141165000Y-108006353D01*
X141155088Y-107905717D01*
X141140000Y-107855978D01*
X141140000Y-104153740D01*
X141245000Y-104153740D01*
X141245000Y-104446260D01*
X141302068Y-104733158D01*
X141414010Y-105003411D01*
X141576525Y-105246632D01*
X141783368Y-105453475D01*
X142026589Y-105615990D01*
X142296842Y-105727932D01*
X142583740Y-105785000D01*
X142876260Y-105785000D01*
X143163158Y-105727932D01*
X143433411Y-105615990D01*
X143676632Y-105453475D01*
X143883475Y-105246632D01*
X144000000Y-105072240D01*
X144116525Y-105246632D01*
X144323368Y-105453475D01*
X144566589Y-105615990D01*
X144836842Y-105727932D01*
X145123740Y-105785000D01*
X145416260Y-105785000D01*
X145703158Y-105727932D01*
X145973411Y-105615990D01*
X146216632Y-105453475D01*
X146423475Y-105246632D01*
X146540000Y-105072240D01*
X146656525Y-105246632D01*
X146863368Y-105453475D01*
X147106589Y-105615990D01*
X147376842Y-105727932D01*
X147663740Y-105785000D01*
X147956260Y-105785000D01*
X148243158Y-105727932D01*
X148513411Y-105615990D01*
X148756632Y-105453475D01*
X148888487Y-105321620D01*
X148910498Y-105394180D01*
X148969463Y-105504494D01*
X149048815Y-105601185D01*
X149145506Y-105680537D01*
X149255820Y-105739502D01*
X149375518Y-105775812D01*
X149500000Y-105788072D01*
X150064250Y-105785000D01*
X150223000Y-105626250D01*
X150223000Y-104427000D01*
X150477000Y-104427000D01*
X150477000Y-105626250D01*
X150635750Y-105785000D01*
X151200000Y-105788072D01*
X151324482Y-105775812D01*
X151444180Y-105739502D01*
X151554494Y-105680537D01*
X151651185Y-105601185D01*
X151730537Y-105504494D01*
X151789502Y-105394180D01*
X151825812Y-105274482D01*
X151838072Y-105150000D01*
X151835000Y-104585750D01*
X151676250Y-104427000D01*
X150477000Y-104427000D01*
X150223000Y-104427000D01*
X150203000Y-104427000D01*
X150203000Y-104173000D01*
X150223000Y-104173000D01*
X150223000Y-102973750D01*
X150477000Y-102973750D01*
X150477000Y-104173000D01*
X151676250Y-104173000D01*
X151835000Y-104014250D01*
X151838072Y-103450000D01*
X151825812Y-103325518D01*
X151789502Y-103205820D01*
X151730537Y-103095506D01*
X151651185Y-102998815D01*
X151554494Y-102919463D01*
X151444180Y-102860498D01*
X151324482Y-102824188D01*
X151200000Y-102811928D01*
X150635750Y-102815000D01*
X150477000Y-102973750D01*
X150223000Y-102973750D01*
X150064250Y-102815000D01*
X149500000Y-102811928D01*
X149375518Y-102824188D01*
X149255820Y-102860498D01*
X149145506Y-102919463D01*
X149048815Y-102998815D01*
X148969463Y-103095506D01*
X148910498Y-103205820D01*
X148888487Y-103278380D01*
X148756632Y-103146525D01*
X148513411Y-102984010D01*
X148243158Y-102872068D01*
X147956260Y-102815000D01*
X147663740Y-102815000D01*
X147376842Y-102872068D01*
X147106589Y-102984010D01*
X146863368Y-103146525D01*
X146656525Y-103353368D01*
X146540000Y-103527760D01*
X146423475Y-103353368D01*
X146216632Y-103146525D01*
X145973411Y-102984010D01*
X145703158Y-102872068D01*
X145416260Y-102815000D01*
X145123740Y-102815000D01*
X144836842Y-102872068D01*
X144566589Y-102984010D01*
X144323368Y-103146525D01*
X144116525Y-103353368D01*
X144000000Y-103527760D01*
X143883475Y-103353368D01*
X143676632Y-103146525D01*
X143433411Y-102984010D01*
X143163158Y-102872068D01*
X142876260Y-102815000D01*
X142583740Y-102815000D01*
X142296842Y-102872068D01*
X142026589Y-102984010D01*
X141783368Y-103146525D01*
X141576525Y-103353368D01*
X141414010Y-103596589D01*
X141302068Y-103866842D01*
X141245000Y-104153740D01*
X141140000Y-104153740D01*
X141140000Y-102004013D01*
X141159744Y-102017205D01*
X141348102Y-102095226D01*
X141548061Y-102135000D01*
X141751939Y-102135000D01*
X141951898Y-102095226D01*
X142140256Y-102017205D01*
X142309774Y-101903937D01*
X142453937Y-101759774D01*
X142567205Y-101590256D01*
X142645226Y-101401898D01*
X142685000Y-101201939D01*
X142685000Y-100998061D01*
X142645226Y-100798102D01*
X142567205Y-100609744D01*
X142453937Y-100440226D01*
X142309774Y-100296063D01*
X142140256Y-100182795D01*
X141951898Y-100104774D01*
X141751939Y-100065000D01*
X141548061Y-100065000D01*
X141348102Y-100104774D01*
X141159744Y-100182795D01*
X141140000Y-100195987D01*
X141140000Y-99224531D01*
X141925074Y-99224531D01*
X142035921Y-99501714D01*
X142346840Y-99655089D01*
X142681705Y-99744860D01*
X143027650Y-99767576D01*
X143371380Y-99722366D01*
X143699685Y-99610966D01*
X143904079Y-99501714D01*
X144014926Y-99224531D01*
X147005074Y-99224531D01*
X147115921Y-99501714D01*
X147426840Y-99655089D01*
X147761705Y-99744860D01*
X148107650Y-99767576D01*
X148451380Y-99722366D01*
X148779685Y-99610966D01*
X148984079Y-99501714D01*
X149094926Y-99224531D01*
X151925074Y-99224531D01*
X152035921Y-99501714D01*
X152346840Y-99655089D01*
X152681705Y-99744860D01*
X153027650Y-99767576D01*
X153371380Y-99722366D01*
X153699685Y-99610966D01*
X153904079Y-99501714D01*
X154014926Y-99224531D01*
X157005074Y-99224531D01*
X157115921Y-99501714D01*
X157426840Y-99655089D01*
X157761705Y-99744860D01*
X158107650Y-99767576D01*
X158451380Y-99722366D01*
X158779685Y-99610966D01*
X158984079Y-99501714D01*
X159094926Y-99224531D01*
X158050000Y-98179605D01*
X157005074Y-99224531D01*
X154014926Y-99224531D01*
X152970000Y-98179605D01*
X151925074Y-99224531D01*
X149094926Y-99224531D01*
X148050000Y-98179605D01*
X147005074Y-99224531D01*
X144014926Y-99224531D01*
X142970000Y-98179605D01*
X141925074Y-99224531D01*
X141140000Y-99224531D01*
X141140000Y-98057650D01*
X141202424Y-98057650D01*
X141247634Y-98401380D01*
X141359034Y-98729685D01*
X141468286Y-98934079D01*
X141745469Y-99044926D01*
X142790395Y-98000000D01*
X143149605Y-98000000D01*
X144194531Y-99044926D01*
X144471714Y-98934079D01*
X144625089Y-98623160D01*
X144714860Y-98288295D01*
X144730004Y-98057650D01*
X146282424Y-98057650D01*
X146327634Y-98401380D01*
X146439034Y-98729685D01*
X146548286Y-98934079D01*
X146825469Y-99044926D01*
X147870395Y-98000000D01*
X148229605Y-98000000D01*
X149274531Y-99044926D01*
X149551714Y-98934079D01*
X149705089Y-98623160D01*
X149794860Y-98288295D01*
X149810004Y-98057650D01*
X151202424Y-98057650D01*
X151247634Y-98401380D01*
X151359034Y-98729685D01*
X151468286Y-98934079D01*
X151745469Y-99044926D01*
X152790395Y-98000000D01*
X153149605Y-98000000D01*
X154194531Y-99044926D01*
X154471714Y-98934079D01*
X154625089Y-98623160D01*
X154714860Y-98288295D01*
X154730004Y-98057650D01*
X156282424Y-98057650D01*
X156327634Y-98401380D01*
X156439034Y-98729685D01*
X156548286Y-98934079D01*
X156825469Y-99044926D01*
X157870395Y-98000000D01*
X158229605Y-98000000D01*
X159274531Y-99044926D01*
X159551714Y-98934079D01*
X159705089Y-98623160D01*
X159794860Y-98288295D01*
X159817576Y-97942350D01*
X159772366Y-97598620D01*
X159660966Y-97270315D01*
X159551714Y-97065921D01*
X159274531Y-96955074D01*
X158229605Y-98000000D01*
X157870395Y-98000000D01*
X156825469Y-96955074D01*
X156548286Y-97065921D01*
X156394911Y-97376840D01*
X156305140Y-97711705D01*
X156282424Y-98057650D01*
X154730004Y-98057650D01*
X154737576Y-97942350D01*
X154692366Y-97598620D01*
X154580966Y-97270315D01*
X154471714Y-97065921D01*
X154194531Y-96955074D01*
X153149605Y-98000000D01*
X152790395Y-98000000D01*
X151745469Y-96955074D01*
X151468286Y-97065921D01*
X151314911Y-97376840D01*
X151225140Y-97711705D01*
X151202424Y-98057650D01*
X149810004Y-98057650D01*
X149817576Y-97942350D01*
X149772366Y-97598620D01*
X149660966Y-97270315D01*
X149551714Y-97065921D01*
X149274531Y-96955074D01*
X148229605Y-98000000D01*
X147870395Y-98000000D01*
X146825469Y-96955074D01*
X146548286Y-97065921D01*
X146394911Y-97376840D01*
X146305140Y-97711705D01*
X146282424Y-98057650D01*
X144730004Y-98057650D01*
X144737576Y-97942350D01*
X144692366Y-97598620D01*
X144580966Y-97270315D01*
X144471714Y-97065921D01*
X144194531Y-96955074D01*
X143149605Y-98000000D01*
X142790395Y-98000000D01*
X141745469Y-96955074D01*
X141468286Y-97065921D01*
X141314911Y-97376840D01*
X141225140Y-97711705D01*
X141202424Y-98057650D01*
X141140000Y-98057650D01*
X141140000Y-96775469D01*
X141925074Y-96775469D01*
X142970000Y-97820395D01*
X144014926Y-96775469D01*
X143904079Y-96498286D01*
X143593160Y-96344911D01*
X143258295Y-96255140D01*
X142912350Y-96232424D01*
X142568620Y-96277634D01*
X142240315Y-96389034D01*
X142035921Y-96498286D01*
X141925074Y-96775469D01*
X141140000Y-96775469D01*
X141140000Y-95296504D01*
X143850000Y-95296504D01*
X143850000Y-95623496D01*
X143913793Y-95944204D01*
X144038927Y-96246305D01*
X144220594Y-96518188D01*
X144451812Y-96749406D01*
X144723695Y-96931073D01*
X145025796Y-97056207D01*
X145346504Y-97120000D01*
X145673496Y-97120000D01*
X145994204Y-97056207D01*
X146296305Y-96931073D01*
X146529182Y-96775469D01*
X147005074Y-96775469D01*
X148050000Y-97820395D01*
X149094926Y-96775469D01*
X151925074Y-96775469D01*
X152970000Y-97820395D01*
X154014926Y-96775469D01*
X153904079Y-96498286D01*
X153593160Y-96344911D01*
X153258295Y-96255140D01*
X152912350Y-96232424D01*
X152568620Y-96277634D01*
X152240315Y-96389034D01*
X152035921Y-96498286D01*
X151925074Y-96775469D01*
X149094926Y-96775469D01*
X148984079Y-96498286D01*
X148673160Y-96344911D01*
X148338295Y-96255140D01*
X147992350Y-96232424D01*
X147648620Y-96277634D01*
X147320315Y-96389034D01*
X147115921Y-96498286D01*
X147005074Y-96775469D01*
X146529182Y-96775469D01*
X146568188Y-96749406D01*
X146799406Y-96518188D01*
X146981073Y-96246305D01*
X147106207Y-95944204D01*
X147170000Y-95623496D01*
X147170000Y-95296504D01*
X153850000Y-95296504D01*
X153850000Y-95623496D01*
X153913793Y-95944204D01*
X154038927Y-96246305D01*
X154220594Y-96518188D01*
X154451812Y-96749406D01*
X154723695Y-96931073D01*
X155025796Y-97056207D01*
X155346504Y-97120000D01*
X155673496Y-97120000D01*
X155994204Y-97056207D01*
X156296305Y-96931073D01*
X156529182Y-96775469D01*
X157005074Y-96775469D01*
X158050000Y-97820395D01*
X159094926Y-96775469D01*
X158984079Y-96498286D01*
X158673160Y-96344911D01*
X158338295Y-96255140D01*
X157992350Y-96232424D01*
X157648620Y-96277634D01*
X157320315Y-96389034D01*
X157115921Y-96498286D01*
X157005074Y-96775469D01*
X156529182Y-96775469D01*
X156568188Y-96749406D01*
X156799406Y-96518188D01*
X156981073Y-96246305D01*
X157106207Y-95944204D01*
X157170000Y-95623496D01*
X157170000Y-95296504D01*
X157106207Y-94975796D01*
X156981073Y-94673695D01*
X156799406Y-94401812D01*
X156568188Y-94170594D01*
X156529183Y-94144531D01*
X157005074Y-94144531D01*
X157115921Y-94421714D01*
X157426840Y-94575089D01*
X157761705Y-94664860D01*
X158107650Y-94687576D01*
X158451380Y-94642366D01*
X158779685Y-94530966D01*
X158984079Y-94421714D01*
X159094926Y-94144531D01*
X158050000Y-93099605D01*
X157005074Y-94144531D01*
X156529183Y-94144531D01*
X156296305Y-93988927D01*
X155994204Y-93863793D01*
X155673496Y-93800000D01*
X155346504Y-93800000D01*
X155025796Y-93863793D01*
X154723695Y-93988927D01*
X154451812Y-94170594D01*
X154220594Y-94401812D01*
X154038927Y-94673695D01*
X153913793Y-94975796D01*
X153850000Y-95296504D01*
X147170000Y-95296504D01*
X147106207Y-94975796D01*
X146981073Y-94673695D01*
X146799406Y-94401812D01*
X146568188Y-94170594D01*
X146529183Y-94144531D01*
X147005074Y-94144531D01*
X147115921Y-94421714D01*
X147426840Y-94575089D01*
X147761705Y-94664860D01*
X148107650Y-94687576D01*
X148451380Y-94642366D01*
X148779685Y-94530966D01*
X148984079Y-94421714D01*
X149094926Y-94144531D01*
X151925074Y-94144531D01*
X152035921Y-94421714D01*
X152346840Y-94575089D01*
X152681705Y-94664860D01*
X153027650Y-94687576D01*
X153371380Y-94642366D01*
X153699685Y-94530966D01*
X153904079Y-94421714D01*
X154014926Y-94144531D01*
X152970000Y-93099605D01*
X151925074Y-94144531D01*
X149094926Y-94144531D01*
X148050000Y-93099605D01*
X147005074Y-94144531D01*
X146529183Y-94144531D01*
X146296305Y-93988927D01*
X145994204Y-93863793D01*
X145673496Y-93800000D01*
X145346504Y-93800000D01*
X145025796Y-93863793D01*
X144723695Y-93988927D01*
X144451812Y-94170594D01*
X144220594Y-94401812D01*
X144038927Y-94673695D01*
X143913793Y-94975796D01*
X143850000Y-95296504D01*
X141140000Y-95296504D01*
X141140000Y-94144531D01*
X141925074Y-94144531D01*
X142035921Y-94421714D01*
X142346840Y-94575089D01*
X142681705Y-94664860D01*
X143027650Y-94687576D01*
X143371380Y-94642366D01*
X143699685Y-94530966D01*
X143904079Y-94421714D01*
X144014926Y-94144531D01*
X142970000Y-93099605D01*
X141925074Y-94144531D01*
X141140000Y-94144531D01*
X141140000Y-92977650D01*
X141202424Y-92977650D01*
X141247634Y-93321380D01*
X141359034Y-93649685D01*
X141468286Y-93854079D01*
X141745469Y-93964926D01*
X142790395Y-92920000D01*
X143149605Y-92920000D01*
X144194531Y-93964926D01*
X144471714Y-93854079D01*
X144625089Y-93543160D01*
X144714860Y-93208295D01*
X144730004Y-92977650D01*
X146282424Y-92977650D01*
X146327634Y-93321380D01*
X146439034Y-93649685D01*
X146548286Y-93854079D01*
X146825469Y-93964926D01*
X147870395Y-92920000D01*
X148229605Y-92920000D01*
X149274531Y-93964926D01*
X149551714Y-93854079D01*
X149705089Y-93543160D01*
X149794860Y-93208295D01*
X149810004Y-92977650D01*
X151202424Y-92977650D01*
X151247634Y-93321380D01*
X151359034Y-93649685D01*
X151468286Y-93854079D01*
X151745469Y-93964926D01*
X152790395Y-92920000D01*
X153149605Y-92920000D01*
X154194531Y-93964926D01*
X154471714Y-93854079D01*
X154625089Y-93543160D01*
X154714860Y-93208295D01*
X154730004Y-92977650D01*
X156282424Y-92977650D01*
X156327634Y-93321380D01*
X156439034Y-93649685D01*
X156548286Y-93854079D01*
X156825469Y-93964926D01*
X157870395Y-92920000D01*
X158229605Y-92920000D01*
X159274531Y-93964926D01*
X159551714Y-93854079D01*
X159705089Y-93543160D01*
X159794860Y-93208295D01*
X159817576Y-92862350D01*
X159772366Y-92518620D01*
X159660966Y-92190315D01*
X159551714Y-91985921D01*
X159274531Y-91875074D01*
X158229605Y-92920000D01*
X157870395Y-92920000D01*
X156825469Y-91875074D01*
X156548286Y-91985921D01*
X156394911Y-92296840D01*
X156305140Y-92631705D01*
X156282424Y-92977650D01*
X154730004Y-92977650D01*
X154737576Y-92862350D01*
X154692366Y-92518620D01*
X154580966Y-92190315D01*
X154471714Y-91985921D01*
X154194531Y-91875074D01*
X153149605Y-92920000D01*
X152790395Y-92920000D01*
X151745469Y-91875074D01*
X151468286Y-91985921D01*
X151314911Y-92296840D01*
X151225140Y-92631705D01*
X151202424Y-92977650D01*
X149810004Y-92977650D01*
X149817576Y-92862350D01*
X149772366Y-92518620D01*
X149660966Y-92190315D01*
X149551714Y-91985921D01*
X149274531Y-91875074D01*
X148229605Y-92920000D01*
X147870395Y-92920000D01*
X146825469Y-91875074D01*
X146548286Y-91985921D01*
X146394911Y-92296840D01*
X146305140Y-92631705D01*
X146282424Y-92977650D01*
X144730004Y-92977650D01*
X144737576Y-92862350D01*
X144692366Y-92518620D01*
X144580966Y-92190315D01*
X144471714Y-91985921D01*
X144194531Y-91875074D01*
X143149605Y-92920000D01*
X142790395Y-92920000D01*
X141745469Y-91875074D01*
X141468286Y-91985921D01*
X141314911Y-92296840D01*
X141225140Y-92631705D01*
X141202424Y-92977650D01*
X141140000Y-92977650D01*
X141140000Y-91695469D01*
X141925074Y-91695469D01*
X142970000Y-92740395D01*
X144014926Y-91695469D01*
X147005074Y-91695469D01*
X148050000Y-92740395D01*
X149094926Y-91695469D01*
X151925074Y-91695469D01*
X152970000Y-92740395D01*
X154014926Y-91695469D01*
X157005074Y-91695469D01*
X158050000Y-92740395D01*
X159094926Y-91695469D01*
X158984079Y-91418286D01*
X158673160Y-91264911D01*
X158338295Y-91175140D01*
X157992350Y-91152424D01*
X157648620Y-91197634D01*
X157320315Y-91309034D01*
X157115921Y-91418286D01*
X157005074Y-91695469D01*
X154014926Y-91695469D01*
X153904079Y-91418286D01*
X153593160Y-91264911D01*
X153258295Y-91175140D01*
X152912350Y-91152424D01*
X152568620Y-91197634D01*
X152240315Y-91309034D01*
X152035921Y-91418286D01*
X151925074Y-91695469D01*
X149094926Y-91695469D01*
X148984079Y-91418286D01*
X148673160Y-91264911D01*
X148338295Y-91175140D01*
X147992350Y-91152424D01*
X147648620Y-91197634D01*
X147320315Y-91309034D01*
X147115921Y-91418286D01*
X147005074Y-91695469D01*
X144014926Y-91695469D01*
X143904079Y-91418286D01*
X143593160Y-91264911D01*
X143258295Y-91175140D01*
X142912350Y-91152424D01*
X142568620Y-91197634D01*
X142240315Y-91309034D01*
X142035921Y-91418286D01*
X141925074Y-91695469D01*
X141140000Y-91695469D01*
X141140000Y-90014531D01*
X141925074Y-90014531D01*
X142035921Y-90291714D01*
X142346840Y-90445089D01*
X142681705Y-90534860D01*
X143027650Y-90557576D01*
X143371380Y-90512366D01*
X143699685Y-90400966D01*
X143904079Y-90291714D01*
X144014926Y-90014531D01*
X147005074Y-90014531D01*
X147115921Y-90291714D01*
X147426840Y-90445089D01*
X147761705Y-90534860D01*
X148107650Y-90557576D01*
X148451380Y-90512366D01*
X148779685Y-90400966D01*
X148984079Y-90291714D01*
X149094926Y-90014531D01*
X151925074Y-90014531D01*
X152035921Y-90291714D01*
X152346840Y-90445089D01*
X152681705Y-90534860D01*
X153027650Y-90557576D01*
X153371380Y-90512366D01*
X153699685Y-90400966D01*
X153904079Y-90291714D01*
X154014926Y-90014531D01*
X157005074Y-90014531D01*
X157115921Y-90291714D01*
X157426840Y-90445089D01*
X157761705Y-90534860D01*
X158107650Y-90557576D01*
X158451380Y-90512366D01*
X158779685Y-90400966D01*
X158984079Y-90291714D01*
X159094926Y-90014531D01*
X158050000Y-88969605D01*
X157005074Y-90014531D01*
X154014926Y-90014531D01*
X152970000Y-88969605D01*
X151925074Y-90014531D01*
X149094926Y-90014531D01*
X148050000Y-88969605D01*
X147005074Y-90014531D01*
X144014926Y-90014531D01*
X142970000Y-88969605D01*
X141925074Y-90014531D01*
X141140000Y-90014531D01*
X141140000Y-88847650D01*
X141202424Y-88847650D01*
X141247634Y-89191380D01*
X141359034Y-89519685D01*
X141468286Y-89724079D01*
X141745469Y-89834926D01*
X142790395Y-88790000D01*
X143149605Y-88790000D01*
X144194531Y-89834926D01*
X144471714Y-89724079D01*
X144625089Y-89413160D01*
X144714860Y-89078295D01*
X144730004Y-88847650D01*
X146282424Y-88847650D01*
X146327634Y-89191380D01*
X146439034Y-89519685D01*
X146548286Y-89724079D01*
X146825469Y-89834926D01*
X147870395Y-88790000D01*
X148229605Y-88790000D01*
X149274531Y-89834926D01*
X149551714Y-89724079D01*
X149705089Y-89413160D01*
X149794860Y-89078295D01*
X149810004Y-88847650D01*
X151202424Y-88847650D01*
X151247634Y-89191380D01*
X151359034Y-89519685D01*
X151468286Y-89724079D01*
X151745469Y-89834926D01*
X152790395Y-88790000D01*
X153149605Y-88790000D01*
X154194531Y-89834926D01*
X154471714Y-89724079D01*
X154625089Y-89413160D01*
X154714860Y-89078295D01*
X154730004Y-88847650D01*
X156282424Y-88847650D01*
X156327634Y-89191380D01*
X156439034Y-89519685D01*
X156548286Y-89724079D01*
X156825469Y-89834926D01*
X157870395Y-88790000D01*
X158229605Y-88790000D01*
X159274531Y-89834926D01*
X159551714Y-89724079D01*
X159705089Y-89413160D01*
X159794860Y-89078295D01*
X159817576Y-88732350D01*
X159772366Y-88388620D01*
X159660966Y-88060315D01*
X159551714Y-87855921D01*
X159274531Y-87745074D01*
X158229605Y-88790000D01*
X157870395Y-88790000D01*
X156825469Y-87745074D01*
X156548286Y-87855921D01*
X156394911Y-88166840D01*
X156305140Y-88501705D01*
X156282424Y-88847650D01*
X154730004Y-88847650D01*
X154737576Y-88732350D01*
X154692366Y-88388620D01*
X154580966Y-88060315D01*
X154471714Y-87855921D01*
X154194531Y-87745074D01*
X153149605Y-88790000D01*
X152790395Y-88790000D01*
X151745469Y-87745074D01*
X151468286Y-87855921D01*
X151314911Y-88166840D01*
X151225140Y-88501705D01*
X151202424Y-88847650D01*
X149810004Y-88847650D01*
X149817576Y-88732350D01*
X149772366Y-88388620D01*
X149660966Y-88060315D01*
X149551714Y-87855921D01*
X149274531Y-87745074D01*
X148229605Y-88790000D01*
X147870395Y-88790000D01*
X146825469Y-87745074D01*
X146548286Y-87855921D01*
X146394911Y-88166840D01*
X146305140Y-88501705D01*
X146282424Y-88847650D01*
X144730004Y-88847650D01*
X144737576Y-88732350D01*
X144692366Y-88388620D01*
X144580966Y-88060315D01*
X144471714Y-87855921D01*
X144194531Y-87745074D01*
X143149605Y-88790000D01*
X142790395Y-88790000D01*
X141745469Y-87745074D01*
X141468286Y-87855921D01*
X141314911Y-88166840D01*
X141225140Y-88501705D01*
X141202424Y-88847650D01*
X141140000Y-88847650D01*
X141140000Y-87565469D01*
X141925074Y-87565469D01*
X142970000Y-88610395D01*
X144014926Y-87565469D01*
X143904079Y-87288286D01*
X143593160Y-87134911D01*
X143258295Y-87045140D01*
X142912350Y-87022424D01*
X142568620Y-87067634D01*
X142240315Y-87179034D01*
X142035921Y-87288286D01*
X141925074Y-87565469D01*
X141140000Y-87565469D01*
X141140000Y-86086504D01*
X143850000Y-86086504D01*
X143850000Y-86413496D01*
X143913793Y-86734204D01*
X144038927Y-87036305D01*
X144220594Y-87308188D01*
X144451812Y-87539406D01*
X144723695Y-87721073D01*
X145025796Y-87846207D01*
X145346504Y-87910000D01*
X145673496Y-87910000D01*
X145994204Y-87846207D01*
X146296305Y-87721073D01*
X146529182Y-87565469D01*
X147005074Y-87565469D01*
X148050000Y-88610395D01*
X149094926Y-87565469D01*
X151925074Y-87565469D01*
X152970000Y-88610395D01*
X154014926Y-87565469D01*
X153904079Y-87288286D01*
X153593160Y-87134911D01*
X153258295Y-87045140D01*
X152912350Y-87022424D01*
X152568620Y-87067634D01*
X152240315Y-87179034D01*
X152035921Y-87288286D01*
X151925074Y-87565469D01*
X149094926Y-87565469D01*
X148984079Y-87288286D01*
X148673160Y-87134911D01*
X148338295Y-87045140D01*
X147992350Y-87022424D01*
X147648620Y-87067634D01*
X147320315Y-87179034D01*
X147115921Y-87288286D01*
X147005074Y-87565469D01*
X146529182Y-87565469D01*
X146568188Y-87539406D01*
X146799406Y-87308188D01*
X146981073Y-87036305D01*
X147106207Y-86734204D01*
X147170000Y-86413496D01*
X147170000Y-86086504D01*
X153850000Y-86086504D01*
X153850000Y-86413496D01*
X153913793Y-86734204D01*
X154038927Y-87036305D01*
X154220594Y-87308188D01*
X154451812Y-87539406D01*
X154723695Y-87721073D01*
X155025796Y-87846207D01*
X155346504Y-87910000D01*
X155673496Y-87910000D01*
X155994204Y-87846207D01*
X156296305Y-87721073D01*
X156529182Y-87565469D01*
X157005074Y-87565469D01*
X158050000Y-88610395D01*
X159094926Y-87565469D01*
X158984079Y-87288286D01*
X158673160Y-87134911D01*
X158338295Y-87045140D01*
X157992350Y-87022424D01*
X157648620Y-87067634D01*
X157320315Y-87179034D01*
X157115921Y-87288286D01*
X157005074Y-87565469D01*
X156529182Y-87565469D01*
X156568188Y-87539406D01*
X156799406Y-87308188D01*
X156981073Y-87036305D01*
X157106207Y-86734204D01*
X157170000Y-86413496D01*
X157170000Y-86086504D01*
X157106207Y-85765796D01*
X156981073Y-85463695D01*
X156799406Y-85191812D01*
X156568188Y-84960594D01*
X156529183Y-84934531D01*
X157005074Y-84934531D01*
X157115921Y-85211714D01*
X157426840Y-85365089D01*
X157761705Y-85454860D01*
X158107650Y-85477576D01*
X158451380Y-85432366D01*
X158779685Y-85320966D01*
X158984079Y-85211714D01*
X159094926Y-84934531D01*
X158050000Y-83889605D01*
X157005074Y-84934531D01*
X156529183Y-84934531D01*
X156296305Y-84778927D01*
X155994204Y-84653793D01*
X155673496Y-84590000D01*
X155346504Y-84590000D01*
X155025796Y-84653793D01*
X154723695Y-84778927D01*
X154451812Y-84960594D01*
X154220594Y-85191812D01*
X154038927Y-85463695D01*
X153913793Y-85765796D01*
X153850000Y-86086504D01*
X147170000Y-86086504D01*
X147106207Y-85765796D01*
X146981073Y-85463695D01*
X146799406Y-85191812D01*
X146568188Y-84960594D01*
X146529183Y-84934531D01*
X147005074Y-84934531D01*
X147115921Y-85211714D01*
X147426840Y-85365089D01*
X147761705Y-85454860D01*
X148107650Y-85477576D01*
X148451380Y-85432366D01*
X148779685Y-85320966D01*
X148984079Y-85211714D01*
X149094926Y-84934531D01*
X151925074Y-84934531D01*
X152035921Y-85211714D01*
X152346840Y-85365089D01*
X152681705Y-85454860D01*
X153027650Y-85477576D01*
X153371380Y-85432366D01*
X153699685Y-85320966D01*
X153904079Y-85211714D01*
X154014926Y-84934531D01*
X152970000Y-83889605D01*
X151925074Y-84934531D01*
X149094926Y-84934531D01*
X148050000Y-83889605D01*
X147005074Y-84934531D01*
X146529183Y-84934531D01*
X146296305Y-84778927D01*
X145994204Y-84653793D01*
X145673496Y-84590000D01*
X145346504Y-84590000D01*
X145025796Y-84653793D01*
X144723695Y-84778927D01*
X144451812Y-84960594D01*
X144220594Y-85191812D01*
X144038927Y-85463695D01*
X143913793Y-85765796D01*
X143850000Y-86086504D01*
X141140000Y-86086504D01*
X141140000Y-84934531D01*
X141925074Y-84934531D01*
X142035921Y-85211714D01*
X142346840Y-85365089D01*
X142681705Y-85454860D01*
X143027650Y-85477576D01*
X143371380Y-85432366D01*
X143699685Y-85320966D01*
X143904079Y-85211714D01*
X144014926Y-84934531D01*
X142970000Y-83889605D01*
X141925074Y-84934531D01*
X141140000Y-84934531D01*
X141140000Y-83767650D01*
X141202424Y-83767650D01*
X141247634Y-84111380D01*
X141359034Y-84439685D01*
X141468286Y-84644079D01*
X141745469Y-84754926D01*
X142790395Y-83710000D01*
X143149605Y-83710000D01*
X144194531Y-84754926D01*
X144471714Y-84644079D01*
X144625089Y-84333160D01*
X144714860Y-83998295D01*
X144730004Y-83767650D01*
X146282424Y-83767650D01*
X146327634Y-84111380D01*
X146439034Y-84439685D01*
X146548286Y-84644079D01*
X146825469Y-84754926D01*
X147870395Y-83710000D01*
X148229605Y-83710000D01*
X149274531Y-84754926D01*
X149551714Y-84644079D01*
X149705089Y-84333160D01*
X149794860Y-83998295D01*
X149810004Y-83767650D01*
X151202424Y-83767650D01*
X151247634Y-84111380D01*
X151359034Y-84439685D01*
X151468286Y-84644079D01*
X151745469Y-84754926D01*
X152790395Y-83710000D01*
X153149605Y-83710000D01*
X154194531Y-84754926D01*
X154471714Y-84644079D01*
X154625089Y-84333160D01*
X154714860Y-83998295D01*
X154730004Y-83767650D01*
X156282424Y-83767650D01*
X156327634Y-84111380D01*
X156439034Y-84439685D01*
X156548286Y-84644079D01*
X156825469Y-84754926D01*
X157870395Y-83710000D01*
X158229605Y-83710000D01*
X159274531Y-84754926D01*
X159551714Y-84644079D01*
X159705089Y-84333160D01*
X159794860Y-83998295D01*
X159817576Y-83652350D01*
X159772366Y-83308620D01*
X159660966Y-82980315D01*
X159551714Y-82775921D01*
X159274531Y-82665074D01*
X158229605Y-83710000D01*
X157870395Y-83710000D01*
X156825469Y-82665074D01*
X156548286Y-82775921D01*
X156394911Y-83086840D01*
X156305140Y-83421705D01*
X156282424Y-83767650D01*
X154730004Y-83767650D01*
X154737576Y-83652350D01*
X154692366Y-83308620D01*
X154580966Y-82980315D01*
X154471714Y-82775921D01*
X154194531Y-82665074D01*
X153149605Y-83710000D01*
X152790395Y-83710000D01*
X151745469Y-82665074D01*
X151468286Y-82775921D01*
X151314911Y-83086840D01*
X151225140Y-83421705D01*
X151202424Y-83767650D01*
X149810004Y-83767650D01*
X149817576Y-83652350D01*
X149772366Y-83308620D01*
X149660966Y-82980315D01*
X149551714Y-82775921D01*
X149274531Y-82665074D01*
X148229605Y-83710000D01*
X147870395Y-83710000D01*
X146825469Y-82665074D01*
X146548286Y-82775921D01*
X146394911Y-83086840D01*
X146305140Y-83421705D01*
X146282424Y-83767650D01*
X144730004Y-83767650D01*
X144737576Y-83652350D01*
X144692366Y-83308620D01*
X144580966Y-82980315D01*
X144471714Y-82775921D01*
X144194531Y-82665074D01*
X143149605Y-83710000D01*
X142790395Y-83710000D01*
X141745469Y-82665074D01*
X141468286Y-82775921D01*
X141314911Y-83086840D01*
X141225140Y-83421705D01*
X141202424Y-83767650D01*
X141140000Y-83767650D01*
X141140000Y-82485469D01*
X141925074Y-82485469D01*
X142970000Y-83530395D01*
X144014926Y-82485469D01*
X147005074Y-82485469D01*
X148050000Y-83530395D01*
X149094926Y-82485469D01*
X151925074Y-82485469D01*
X152970000Y-83530395D01*
X154014926Y-82485469D01*
X157005074Y-82485469D01*
X158050000Y-83530395D01*
X159094926Y-82485469D01*
X158984079Y-82208286D01*
X158673160Y-82054911D01*
X158338295Y-81965140D01*
X157992350Y-81942424D01*
X157648620Y-81987634D01*
X157320315Y-82099034D01*
X157115921Y-82208286D01*
X157005074Y-82485469D01*
X154014926Y-82485469D01*
X153904079Y-82208286D01*
X153593160Y-82054911D01*
X153258295Y-81965140D01*
X152912350Y-81942424D01*
X152568620Y-81987634D01*
X152240315Y-82099034D01*
X152035921Y-82208286D01*
X151925074Y-82485469D01*
X149094926Y-82485469D01*
X148984079Y-82208286D01*
X148673160Y-82054911D01*
X148338295Y-81965140D01*
X147992350Y-81942424D01*
X147648620Y-81987634D01*
X147320315Y-82099034D01*
X147115921Y-82208286D01*
X147005074Y-82485469D01*
X144014926Y-82485469D01*
X143904079Y-82208286D01*
X143593160Y-82054911D01*
X143258295Y-81965140D01*
X142912350Y-81942424D01*
X142568620Y-81987634D01*
X142240315Y-82099034D01*
X142035921Y-82208286D01*
X141925074Y-82485469D01*
X141140000Y-82485469D01*
X141140000Y-80014531D01*
X141925074Y-80014531D01*
X142035921Y-80291714D01*
X142346840Y-80445089D01*
X142681705Y-80534860D01*
X143027650Y-80557576D01*
X143371380Y-80512366D01*
X143699685Y-80400966D01*
X143904079Y-80291714D01*
X144014926Y-80014531D01*
X147005074Y-80014531D01*
X147115921Y-80291714D01*
X147426840Y-80445089D01*
X147761705Y-80534860D01*
X148107650Y-80557576D01*
X148451380Y-80512366D01*
X148779685Y-80400966D01*
X148984079Y-80291714D01*
X149094926Y-80014531D01*
X151925074Y-80014531D01*
X152035921Y-80291714D01*
X152346840Y-80445089D01*
X152681705Y-80534860D01*
X153027650Y-80557576D01*
X153371380Y-80512366D01*
X153699685Y-80400966D01*
X153904079Y-80291714D01*
X154014926Y-80014531D01*
X157005074Y-80014531D01*
X157115921Y-80291714D01*
X157426840Y-80445089D01*
X157761705Y-80534860D01*
X158107650Y-80557576D01*
X158451380Y-80512366D01*
X158779685Y-80400966D01*
X158984079Y-80291714D01*
X159094926Y-80014531D01*
X158050000Y-78969605D01*
X157005074Y-80014531D01*
X154014926Y-80014531D01*
X152970000Y-78969605D01*
X151925074Y-80014531D01*
X149094926Y-80014531D01*
X148050000Y-78969605D01*
X147005074Y-80014531D01*
X144014926Y-80014531D01*
X142970000Y-78969605D01*
X141925074Y-80014531D01*
X141140000Y-80014531D01*
X141140000Y-78847650D01*
X141202424Y-78847650D01*
X141247634Y-79191380D01*
X141359034Y-79519685D01*
X141468286Y-79724079D01*
X141745469Y-79834926D01*
X142790395Y-78790000D01*
X143149605Y-78790000D01*
X144194531Y-79834926D01*
X144471714Y-79724079D01*
X144625089Y-79413160D01*
X144714860Y-79078295D01*
X144730004Y-78847650D01*
X146282424Y-78847650D01*
X146327634Y-79191380D01*
X146439034Y-79519685D01*
X146548286Y-79724079D01*
X146825469Y-79834926D01*
X147870395Y-78790000D01*
X148229605Y-78790000D01*
X149274531Y-79834926D01*
X149551714Y-79724079D01*
X149705089Y-79413160D01*
X149794860Y-79078295D01*
X149810004Y-78847650D01*
X151202424Y-78847650D01*
X151247634Y-79191380D01*
X151359034Y-79519685D01*
X151468286Y-79724079D01*
X151745469Y-79834926D01*
X152790395Y-78790000D01*
X153149605Y-78790000D01*
X154194531Y-79834926D01*
X154471714Y-79724079D01*
X154625089Y-79413160D01*
X154714860Y-79078295D01*
X154730004Y-78847650D01*
X156282424Y-78847650D01*
X156327634Y-79191380D01*
X156439034Y-79519685D01*
X156548286Y-79724079D01*
X156825469Y-79834926D01*
X157870395Y-78790000D01*
X158229605Y-78790000D01*
X159274531Y-79834926D01*
X159551714Y-79724079D01*
X159705089Y-79413160D01*
X159794860Y-79078295D01*
X159817576Y-78732350D01*
X159772366Y-78388620D01*
X159660966Y-78060315D01*
X159551714Y-77855921D01*
X159274531Y-77745074D01*
X158229605Y-78790000D01*
X157870395Y-78790000D01*
X156825469Y-77745074D01*
X156548286Y-77855921D01*
X156394911Y-78166840D01*
X156305140Y-78501705D01*
X156282424Y-78847650D01*
X154730004Y-78847650D01*
X154737576Y-78732350D01*
X154692366Y-78388620D01*
X154580966Y-78060315D01*
X154471714Y-77855921D01*
X154194531Y-77745074D01*
X153149605Y-78790000D01*
X152790395Y-78790000D01*
X151745469Y-77745074D01*
X151468286Y-77855921D01*
X151314911Y-78166840D01*
X151225140Y-78501705D01*
X151202424Y-78847650D01*
X149810004Y-78847650D01*
X149817576Y-78732350D01*
X149772366Y-78388620D01*
X149660966Y-78060315D01*
X149551714Y-77855921D01*
X149274531Y-77745074D01*
X148229605Y-78790000D01*
X147870395Y-78790000D01*
X146825469Y-77745074D01*
X146548286Y-77855921D01*
X146394911Y-78166840D01*
X146305140Y-78501705D01*
X146282424Y-78847650D01*
X144730004Y-78847650D01*
X144737576Y-78732350D01*
X144692366Y-78388620D01*
X144580966Y-78060315D01*
X144471714Y-77855921D01*
X144194531Y-77745074D01*
X143149605Y-78790000D01*
X142790395Y-78790000D01*
X141745469Y-77745074D01*
X141468286Y-77855921D01*
X141314911Y-78166840D01*
X141225140Y-78501705D01*
X141202424Y-78847650D01*
X141140000Y-78847650D01*
X141140000Y-77565469D01*
X141925074Y-77565469D01*
X142970000Y-78610395D01*
X144014926Y-77565469D01*
X143904079Y-77288286D01*
X143593160Y-77134911D01*
X143258295Y-77045140D01*
X142912350Y-77022424D01*
X142568620Y-77067634D01*
X142240315Y-77179034D01*
X142035921Y-77288286D01*
X141925074Y-77565469D01*
X141140000Y-77565469D01*
X141140000Y-76086504D01*
X143850000Y-76086504D01*
X143850000Y-76413496D01*
X143913793Y-76734204D01*
X144038927Y-77036305D01*
X144220594Y-77308188D01*
X144451812Y-77539406D01*
X144723695Y-77721073D01*
X145025796Y-77846207D01*
X145346504Y-77910000D01*
X145673496Y-77910000D01*
X145994204Y-77846207D01*
X146296305Y-77721073D01*
X146529182Y-77565469D01*
X147005074Y-77565469D01*
X148050000Y-78610395D01*
X149094926Y-77565469D01*
X151925074Y-77565469D01*
X152970000Y-78610395D01*
X154014926Y-77565469D01*
X153904079Y-77288286D01*
X153593160Y-77134911D01*
X153258295Y-77045140D01*
X152912350Y-77022424D01*
X152568620Y-77067634D01*
X152240315Y-77179034D01*
X152035921Y-77288286D01*
X151925074Y-77565469D01*
X149094926Y-77565469D01*
X148984079Y-77288286D01*
X148673160Y-77134911D01*
X148338295Y-77045140D01*
X147992350Y-77022424D01*
X147648620Y-77067634D01*
X147320315Y-77179034D01*
X147115921Y-77288286D01*
X147005074Y-77565469D01*
X146529182Y-77565469D01*
X146568188Y-77539406D01*
X146799406Y-77308188D01*
X146981073Y-77036305D01*
X147106207Y-76734204D01*
X147170000Y-76413496D01*
X147170000Y-76086504D01*
X153850000Y-76086504D01*
X153850000Y-76413496D01*
X153913793Y-76734204D01*
X154038927Y-77036305D01*
X154220594Y-77308188D01*
X154451812Y-77539406D01*
X154723695Y-77721073D01*
X155025796Y-77846207D01*
X155346504Y-77910000D01*
X155673496Y-77910000D01*
X155994204Y-77846207D01*
X156296305Y-77721073D01*
X156529182Y-77565469D01*
X157005074Y-77565469D01*
X158050000Y-78610395D01*
X159094926Y-77565469D01*
X158984079Y-77288286D01*
X158673160Y-77134911D01*
X158338295Y-77045140D01*
X157992350Y-77022424D01*
X157648620Y-77067634D01*
X157320315Y-77179034D01*
X157115921Y-77288286D01*
X157005074Y-77565469D01*
X156529182Y-77565469D01*
X156568188Y-77539406D01*
X156799406Y-77308188D01*
X156981073Y-77036305D01*
X157106207Y-76734204D01*
X157170000Y-76413496D01*
X157170000Y-76086504D01*
X157106207Y-75765796D01*
X156981073Y-75463695D01*
X156799406Y-75191812D01*
X156568188Y-74960594D01*
X156529183Y-74934531D01*
X157005074Y-74934531D01*
X157115921Y-75211714D01*
X157426840Y-75365089D01*
X157761705Y-75454860D01*
X158107650Y-75477576D01*
X158451380Y-75432366D01*
X158779685Y-75320966D01*
X158984079Y-75211714D01*
X159094926Y-74934531D01*
X158050000Y-73889605D01*
X157005074Y-74934531D01*
X156529183Y-74934531D01*
X156296305Y-74778927D01*
X155994204Y-74653793D01*
X155673496Y-74590000D01*
X155346504Y-74590000D01*
X155025796Y-74653793D01*
X154723695Y-74778927D01*
X154451812Y-74960594D01*
X154220594Y-75191812D01*
X154038927Y-75463695D01*
X153913793Y-75765796D01*
X153850000Y-76086504D01*
X147170000Y-76086504D01*
X147106207Y-75765796D01*
X146981073Y-75463695D01*
X146799406Y-75191812D01*
X146568188Y-74960594D01*
X146529183Y-74934531D01*
X147005074Y-74934531D01*
X147115921Y-75211714D01*
X147426840Y-75365089D01*
X147761705Y-75454860D01*
X148107650Y-75477576D01*
X148451380Y-75432366D01*
X148779685Y-75320966D01*
X148984079Y-75211714D01*
X149094926Y-74934531D01*
X151925074Y-74934531D01*
X152035921Y-75211714D01*
X152346840Y-75365089D01*
X152681705Y-75454860D01*
X153027650Y-75477576D01*
X153371380Y-75432366D01*
X153699685Y-75320966D01*
X153904079Y-75211714D01*
X154014926Y-74934531D01*
X152970000Y-73889605D01*
X151925074Y-74934531D01*
X149094926Y-74934531D01*
X148050000Y-73889605D01*
X147005074Y-74934531D01*
X146529183Y-74934531D01*
X146296305Y-74778927D01*
X145994204Y-74653793D01*
X145673496Y-74590000D01*
X145346504Y-74590000D01*
X145025796Y-74653793D01*
X144723695Y-74778927D01*
X144451812Y-74960594D01*
X144220594Y-75191812D01*
X144038927Y-75463695D01*
X143913793Y-75765796D01*
X143850000Y-76086504D01*
X141140000Y-76086504D01*
X141140000Y-74934531D01*
X141925074Y-74934531D01*
X142035921Y-75211714D01*
X142346840Y-75365089D01*
X142681705Y-75454860D01*
X143027650Y-75477576D01*
X143371380Y-75432366D01*
X143699685Y-75320966D01*
X143904079Y-75211714D01*
X144014926Y-74934531D01*
X142970000Y-73889605D01*
X141925074Y-74934531D01*
X141140000Y-74934531D01*
X141140000Y-73767650D01*
X141202424Y-73767650D01*
X141247634Y-74111380D01*
X141359034Y-74439685D01*
X141468286Y-74644079D01*
X141745469Y-74754926D01*
X142790395Y-73710000D01*
X143149605Y-73710000D01*
X144194531Y-74754926D01*
X144471714Y-74644079D01*
X144625089Y-74333160D01*
X144714860Y-73998295D01*
X144730004Y-73767650D01*
X146282424Y-73767650D01*
X146327634Y-74111380D01*
X146439034Y-74439685D01*
X146548286Y-74644079D01*
X146825469Y-74754926D01*
X147870395Y-73710000D01*
X148229605Y-73710000D01*
X149274531Y-74754926D01*
X149551714Y-74644079D01*
X149705089Y-74333160D01*
X149794860Y-73998295D01*
X149810004Y-73767650D01*
X151202424Y-73767650D01*
X151247634Y-74111380D01*
X151359034Y-74439685D01*
X151468286Y-74644079D01*
X151745469Y-74754926D01*
X152790395Y-73710000D01*
X153149605Y-73710000D01*
X154194531Y-74754926D01*
X154471714Y-74644079D01*
X154625089Y-74333160D01*
X154714860Y-73998295D01*
X154730004Y-73767650D01*
X156282424Y-73767650D01*
X156327634Y-74111380D01*
X156439034Y-74439685D01*
X156548286Y-74644079D01*
X156825469Y-74754926D01*
X157870395Y-73710000D01*
X158229605Y-73710000D01*
X159274531Y-74754926D01*
X159551714Y-74644079D01*
X159705089Y-74333160D01*
X159794860Y-73998295D01*
X159817576Y-73652350D01*
X159772366Y-73308620D01*
X159660966Y-72980315D01*
X159551714Y-72775921D01*
X159274531Y-72665074D01*
X158229605Y-73710000D01*
X157870395Y-73710000D01*
X156825469Y-72665074D01*
X156548286Y-72775921D01*
X156394911Y-73086840D01*
X156305140Y-73421705D01*
X156282424Y-73767650D01*
X154730004Y-73767650D01*
X154737576Y-73652350D01*
X154692366Y-73308620D01*
X154580966Y-72980315D01*
X154471714Y-72775921D01*
X154194531Y-72665074D01*
X153149605Y-73710000D01*
X152790395Y-73710000D01*
X151745469Y-72665074D01*
X151468286Y-72775921D01*
X151314911Y-73086840D01*
X151225140Y-73421705D01*
X151202424Y-73767650D01*
X149810004Y-73767650D01*
X149817576Y-73652350D01*
X149772366Y-73308620D01*
X149660966Y-72980315D01*
X149551714Y-72775921D01*
X149274531Y-72665074D01*
X148229605Y-73710000D01*
X147870395Y-73710000D01*
X146825469Y-72665074D01*
X146548286Y-72775921D01*
X146394911Y-73086840D01*
X146305140Y-73421705D01*
X146282424Y-73767650D01*
X144730004Y-73767650D01*
X144737576Y-73652350D01*
X144692366Y-73308620D01*
X144580966Y-72980315D01*
X144471714Y-72775921D01*
X144194531Y-72665074D01*
X143149605Y-73710000D01*
X142790395Y-73710000D01*
X141745469Y-72665074D01*
X141468286Y-72775921D01*
X141314911Y-73086840D01*
X141225140Y-73421705D01*
X141202424Y-73767650D01*
X141140000Y-73767650D01*
X141140000Y-72485469D01*
X141925074Y-72485469D01*
X142970000Y-73530395D01*
X144014926Y-72485469D01*
X147005074Y-72485469D01*
X148050000Y-73530395D01*
X149094926Y-72485469D01*
X148984079Y-72208286D01*
X148673160Y-72054911D01*
X148338295Y-71965140D01*
X147992350Y-71942424D01*
X147648620Y-71987634D01*
X147320315Y-72099034D01*
X147115921Y-72208286D01*
X147005074Y-72485469D01*
X144014926Y-72485469D01*
X143904079Y-72208286D01*
X143593160Y-72054911D01*
X143258295Y-71965140D01*
X142912350Y-71942424D01*
X142568620Y-71987634D01*
X142240315Y-72099034D01*
X142035921Y-72208286D01*
X141925074Y-72485469D01*
X141140000Y-72485469D01*
X141140000Y-71110000D01*
X149547125Y-71110000D01*
X149514774Y-71188102D01*
G37*
G04 #@! TD.AperFunction*
M02*
