G04 #@! TF.GenerationSoftware,KiCad,Pcbnew,5.1.10*
G04 #@! TF.CreationDate,2021-09-17T19:19:20-07:00*
G04 #@! TF.ProjectId,PCIEX1-SMA,50434945-5831-42d5-934d-412e6b696361,rev?*
G04 #@! TF.SameCoordinates,Original*
G04 #@! TF.FileFunction,Legend,Bot*
G04 #@! TF.FilePolarity,Positive*
%FSLAX46Y46*%
G04 Gerber Fmt 4.6, Leading zero omitted, Abs format (unit mm)*
G04 Created by KiCad (PCBNEW 5.1.10) date 2021-09-17 19:19:20*
%MOMM*%
%LPD*%
G01*
G04 APERTURE LIST*
%ADD10C,0.150000*%
%ADD11R,1.700000X1.700000*%
%ADD12O,1.700000X1.700000*%
%ADD13C,2.050000*%
%ADD14C,2.250000*%
%ADD15R,0.700000X4.300000*%
%ADD16R,0.700000X3.200000*%
G04 APERTURE END LIST*
D10*
X156598452Y-101533452D02*
X156598452Y-100608452D01*
X156246071Y-100608452D01*
X156157976Y-100652500D01*
X156113928Y-100696547D01*
X156069880Y-100784642D01*
X156069880Y-100916785D01*
X156113928Y-101004880D01*
X156157976Y-101048928D01*
X156246071Y-101092976D01*
X156598452Y-101092976D01*
X155144880Y-101445357D02*
X155188928Y-101489404D01*
X155321071Y-101533452D01*
X155409166Y-101533452D01*
X155541309Y-101489404D01*
X155629404Y-101401309D01*
X155673452Y-101313214D01*
X155717500Y-101137023D01*
X155717500Y-101004880D01*
X155673452Y-100828690D01*
X155629404Y-100740595D01*
X155541309Y-100652500D01*
X155409166Y-100608452D01*
X155321071Y-100608452D01*
X155188928Y-100652500D01*
X155144880Y-100696547D01*
X154748452Y-101533452D02*
X154748452Y-100608452D01*
X154307976Y-101048928D02*
X153999642Y-101048928D01*
X153867500Y-101533452D02*
X154307976Y-101533452D01*
X154307976Y-100608452D01*
X153867500Y-100608452D01*
X153559166Y-100608452D02*
X152942500Y-101533452D01*
X152942500Y-100608452D02*
X153559166Y-101533452D01*
X152105595Y-101533452D02*
X152634166Y-101533452D01*
X152369880Y-101533452D02*
X152369880Y-100608452D01*
X152457976Y-100740595D01*
X152546071Y-100828690D01*
X152634166Y-100872738D01*
X151709166Y-101181071D02*
X151004404Y-101181071D01*
X150607976Y-101489404D02*
X150475833Y-101533452D01*
X150255595Y-101533452D01*
X150167500Y-101489404D01*
X150123452Y-101445357D01*
X150079404Y-101357261D01*
X150079404Y-101269166D01*
X150123452Y-101181071D01*
X150167500Y-101137023D01*
X150255595Y-101092976D01*
X150431785Y-101048928D01*
X150519880Y-101004880D01*
X150563928Y-100960833D01*
X150607976Y-100872738D01*
X150607976Y-100784642D01*
X150563928Y-100696547D01*
X150519880Y-100652500D01*
X150431785Y-100608452D01*
X150211547Y-100608452D01*
X150079404Y-100652500D01*
X149682976Y-101533452D02*
X149682976Y-100608452D01*
X149374642Y-101269166D01*
X149066309Y-100608452D01*
X149066309Y-101533452D01*
X148669880Y-101269166D02*
X148229404Y-101269166D01*
X148757976Y-101533452D02*
X148449642Y-100608452D01*
X148141309Y-101533452D01*
X147216309Y-100916785D02*
X146996071Y-101533452D01*
X146775833Y-100916785D01*
X145938928Y-101533452D02*
X146467500Y-101533452D01*
X146203214Y-101533452D02*
X146203214Y-100608452D01*
X146291309Y-100740595D01*
X146379404Y-100828690D01*
X146467500Y-100872738D01*
X145542500Y-101445357D02*
X145498452Y-101489404D01*
X145542500Y-101533452D01*
X145586547Y-101489404D01*
X145542500Y-101445357D01*
X145542500Y-101533452D01*
X144925833Y-100608452D02*
X144837738Y-100608452D01*
X144749642Y-100652500D01*
X144705595Y-100696547D01*
X144661547Y-100784642D01*
X144617500Y-100960833D01*
X144617500Y-101181071D01*
X144661547Y-101357261D01*
X144705595Y-101445357D01*
X144749642Y-101489404D01*
X144837738Y-101533452D01*
X144925833Y-101533452D01*
X145013928Y-101489404D01*
X145057976Y-101445357D01*
X145102023Y-101357261D01*
X145146071Y-101181071D01*
X145146071Y-100960833D01*
X145102023Y-100784642D01*
X145057976Y-100696547D01*
X145013928Y-100652500D01*
X144925833Y-100608452D01*
X157413333Y-103070952D02*
X157413333Y-102145952D01*
X157193095Y-102145952D01*
X157060952Y-102190000D01*
X156972857Y-102278095D01*
X156928809Y-102366190D01*
X156884761Y-102542380D01*
X156884761Y-102674523D01*
X156928809Y-102850714D01*
X156972857Y-102938809D01*
X157060952Y-103026904D01*
X157193095Y-103070952D01*
X157413333Y-103070952D01*
X156135952Y-103026904D02*
X156224047Y-103070952D01*
X156400238Y-103070952D01*
X156488333Y-103026904D01*
X156532380Y-102938809D01*
X156532380Y-102586428D01*
X156488333Y-102498333D01*
X156400238Y-102454285D01*
X156224047Y-102454285D01*
X156135952Y-102498333D01*
X156091904Y-102586428D01*
X156091904Y-102674523D01*
X156532380Y-102762619D01*
X155739523Y-103026904D02*
X155651428Y-103070952D01*
X155475238Y-103070952D01*
X155387142Y-103026904D01*
X155343095Y-102938809D01*
X155343095Y-102894761D01*
X155387142Y-102806666D01*
X155475238Y-102762619D01*
X155607380Y-102762619D01*
X155695476Y-102718571D01*
X155739523Y-102630476D01*
X155739523Y-102586428D01*
X155695476Y-102498333D01*
X155607380Y-102454285D01*
X155475238Y-102454285D01*
X155387142Y-102498333D01*
X154946666Y-103070952D02*
X154946666Y-102454285D01*
X154946666Y-102145952D02*
X154990714Y-102190000D01*
X154946666Y-102234047D01*
X154902619Y-102190000D01*
X154946666Y-102145952D01*
X154946666Y-102234047D01*
X154109761Y-102454285D02*
X154109761Y-103203095D01*
X154153809Y-103291190D01*
X154197857Y-103335238D01*
X154285952Y-103379285D01*
X154418095Y-103379285D01*
X154506190Y-103335238D01*
X154109761Y-103026904D02*
X154197857Y-103070952D01*
X154374047Y-103070952D01*
X154462142Y-103026904D01*
X154506190Y-102982857D01*
X154550238Y-102894761D01*
X154550238Y-102630476D01*
X154506190Y-102542380D01*
X154462142Y-102498333D01*
X154374047Y-102454285D01*
X154197857Y-102454285D01*
X154109761Y-102498333D01*
X153669285Y-102454285D02*
X153669285Y-103070952D01*
X153669285Y-102542380D02*
X153625238Y-102498333D01*
X153537142Y-102454285D01*
X153405000Y-102454285D01*
X153316904Y-102498333D01*
X153272857Y-102586428D01*
X153272857Y-103070952D01*
X152480000Y-103026904D02*
X152568095Y-103070952D01*
X152744285Y-103070952D01*
X152832380Y-103026904D01*
X152876428Y-102938809D01*
X152876428Y-102586428D01*
X152832380Y-102498333D01*
X152744285Y-102454285D01*
X152568095Y-102454285D01*
X152480000Y-102498333D01*
X152435952Y-102586428D01*
X152435952Y-102674523D01*
X152876428Y-102762619D01*
X151643095Y-103070952D02*
X151643095Y-102145952D01*
X151643095Y-103026904D02*
X151731190Y-103070952D01*
X151907380Y-103070952D01*
X151995476Y-103026904D01*
X152039523Y-102982857D01*
X152083571Y-102894761D01*
X152083571Y-102630476D01*
X152039523Y-102542380D01*
X151995476Y-102498333D01*
X151907380Y-102454285D01*
X151731190Y-102454285D01*
X151643095Y-102498333D01*
X150497857Y-103070952D02*
X150497857Y-102145952D01*
X150497857Y-102498333D02*
X150409761Y-102454285D01*
X150233571Y-102454285D01*
X150145476Y-102498333D01*
X150101428Y-102542380D01*
X150057380Y-102630476D01*
X150057380Y-102894761D01*
X150101428Y-102982857D01*
X150145476Y-103026904D01*
X150233571Y-103070952D01*
X150409761Y-103070952D01*
X150497857Y-103026904D01*
X149749047Y-102454285D02*
X149528809Y-103070952D01*
X149308571Y-102454285D02*
X149528809Y-103070952D01*
X149616904Y-103291190D01*
X149660952Y-103335238D01*
X149749047Y-103379285D01*
X148251428Y-103070952D02*
X148251428Y-102145952D01*
X147722857Y-103070952D01*
X147722857Y-102145952D01*
X146885952Y-103070952D02*
X146885952Y-102586428D01*
X146930000Y-102498333D01*
X147018095Y-102454285D01*
X147194285Y-102454285D01*
X147282380Y-102498333D01*
X146885952Y-103026904D02*
X146974047Y-103070952D01*
X147194285Y-103070952D01*
X147282380Y-103026904D01*
X147326428Y-102938809D01*
X147326428Y-102850714D01*
X147282380Y-102762619D01*
X147194285Y-102718571D01*
X146974047Y-102718571D01*
X146885952Y-102674523D01*
X146577619Y-102454285D02*
X146225238Y-102454285D01*
X146445476Y-102145952D02*
X146445476Y-102938809D01*
X146401428Y-103026904D01*
X146313333Y-103070952D01*
X146225238Y-103070952D01*
X145916904Y-103070952D02*
X145916904Y-102145952D01*
X145520476Y-103070952D02*
X145520476Y-102586428D01*
X145564523Y-102498333D01*
X145652619Y-102454285D01*
X145784761Y-102454285D01*
X145872857Y-102498333D01*
X145916904Y-102542380D01*
X144683571Y-103070952D02*
X144683571Y-102586428D01*
X144727619Y-102498333D01*
X144815714Y-102454285D01*
X144991904Y-102454285D01*
X145080000Y-102498333D01*
X144683571Y-103026904D02*
X144771666Y-103070952D01*
X144991904Y-103070952D01*
X145080000Y-103026904D01*
X145124047Y-102938809D01*
X145124047Y-102850714D01*
X145080000Y-102762619D01*
X144991904Y-102718571D01*
X144771666Y-102718571D01*
X144683571Y-102674523D01*
X144243095Y-102454285D02*
X144243095Y-103070952D01*
X144243095Y-102542380D02*
X144199047Y-102498333D01*
X144110952Y-102454285D01*
X143978809Y-102454285D01*
X143890714Y-102498333D01*
X143846666Y-102586428D01*
X143846666Y-103070952D01*
X158382380Y-105529285D02*
X159087142Y-105793571D01*
X158382380Y-106057857D01*
X157941904Y-106145952D02*
X157941904Y-105220952D01*
X157545476Y-106145952D02*
X157545476Y-105661428D01*
X157589523Y-105573333D01*
X157677619Y-105529285D01*
X157809761Y-105529285D01*
X157897857Y-105573333D01*
X157941904Y-105617380D01*
X156708571Y-106145952D02*
X156708571Y-105661428D01*
X156752619Y-105573333D01*
X156840714Y-105529285D01*
X157016904Y-105529285D01*
X157105000Y-105573333D01*
X156708571Y-106101904D02*
X156796666Y-106145952D01*
X157016904Y-106145952D01*
X157105000Y-106101904D01*
X157149047Y-106013809D01*
X157149047Y-105925714D01*
X157105000Y-105837619D01*
X157016904Y-105793571D01*
X156796666Y-105793571D01*
X156708571Y-105749523D01*
X156268095Y-106145952D02*
X156268095Y-105529285D01*
X156268095Y-105705476D02*
X156224047Y-105617380D01*
X156180000Y-105573333D01*
X156091904Y-105529285D01*
X156003809Y-105529285D01*
X155299047Y-106145952D02*
X155299047Y-105220952D01*
X155299047Y-106101904D02*
X155387142Y-106145952D01*
X155563333Y-106145952D01*
X155651428Y-106101904D01*
X155695476Y-106057857D01*
X155739523Y-105969761D01*
X155739523Y-105705476D01*
X155695476Y-105617380D01*
X155651428Y-105573333D01*
X155563333Y-105529285D01*
X155387142Y-105529285D01*
X155299047Y-105573333D01*
X154946666Y-105529285D02*
X154770476Y-106145952D01*
X154594285Y-105705476D01*
X154418095Y-106145952D01*
X154241904Y-105529285D01*
X153493095Y-106145952D02*
X153493095Y-105661428D01*
X153537142Y-105573333D01*
X153625238Y-105529285D01*
X153801428Y-105529285D01*
X153889523Y-105573333D01*
X153493095Y-106101904D02*
X153581190Y-106145952D01*
X153801428Y-106145952D01*
X153889523Y-106101904D01*
X153933571Y-106013809D01*
X153933571Y-105925714D01*
X153889523Y-105837619D01*
X153801428Y-105793571D01*
X153581190Y-105793571D01*
X153493095Y-105749523D01*
X153052619Y-106145952D02*
X153052619Y-105529285D01*
X153052619Y-105705476D02*
X153008571Y-105617380D01*
X152964523Y-105573333D01*
X152876428Y-105529285D01*
X152788333Y-105529285D01*
X152127619Y-106101904D02*
X152215714Y-106145952D01*
X152391904Y-106145952D01*
X152480000Y-106101904D01*
X152524047Y-106013809D01*
X152524047Y-105661428D01*
X152480000Y-105573333D01*
X152391904Y-105529285D01*
X152215714Y-105529285D01*
X152127619Y-105573333D01*
X152083571Y-105661428D01*
X152083571Y-105749523D01*
X152524047Y-105837619D01*
X151114523Y-105705476D02*
X151158571Y-105661428D01*
X151246666Y-105617380D01*
X151334761Y-105617380D01*
X151422857Y-105661428D01*
X151466904Y-105705476D01*
X151510952Y-105793571D01*
X151510952Y-105881666D01*
X151466904Y-105969761D01*
X151422857Y-106013809D01*
X151334761Y-106057857D01*
X151246666Y-106057857D01*
X151158571Y-106013809D01*
X151114523Y-105969761D01*
X151114523Y-105617380D02*
X151114523Y-105969761D01*
X151070476Y-106013809D01*
X151026428Y-106013809D01*
X150938333Y-105969761D01*
X150894285Y-105881666D01*
X150894285Y-105661428D01*
X150982380Y-105529285D01*
X151114523Y-105441190D01*
X151290714Y-105397142D01*
X151466904Y-105441190D01*
X151599047Y-105529285D01*
X151687142Y-105661428D01*
X151731190Y-105837619D01*
X151687142Y-106013809D01*
X151599047Y-106145952D01*
X151466904Y-106234047D01*
X151290714Y-106278095D01*
X151114523Y-106234047D01*
X150982380Y-106145952D01*
X150497857Y-105529285D02*
X150497857Y-106145952D01*
X150497857Y-105617380D02*
X150453809Y-105573333D01*
X150365714Y-105529285D01*
X150233571Y-105529285D01*
X150145476Y-105573333D01*
X150101428Y-105661428D01*
X150101428Y-106145952D01*
X149660952Y-106145952D02*
X149660952Y-105529285D01*
X149660952Y-105705476D02*
X149616904Y-105617380D01*
X149572857Y-105573333D01*
X149484761Y-105529285D01*
X149396666Y-105529285D01*
X148956190Y-106145952D02*
X149044285Y-106101904D01*
X149088333Y-106013809D01*
X149088333Y-105220952D01*
X148251428Y-106101904D02*
X148339523Y-106145952D01*
X148515714Y-106145952D01*
X148603809Y-106101904D01*
X148647857Y-106013809D01*
X148647857Y-105661428D01*
X148603809Y-105573333D01*
X148515714Y-105529285D01*
X148339523Y-105529285D01*
X148251428Y-105573333D01*
X148207380Y-105661428D01*
X148207380Y-105749523D01*
X148647857Y-105837619D01*
X147899047Y-105529285D02*
X147722857Y-106145952D01*
X147546666Y-105705476D01*
X147370476Y-106145952D01*
X147194285Y-105529285D01*
X146841904Y-106145952D02*
X146841904Y-105529285D01*
X146841904Y-105220952D02*
X146885952Y-105265000D01*
X146841904Y-105309047D01*
X146797857Y-105265000D01*
X146841904Y-105220952D01*
X146841904Y-105309047D01*
X146445476Y-106101904D02*
X146357380Y-106145952D01*
X146181190Y-106145952D01*
X146093095Y-106101904D01*
X146049047Y-106013809D01*
X146049047Y-105969761D01*
X146093095Y-105881666D01*
X146181190Y-105837619D01*
X146313333Y-105837619D01*
X146401428Y-105793571D01*
X146445476Y-105705476D01*
X146445476Y-105661428D01*
X146401428Y-105573333D01*
X146313333Y-105529285D01*
X146181190Y-105529285D01*
X146093095Y-105573333D01*
X145652619Y-106057857D02*
X145608571Y-106101904D01*
X145652619Y-106145952D01*
X145696666Y-106101904D01*
X145652619Y-106057857D01*
X145652619Y-106145952D01*
X144815714Y-106145952D02*
X144815714Y-105220952D01*
X144815714Y-106101904D02*
X144903809Y-106145952D01*
X145080000Y-106145952D01*
X145168095Y-106101904D01*
X145212142Y-106057857D01*
X145256190Y-105969761D01*
X145256190Y-105705476D01*
X145212142Y-105617380D01*
X145168095Y-105573333D01*
X145080000Y-105529285D01*
X144903809Y-105529285D01*
X144815714Y-105573333D01*
X144022857Y-106101904D02*
X144110952Y-106145952D01*
X144287142Y-106145952D01*
X144375238Y-106101904D01*
X144419285Y-106013809D01*
X144419285Y-105661428D01*
X144375238Y-105573333D01*
X144287142Y-105529285D01*
X144110952Y-105529285D01*
X144022857Y-105573333D01*
X143978809Y-105661428D01*
X143978809Y-105749523D01*
X144419285Y-105837619D01*
X143670476Y-105529285D02*
X143450238Y-106145952D01*
X143230000Y-105529285D01*
X142877619Y-105529285D02*
X142172857Y-105793571D01*
X142877619Y-106057857D01*
X155100833Y-107595357D02*
X155144880Y-107639404D01*
X155277023Y-107683452D01*
X155365119Y-107683452D01*
X155497261Y-107639404D01*
X155585357Y-107551309D01*
X155629404Y-107463214D01*
X155673452Y-107287023D01*
X155673452Y-107154880D01*
X155629404Y-106978690D01*
X155585357Y-106890595D01*
X155497261Y-106802500D01*
X155365119Y-106758452D01*
X155277023Y-106758452D01*
X155144880Y-106802500D01*
X155100833Y-106846547D01*
X154175833Y-107595357D02*
X154219880Y-107639404D01*
X154352023Y-107683452D01*
X154440119Y-107683452D01*
X154572261Y-107639404D01*
X154660357Y-107551309D01*
X154704404Y-107463214D01*
X154748452Y-107287023D01*
X154748452Y-107154880D01*
X154704404Y-106978690D01*
X154660357Y-106890595D01*
X154572261Y-106802500D01*
X154440119Y-106758452D01*
X154352023Y-106758452D01*
X154219880Y-106802500D01*
X154175833Y-106846547D01*
X153779404Y-107331071D02*
X153074642Y-107331071D01*
X152325833Y-107198928D02*
X152193690Y-107242976D01*
X152149642Y-107287023D01*
X152105595Y-107375119D01*
X152105595Y-107507261D01*
X152149642Y-107595357D01*
X152193690Y-107639404D01*
X152281785Y-107683452D01*
X152634166Y-107683452D01*
X152634166Y-106758452D01*
X152325833Y-106758452D01*
X152237738Y-106802500D01*
X152193690Y-106846547D01*
X152149642Y-106934642D01*
X152149642Y-107022738D01*
X152193690Y-107110833D01*
X152237738Y-107154880D01*
X152325833Y-107198928D01*
X152634166Y-107198928D01*
X151532976Y-107242976D02*
X151532976Y-107683452D01*
X151841309Y-106758452D02*
X151532976Y-107242976D01*
X151224642Y-106758452D01*
X150916309Y-107331071D02*
X150211547Y-107331071D01*
X149815119Y-107639404D02*
X149682976Y-107683452D01*
X149462738Y-107683452D01*
X149374642Y-107639404D01*
X149330595Y-107595357D01*
X149286547Y-107507261D01*
X149286547Y-107419166D01*
X149330595Y-107331071D01*
X149374642Y-107287023D01*
X149462738Y-107242976D01*
X149638928Y-107198928D01*
X149727023Y-107154880D01*
X149771071Y-107110833D01*
X149815119Y-107022738D01*
X149815119Y-106934642D01*
X149771071Y-106846547D01*
X149727023Y-106802500D01*
X149638928Y-106758452D01*
X149418690Y-106758452D01*
X149286547Y-106802500D01*
X148934166Y-107419166D02*
X148493690Y-107419166D01*
X149022261Y-107683452D02*
X148713928Y-106758452D01*
X148405595Y-107683452D01*
X146996071Y-107066785D02*
X146996071Y-107683452D01*
X147216309Y-106714404D02*
X147436547Y-107375119D01*
X146863928Y-107375119D01*
X146511547Y-107595357D02*
X146467500Y-107639404D01*
X146511547Y-107683452D01*
X146555595Y-107639404D01*
X146511547Y-107595357D01*
X146511547Y-107683452D01*
X145894880Y-106758452D02*
X145806785Y-106758452D01*
X145718690Y-106802500D01*
X145674642Y-106846547D01*
X145630595Y-106934642D01*
X145586547Y-107110833D01*
X145586547Y-107331071D01*
X145630595Y-107507261D01*
X145674642Y-107595357D01*
X145718690Y-107639404D01*
X145806785Y-107683452D01*
X145894880Y-107683452D01*
X145982976Y-107639404D01*
X146027023Y-107595357D01*
X146071071Y-107507261D01*
X146115119Y-107331071D01*
X146115119Y-107110833D01*
X146071071Y-106934642D01*
X146027023Y-106846547D01*
X145982976Y-106802500D01*
X145894880Y-106758452D01*
%LPC*%
D11*
X150350000Y-104300000D03*
D12*
X147810000Y-104300000D03*
X145270000Y-104300000D03*
X142730000Y-104300000D03*
D13*
X155510000Y-76250000D03*
D14*
X158050000Y-78790000D03*
X158050000Y-73710000D03*
X152970000Y-73710000D03*
X152970000Y-78790000D03*
D13*
X155510000Y-95460000D03*
D14*
X158050000Y-98000000D03*
X158050000Y-92920000D03*
X152970000Y-92920000D03*
X152970000Y-98000000D03*
D13*
X145510000Y-76250000D03*
D14*
X148050000Y-78790000D03*
X148050000Y-73710000D03*
X142970000Y-73710000D03*
X142970000Y-78790000D03*
D13*
X155510000Y-86250000D03*
D14*
X158050000Y-88790000D03*
X158050000Y-83710000D03*
X152970000Y-83710000D03*
X152970000Y-88790000D03*
D13*
X145510000Y-86250000D03*
D14*
X148050000Y-88790000D03*
X148050000Y-83710000D03*
X142970000Y-83710000D03*
X142970000Y-88790000D03*
D13*
X145510000Y-95460000D03*
D14*
X148050000Y-98000000D03*
X148050000Y-92920000D03*
X142970000Y-92920000D03*
X142970000Y-98000000D03*
D15*
X155130000Y-112990000D03*
X154130000Y-112990000D03*
X160130000Y-112990000D03*
X159130000Y-112990000D03*
X158130000Y-112990000D03*
X157130000Y-112990000D03*
X156130000Y-112990000D03*
X151130000Y-112990000D03*
X150130000Y-112990000D03*
X149130000Y-112990000D03*
X148130000Y-112990000D03*
X147130000Y-112990000D03*
X146130000Y-112990000D03*
X145130000Y-112990000D03*
X144130000Y-112990000D03*
X143130000Y-112990000D03*
X142130000Y-112990000D03*
D16*
X141130000Y-112440000D03*
M02*
