%FSLAX45Y45*%
G04 Gerber Fmt 4.5, Leading zero omitted, Abs format (unit mm)*
G04 Created by KiCad (PCBNEW 5.1.10) date 2021-09-17 19:19:27*
%MOMM*%
%LPD*%
G01*
G04 APERTURE LIST*
%TA.AperFunction,Profile*%
%ADD10C,0.050000*%
%TD*%
%ADD11C,0.200000*%
%ADD12C,0.300000*%
G04 APERTURE END LIST*
D10*
X16078000Y-7045000D02*
X16078000Y-7061000D01*
X14089000Y-7045000D02*
X16078000Y-7045000D01*
X14048000Y-7045000D02*
X14089000Y-7045000D01*
X14048000Y-7061000D02*
X14048000Y-7045000D01*
X16078000Y-7062000D02*
X16078000Y-7061000D01*
X16078000Y-10804000D02*
X16078000Y-7062000D01*
X14048000Y-10783000D02*
X14048000Y-7061000D01*
X14048000Y-10804000D02*
X14048000Y-10783000D01*
D11*
X14145000Y-10090000D02*
X14185000Y-10130000D01*
X14185000Y-10090000D02*
X14145000Y-10130000D01*
X14393000Y-10983000D02*
X14433000Y-11023000D01*
X14433000Y-10983000D02*
X14393000Y-11023000D01*
X14694000Y-10984000D02*
X14734000Y-11024000D01*
X14734000Y-10984000D02*
X14694000Y-11024000D01*
X14893000Y-10983000D02*
X14933000Y-11023000D01*
X14933000Y-10983000D02*
X14893000Y-11023000D01*
X15031000Y-7129000D02*
X15071000Y-7169000D01*
X15071000Y-7129000D02*
X15031000Y-7169000D01*
X15458000Y-10859000D02*
X15498000Y-10899000D01*
X15498000Y-10859000D02*
X15458000Y-10899000D01*
X15735000Y-10895000D02*
X15775000Y-10935000D01*
X15775000Y-10895000D02*
X15735000Y-10935000D01*
X15942000Y-10901000D02*
X15982000Y-10941000D01*
X15982000Y-10901000D02*
X15942000Y-10941000D01*
X14323000Y-10430000D02*
G75*
G03*
X14323000Y-10430000I-50000J0D01*
G01*
X14577000Y-10430000D02*
G75*
G03*
X14577000Y-10430000I-50000J0D01*
G01*
X14831000Y-10430000D02*
G75*
G03*
X14831000Y-10430000I-50000J0D01*
G01*
X15085000Y-10430000D02*
G75*
G03*
X15085000Y-10430000I-50000J0D01*
G01*
X14551000Y-7550000D02*
X14551000Y-7700000D01*
X14476000Y-7625000D02*
X14626000Y-7625000D01*
X14551000Y-8550000D02*
X14551000Y-8700000D01*
X14476000Y-8625000D02*
X14626000Y-8625000D01*
X14551000Y-9471000D02*
X14551000Y-9621000D01*
X14476000Y-9546000D02*
X14626000Y-9546000D01*
X15551000Y-7550000D02*
X15551000Y-7700000D01*
X15476000Y-7625000D02*
X15626000Y-7625000D01*
X15551000Y-8550000D02*
X15551000Y-8700000D01*
X15476000Y-8625000D02*
X15626000Y-8625000D01*
X15551000Y-9471000D02*
X15551000Y-9621000D01*
X15476000Y-9546000D02*
X15626000Y-9546000D01*
X14357105Y-7431105D02*
X14357105Y-7310895D01*
X14236895Y-7310895D01*
X14236895Y-7431105D01*
X14357105Y-7431105D01*
X14357105Y-7939105D02*
X14357105Y-7818895D01*
X14236895Y-7818895D01*
X14236895Y-7939105D01*
X14357105Y-7939105D01*
X14357105Y-8431105D02*
X14357105Y-8310895D01*
X14236895Y-8310895D01*
X14236895Y-8431105D01*
X14357105Y-8431105D01*
X14357105Y-8939105D02*
X14357105Y-8818895D01*
X14236895Y-8818895D01*
X14236895Y-8939105D01*
X14357105Y-8939105D01*
X14357105Y-9352105D02*
X14357105Y-9231895D01*
X14236895Y-9231895D01*
X14236895Y-9352105D01*
X14357105Y-9352105D01*
X14357105Y-9860105D02*
X14357105Y-9739895D01*
X14236895Y-9739895D01*
X14236895Y-9860105D01*
X14357105Y-9860105D01*
X14865105Y-7431105D02*
X14865105Y-7310895D01*
X14744895Y-7310895D01*
X14744895Y-7431105D01*
X14865105Y-7431105D01*
X14865105Y-7939105D02*
X14865105Y-7818895D01*
X14744895Y-7818895D01*
X14744895Y-7939105D01*
X14865105Y-7939105D01*
X14865105Y-8431105D02*
X14865105Y-8310895D01*
X14744895Y-8310895D01*
X14744895Y-8431105D01*
X14865105Y-8431105D01*
X14865105Y-8939105D02*
X14865105Y-8818895D01*
X14744895Y-8818895D01*
X14744895Y-8939105D01*
X14865105Y-8939105D01*
X14865105Y-9352105D02*
X14865105Y-9231895D01*
X14744895Y-9231895D01*
X14744895Y-9352105D01*
X14865105Y-9352105D01*
X14865105Y-9860105D02*
X14865105Y-9739895D01*
X14744895Y-9739895D01*
X14744895Y-9860105D01*
X14865105Y-9860105D01*
X15357105Y-7431105D02*
X15357105Y-7310895D01*
X15236895Y-7310895D01*
X15236895Y-7431105D01*
X15357105Y-7431105D01*
X15357105Y-7939105D02*
X15357105Y-7818895D01*
X15236895Y-7818895D01*
X15236895Y-7939105D01*
X15357105Y-7939105D01*
X15357105Y-8431105D02*
X15357105Y-8310895D01*
X15236895Y-8310895D01*
X15236895Y-8431105D01*
X15357105Y-8431105D01*
X15357105Y-8939105D02*
X15357105Y-8818895D01*
X15236895Y-8818895D01*
X15236895Y-8939105D01*
X15357105Y-8939105D01*
X15357105Y-9352105D02*
X15357105Y-9231895D01*
X15236895Y-9231895D01*
X15236895Y-9352105D01*
X15357105Y-9352105D01*
X15357105Y-9860105D02*
X15357105Y-9739895D01*
X15236895Y-9739895D01*
X15236895Y-9860105D01*
X15357105Y-9860105D01*
X15865105Y-7431105D02*
X15865105Y-7310895D01*
X15744895Y-7310895D01*
X15744895Y-7431105D01*
X15865105Y-7431105D01*
X15865105Y-7939105D02*
X15865105Y-7818895D01*
X15744895Y-7818895D01*
X15744895Y-7939105D01*
X15865105Y-7939105D01*
X15865105Y-8431105D02*
X15865105Y-8310895D01*
X15744895Y-8310895D01*
X15744895Y-8431105D01*
X15865105Y-8431105D01*
X15865105Y-8939105D02*
X15865105Y-8818895D01*
X15744895Y-8818895D01*
X15744895Y-8939105D01*
X15865105Y-8939105D01*
X15865105Y-9352105D02*
X15865105Y-9231895D01*
X15744895Y-9231895D01*
X15744895Y-9352105D01*
X15865105Y-9352105D01*
X15865105Y-9860105D02*
X15865105Y-9739895D01*
X15744895Y-9739895D01*
X15744895Y-9860105D01*
X15865105Y-9860105D01*
D12*
X14329428Y-12114714D02*
X14329428Y-11814714D01*
X14400857Y-11814714D01*
X14443714Y-11829000D01*
X14472286Y-11857571D01*
X14486571Y-11886143D01*
X14500857Y-11943286D01*
X14500857Y-11986143D01*
X14486571Y-12043286D01*
X14472286Y-12071857D01*
X14443714Y-12100429D01*
X14400857Y-12114714D01*
X14329428Y-12114714D01*
X14629428Y-12114714D02*
X14629428Y-11914714D01*
X14629428Y-11971857D02*
X14643714Y-11943286D01*
X14658000Y-11929000D01*
X14686571Y-11914714D01*
X14715143Y-11914714D01*
X14815143Y-12114714D02*
X14815143Y-11914714D01*
X14815143Y-11814714D02*
X14800857Y-11829000D01*
X14815143Y-11843286D01*
X14829428Y-11829000D01*
X14815143Y-11814714D01*
X14815143Y-11843286D01*
X15000857Y-12114714D02*
X14972286Y-12100429D01*
X14958000Y-12071857D01*
X14958000Y-11814714D01*
X15158000Y-12114714D02*
X15129428Y-12100429D01*
X15115143Y-12071857D01*
X15115143Y-11814714D01*
X15500857Y-12114714D02*
X15500857Y-11814714D01*
X15600857Y-12029000D01*
X15700857Y-11814714D01*
X15700857Y-12114714D01*
X15972286Y-12114714D02*
X15972286Y-11957571D01*
X15958000Y-11929000D01*
X15929428Y-11914714D01*
X15872286Y-11914714D01*
X15843714Y-11929000D01*
X15972286Y-12100429D02*
X15943714Y-12114714D01*
X15872286Y-12114714D01*
X15843714Y-12100429D01*
X15829428Y-12071857D01*
X15829428Y-12043286D01*
X15843714Y-12014714D01*
X15872286Y-12000429D01*
X15943714Y-12000429D01*
X15972286Y-11986143D01*
X16115143Y-11914714D02*
X16115143Y-12214714D01*
X16115143Y-11929000D02*
X16143714Y-11914714D01*
X16200857Y-11914714D01*
X16229428Y-11929000D01*
X16243714Y-11943286D01*
X16258000Y-11971857D01*
X16258000Y-12057571D01*
X16243714Y-12086143D01*
X16229428Y-12100429D01*
X16200857Y-12114714D01*
X16143714Y-12114714D01*
X16115143Y-12100429D01*
X16386571Y-12086143D02*
X16400857Y-12100429D01*
X16386571Y-12114714D01*
X16372286Y-12100429D01*
X16386571Y-12086143D01*
X16386571Y-12114714D01*
X16386571Y-11929000D02*
X16400857Y-11943286D01*
X16386571Y-11957571D01*
X16372286Y-11943286D01*
X16386571Y-11929000D01*
X16386571Y-11957571D01*
X14003000Y-12589000D02*
X14043000Y-12629000D01*
X14043000Y-12589000D02*
X14003000Y-12629000D01*
X14386571Y-12444714D02*
X14415143Y-12444714D01*
X14443714Y-12459000D01*
X14458000Y-12473286D01*
X14472286Y-12501857D01*
X14486571Y-12559000D01*
X14486571Y-12630429D01*
X14472286Y-12687571D01*
X14458000Y-12716143D01*
X14443714Y-12730429D01*
X14415143Y-12744714D01*
X14386571Y-12744714D01*
X14358000Y-12730429D01*
X14343714Y-12716143D01*
X14329428Y-12687571D01*
X14315143Y-12630429D01*
X14315143Y-12559000D01*
X14329428Y-12501857D01*
X14343714Y-12473286D01*
X14358000Y-12459000D01*
X14386571Y-12444714D01*
X14615143Y-12716143D02*
X14629428Y-12730429D01*
X14615143Y-12744714D01*
X14600857Y-12730429D01*
X14615143Y-12716143D01*
X14615143Y-12744714D01*
X14886571Y-12544714D02*
X14886571Y-12744714D01*
X14815143Y-12430429D02*
X14743714Y-12644714D01*
X14929428Y-12644714D01*
X15100857Y-12444714D02*
X15129428Y-12444714D01*
X15158000Y-12459000D01*
X15172286Y-12473286D01*
X15186571Y-12501857D01*
X15200857Y-12559000D01*
X15200857Y-12630429D01*
X15186571Y-12687571D01*
X15172286Y-12716143D01*
X15158000Y-12730429D01*
X15129428Y-12744714D01*
X15100857Y-12744714D01*
X15072286Y-12730429D01*
X15058000Y-12716143D01*
X15043714Y-12687571D01*
X15029428Y-12630429D01*
X15029428Y-12559000D01*
X15043714Y-12501857D01*
X15058000Y-12473286D01*
X15072286Y-12459000D01*
X15100857Y-12444714D01*
X15386571Y-12444714D02*
X15415143Y-12444714D01*
X15443714Y-12459000D01*
X15458000Y-12473286D01*
X15472286Y-12501857D01*
X15486571Y-12559000D01*
X15486571Y-12630429D01*
X15472286Y-12687571D01*
X15458000Y-12716143D01*
X15443714Y-12730429D01*
X15415143Y-12744714D01*
X15386571Y-12744714D01*
X15358000Y-12730429D01*
X15343714Y-12716143D01*
X15329428Y-12687571D01*
X15315143Y-12630429D01*
X15315143Y-12559000D01*
X15329428Y-12501857D01*
X15343714Y-12473286D01*
X15358000Y-12459000D01*
X15386571Y-12444714D01*
X15615143Y-12744714D02*
X15615143Y-12544714D01*
X15615143Y-12573286D02*
X15629428Y-12559000D01*
X15658000Y-12544714D01*
X15700857Y-12544714D01*
X15729428Y-12559000D01*
X15743714Y-12587571D01*
X15743714Y-12744714D01*
X15743714Y-12587571D02*
X15758000Y-12559000D01*
X15786571Y-12544714D01*
X15829428Y-12544714D01*
X15858000Y-12559000D01*
X15872286Y-12587571D01*
X15872286Y-12744714D01*
X16015143Y-12744714D02*
X16015143Y-12544714D01*
X16015143Y-12573286D02*
X16029428Y-12559000D01*
X16058000Y-12544714D01*
X16100857Y-12544714D01*
X16129428Y-12559000D01*
X16143714Y-12587571D01*
X16143714Y-12744714D01*
X16143714Y-12587571D02*
X16158000Y-12559000D01*
X16186571Y-12544714D01*
X16229428Y-12544714D01*
X16258000Y-12559000D01*
X16272286Y-12587571D01*
X16272286Y-12744714D01*
X16858000Y-12430429D02*
X16600857Y-12816143D01*
X17243714Y-12444714D02*
X17272286Y-12444714D01*
X17300857Y-12459000D01*
X17315143Y-12473286D01*
X17329428Y-12501857D01*
X17343714Y-12559000D01*
X17343714Y-12630429D01*
X17329428Y-12687571D01*
X17315143Y-12716143D01*
X17300857Y-12730429D01*
X17272286Y-12744714D01*
X17243714Y-12744714D01*
X17215143Y-12730429D01*
X17200857Y-12716143D01*
X17186571Y-12687571D01*
X17172286Y-12630429D01*
X17172286Y-12559000D01*
X17186571Y-12501857D01*
X17200857Y-12473286D01*
X17215143Y-12459000D01*
X17243714Y-12444714D01*
X17472286Y-12716143D02*
X17486571Y-12730429D01*
X17472286Y-12744714D01*
X17458000Y-12730429D01*
X17472286Y-12716143D01*
X17472286Y-12744714D01*
X17672286Y-12444714D02*
X17700857Y-12444714D01*
X17729428Y-12459000D01*
X17743714Y-12473286D01*
X17758000Y-12501857D01*
X17772286Y-12559000D01*
X17772286Y-12630429D01*
X17758000Y-12687571D01*
X17743714Y-12716143D01*
X17729428Y-12730429D01*
X17700857Y-12744714D01*
X17672286Y-12744714D01*
X17643714Y-12730429D01*
X17629428Y-12716143D01*
X17615143Y-12687571D01*
X17600857Y-12630429D01*
X17600857Y-12559000D01*
X17615143Y-12501857D01*
X17629428Y-12473286D01*
X17643714Y-12459000D01*
X17672286Y-12444714D01*
X18058000Y-12744714D02*
X17886571Y-12744714D01*
X17972286Y-12744714D02*
X17972286Y-12444714D01*
X17943714Y-12487571D01*
X17915143Y-12516143D01*
X17886571Y-12530429D01*
X18329428Y-12444714D02*
X18186571Y-12444714D01*
X18172286Y-12587571D01*
X18186571Y-12573286D01*
X18215143Y-12559000D01*
X18286571Y-12559000D01*
X18315143Y-12573286D01*
X18329428Y-12587571D01*
X18343714Y-12616143D01*
X18343714Y-12687571D01*
X18329428Y-12716143D01*
X18315143Y-12730429D01*
X18286571Y-12744714D01*
X18215143Y-12744714D01*
X18186571Y-12730429D01*
X18172286Y-12716143D01*
X18443714Y-12444714D02*
X18643714Y-12444714D01*
X18515143Y-12744714D01*
X18743714Y-12444714D02*
X18743714Y-12501857D01*
X18858000Y-12444714D02*
X18858000Y-12501857D01*
X19300857Y-12859000D02*
X19286571Y-12844714D01*
X19258000Y-12801857D01*
X19243714Y-12773286D01*
X19229428Y-12730429D01*
X19215143Y-12659000D01*
X19215143Y-12601857D01*
X19229428Y-12530429D01*
X19243714Y-12487571D01*
X19258000Y-12459000D01*
X19286571Y-12416143D01*
X19300857Y-12401857D01*
X19458000Y-12573286D02*
X19429428Y-12559000D01*
X19415143Y-12544714D01*
X19400857Y-12516143D01*
X19400857Y-12501857D01*
X19415143Y-12473286D01*
X19429428Y-12459000D01*
X19458000Y-12444714D01*
X19515143Y-12444714D01*
X19543714Y-12459000D01*
X19558000Y-12473286D01*
X19572286Y-12501857D01*
X19572286Y-12516143D01*
X19558000Y-12544714D01*
X19543714Y-12559000D01*
X19515143Y-12573286D01*
X19458000Y-12573286D01*
X19429428Y-12587571D01*
X19415143Y-12601857D01*
X19400857Y-12630429D01*
X19400857Y-12687571D01*
X19415143Y-12716143D01*
X19429428Y-12730429D01*
X19458000Y-12744714D01*
X19515143Y-12744714D01*
X19543714Y-12730429D01*
X19558000Y-12716143D01*
X19572286Y-12687571D01*
X19572286Y-12630429D01*
X19558000Y-12601857D01*
X19543714Y-12587571D01*
X19515143Y-12573286D01*
X19929428Y-12744714D02*
X19929428Y-12444714D01*
X20058000Y-12744714D02*
X20058000Y-12587571D01*
X20043714Y-12559000D01*
X20015143Y-12544714D01*
X19972286Y-12544714D01*
X19943714Y-12559000D01*
X19929428Y-12573286D01*
X20243714Y-12744714D02*
X20215143Y-12730429D01*
X20200857Y-12716143D01*
X20186571Y-12687571D01*
X20186571Y-12601857D01*
X20200857Y-12573286D01*
X20215143Y-12559000D01*
X20243714Y-12544714D01*
X20286571Y-12544714D01*
X20315143Y-12559000D01*
X20329428Y-12573286D01*
X20343714Y-12601857D01*
X20343714Y-12687571D01*
X20329428Y-12716143D01*
X20315143Y-12730429D01*
X20286571Y-12744714D01*
X20243714Y-12744714D01*
X20515143Y-12744714D02*
X20486571Y-12730429D01*
X20472286Y-12701857D01*
X20472286Y-12444714D01*
X20743714Y-12730429D02*
X20715143Y-12744714D01*
X20658000Y-12744714D01*
X20629428Y-12730429D01*
X20615143Y-12701857D01*
X20615143Y-12587571D01*
X20629428Y-12559000D01*
X20658000Y-12544714D01*
X20715143Y-12544714D01*
X20743714Y-12559000D01*
X20758000Y-12587571D01*
X20758000Y-12616143D01*
X20615143Y-12644714D01*
X20872286Y-12730429D02*
X20900857Y-12744714D01*
X20958000Y-12744714D01*
X20986571Y-12730429D01*
X21000857Y-12701857D01*
X21000857Y-12687571D01*
X20986571Y-12659000D01*
X20958000Y-12644714D01*
X20915143Y-12644714D01*
X20886571Y-12630429D01*
X20872286Y-12601857D01*
X20872286Y-12587571D01*
X20886571Y-12559000D01*
X20915143Y-12544714D01*
X20958000Y-12544714D01*
X20986571Y-12559000D01*
X21100857Y-12859000D02*
X21115143Y-12844714D01*
X21143714Y-12801857D01*
X21158000Y-12773286D01*
X21172286Y-12730429D01*
X21186571Y-12659000D01*
X21186571Y-12601857D01*
X21172286Y-12530429D01*
X21158000Y-12487571D01*
X21143714Y-12459000D01*
X21115143Y-12416143D01*
X21100857Y-12401857D01*
X14043000Y-13005000D02*
G75*
G03*
X14043000Y-13005000I-50000J0D01*
G01*
X14486571Y-13140714D02*
X14315143Y-13140714D01*
X14400857Y-13140714D02*
X14400857Y-12840714D01*
X14372286Y-12883571D01*
X14343714Y-12912143D01*
X14315143Y-12926429D01*
X14615143Y-13112143D02*
X14629428Y-13126429D01*
X14615143Y-13140714D01*
X14600857Y-13126429D01*
X14615143Y-13112143D01*
X14615143Y-13140714D01*
X14815143Y-12840714D02*
X14843714Y-12840714D01*
X14872286Y-12855000D01*
X14886571Y-12869286D01*
X14900857Y-12897857D01*
X14915143Y-12955000D01*
X14915143Y-13026429D01*
X14900857Y-13083571D01*
X14886571Y-13112143D01*
X14872286Y-13126429D01*
X14843714Y-13140714D01*
X14815143Y-13140714D01*
X14786571Y-13126429D01*
X14772286Y-13112143D01*
X14758000Y-13083571D01*
X14743714Y-13026429D01*
X14743714Y-12955000D01*
X14758000Y-12897857D01*
X14772286Y-12869286D01*
X14786571Y-12855000D01*
X14815143Y-12840714D01*
X15100857Y-12840714D02*
X15129428Y-12840714D01*
X15158000Y-12855000D01*
X15172286Y-12869286D01*
X15186571Y-12897857D01*
X15200857Y-12955000D01*
X15200857Y-13026429D01*
X15186571Y-13083571D01*
X15172286Y-13112143D01*
X15158000Y-13126429D01*
X15129428Y-13140714D01*
X15100857Y-13140714D01*
X15072286Y-13126429D01*
X15058000Y-13112143D01*
X15043714Y-13083571D01*
X15029428Y-13026429D01*
X15029428Y-12955000D01*
X15043714Y-12897857D01*
X15058000Y-12869286D01*
X15072286Y-12855000D01*
X15100857Y-12840714D01*
X15386571Y-12840714D02*
X15415143Y-12840714D01*
X15443714Y-12855000D01*
X15458000Y-12869286D01*
X15472286Y-12897857D01*
X15486571Y-12955000D01*
X15486571Y-13026429D01*
X15472286Y-13083571D01*
X15458000Y-13112143D01*
X15443714Y-13126429D01*
X15415143Y-13140714D01*
X15386571Y-13140714D01*
X15358000Y-13126429D01*
X15343714Y-13112143D01*
X15329428Y-13083571D01*
X15315143Y-13026429D01*
X15315143Y-12955000D01*
X15329428Y-12897857D01*
X15343714Y-12869286D01*
X15358000Y-12855000D01*
X15386571Y-12840714D01*
X15615143Y-13140714D02*
X15615143Y-12940714D01*
X15615143Y-12969286D02*
X15629428Y-12955000D01*
X15658000Y-12940714D01*
X15700857Y-12940714D01*
X15729428Y-12955000D01*
X15743714Y-12983571D01*
X15743714Y-13140714D01*
X15743714Y-12983571D02*
X15758000Y-12955000D01*
X15786571Y-12940714D01*
X15829428Y-12940714D01*
X15858000Y-12955000D01*
X15872286Y-12983571D01*
X15872286Y-13140714D01*
X16015143Y-13140714D02*
X16015143Y-12940714D01*
X16015143Y-12969286D02*
X16029428Y-12955000D01*
X16058000Y-12940714D01*
X16100857Y-12940714D01*
X16129428Y-12955000D01*
X16143714Y-12983571D01*
X16143714Y-13140714D01*
X16143714Y-12983571D02*
X16158000Y-12955000D01*
X16186571Y-12940714D01*
X16229428Y-12940714D01*
X16258000Y-12955000D01*
X16272286Y-12983571D01*
X16272286Y-13140714D01*
X16858000Y-12826429D02*
X16600857Y-13212143D01*
X17243714Y-12840714D02*
X17272286Y-12840714D01*
X17300857Y-12855000D01*
X17315143Y-12869286D01*
X17329428Y-12897857D01*
X17343714Y-12955000D01*
X17343714Y-13026429D01*
X17329428Y-13083571D01*
X17315143Y-13112143D01*
X17300857Y-13126429D01*
X17272286Y-13140714D01*
X17243714Y-13140714D01*
X17215143Y-13126429D01*
X17200857Y-13112143D01*
X17186571Y-13083571D01*
X17172286Y-13026429D01*
X17172286Y-12955000D01*
X17186571Y-12897857D01*
X17200857Y-12869286D01*
X17215143Y-12855000D01*
X17243714Y-12840714D01*
X17472286Y-13112143D02*
X17486571Y-13126429D01*
X17472286Y-13140714D01*
X17458000Y-13126429D01*
X17472286Y-13112143D01*
X17472286Y-13140714D01*
X17672286Y-12840714D02*
X17700857Y-12840714D01*
X17729428Y-12855000D01*
X17743714Y-12869286D01*
X17758000Y-12897857D01*
X17772286Y-12955000D01*
X17772286Y-13026429D01*
X17758000Y-13083571D01*
X17743714Y-13112143D01*
X17729428Y-13126429D01*
X17700857Y-13140714D01*
X17672286Y-13140714D01*
X17643714Y-13126429D01*
X17629428Y-13112143D01*
X17615143Y-13083571D01*
X17600857Y-13026429D01*
X17600857Y-12955000D01*
X17615143Y-12897857D01*
X17629428Y-12869286D01*
X17643714Y-12855000D01*
X17672286Y-12840714D01*
X17872286Y-12840714D02*
X18058000Y-12840714D01*
X17958000Y-12955000D01*
X18000857Y-12955000D01*
X18029428Y-12969286D01*
X18043714Y-12983571D01*
X18058000Y-13012143D01*
X18058000Y-13083571D01*
X18043714Y-13112143D01*
X18029428Y-13126429D01*
X18000857Y-13140714D01*
X17915143Y-13140714D01*
X17886571Y-13126429D01*
X17872286Y-13112143D01*
X18200857Y-13140714D02*
X18258000Y-13140714D01*
X18286571Y-13126429D01*
X18300857Y-13112143D01*
X18329428Y-13069286D01*
X18343714Y-13012143D01*
X18343714Y-12897857D01*
X18329428Y-12869286D01*
X18315143Y-12855000D01*
X18286571Y-12840714D01*
X18229428Y-12840714D01*
X18200857Y-12855000D01*
X18186571Y-12869286D01*
X18172286Y-12897857D01*
X18172286Y-12969286D01*
X18186571Y-12997857D01*
X18200857Y-13012143D01*
X18229428Y-13026429D01*
X18286571Y-13026429D01*
X18315143Y-13012143D01*
X18329428Y-12997857D01*
X18343714Y-12969286D01*
X18600857Y-12940714D02*
X18600857Y-13140714D01*
X18529428Y-12826429D02*
X18458000Y-13040714D01*
X18643714Y-13040714D01*
X18743714Y-12840714D02*
X18743714Y-12897857D01*
X18858000Y-12840714D02*
X18858000Y-12897857D01*
X19300857Y-13255000D02*
X19286571Y-13240714D01*
X19258000Y-13197857D01*
X19243714Y-13169286D01*
X19229428Y-13126429D01*
X19215143Y-13055000D01*
X19215143Y-12997857D01*
X19229428Y-12926429D01*
X19243714Y-12883571D01*
X19258000Y-12855000D01*
X19286571Y-12812143D01*
X19300857Y-12797857D01*
X19543714Y-12940714D02*
X19543714Y-13140714D01*
X19472286Y-12826429D02*
X19400857Y-13040714D01*
X19586571Y-13040714D01*
X19929428Y-13140714D02*
X19929428Y-12840714D01*
X20058000Y-13140714D02*
X20058000Y-12983571D01*
X20043714Y-12955000D01*
X20015143Y-12940714D01*
X19972286Y-12940714D01*
X19943714Y-12955000D01*
X19929428Y-12969286D01*
X20243714Y-13140714D02*
X20215143Y-13126429D01*
X20200857Y-13112143D01*
X20186571Y-13083571D01*
X20186571Y-12997857D01*
X20200857Y-12969286D01*
X20215143Y-12955000D01*
X20243714Y-12940714D01*
X20286571Y-12940714D01*
X20315143Y-12955000D01*
X20329428Y-12969286D01*
X20343714Y-12997857D01*
X20343714Y-13083571D01*
X20329428Y-13112143D01*
X20315143Y-13126429D01*
X20286571Y-13140714D01*
X20243714Y-13140714D01*
X20515143Y-13140714D02*
X20486571Y-13126429D01*
X20472286Y-13097857D01*
X20472286Y-12840714D01*
X20743714Y-13126429D02*
X20715143Y-13140714D01*
X20658000Y-13140714D01*
X20629428Y-13126429D01*
X20615143Y-13097857D01*
X20615143Y-12983571D01*
X20629428Y-12955000D01*
X20658000Y-12940714D01*
X20715143Y-12940714D01*
X20743714Y-12955000D01*
X20758000Y-12983571D01*
X20758000Y-13012143D01*
X20615143Y-13040714D01*
X20872286Y-13126429D02*
X20900857Y-13140714D01*
X20958000Y-13140714D01*
X20986571Y-13126429D01*
X21000857Y-13097857D01*
X21000857Y-13083571D01*
X20986571Y-13055000D01*
X20958000Y-13040714D01*
X20915143Y-13040714D01*
X20886571Y-13026429D01*
X20872286Y-12997857D01*
X20872286Y-12983571D01*
X20886571Y-12955000D01*
X20915143Y-12940714D01*
X20958000Y-12940714D01*
X20986571Y-12955000D01*
X21100857Y-13255000D02*
X21115143Y-13240714D01*
X21143714Y-13197857D01*
X21158000Y-13169286D01*
X21172286Y-13126429D01*
X21186571Y-13055000D01*
X21186571Y-12997857D01*
X21172286Y-12926429D01*
X21158000Y-12883571D01*
X21143714Y-12855000D01*
X21115143Y-12812143D01*
X21100857Y-12797857D01*
X13968000Y-13326000D02*
X13968000Y-13476000D01*
X13893000Y-13401000D02*
X14043000Y-13401000D01*
X14486571Y-13536714D02*
X14315143Y-13536714D01*
X14400857Y-13536714D02*
X14400857Y-13236714D01*
X14372286Y-13279571D01*
X14343714Y-13308143D01*
X14315143Y-13322429D01*
X14615143Y-13508143D02*
X14629428Y-13522429D01*
X14615143Y-13536714D01*
X14600857Y-13522429D01*
X14615143Y-13508143D01*
X14615143Y-13536714D01*
X14900857Y-13236714D02*
X14758000Y-13236714D01*
X14743714Y-13379571D01*
X14758000Y-13365286D01*
X14786571Y-13351000D01*
X14858000Y-13351000D01*
X14886571Y-13365286D01*
X14900857Y-13379571D01*
X14915143Y-13408143D01*
X14915143Y-13479571D01*
X14900857Y-13508143D01*
X14886571Y-13522429D01*
X14858000Y-13536714D01*
X14786571Y-13536714D01*
X14758000Y-13522429D01*
X14743714Y-13508143D01*
X15100857Y-13236714D02*
X15129428Y-13236714D01*
X15158000Y-13251000D01*
X15172286Y-13265286D01*
X15186571Y-13293857D01*
X15200857Y-13351000D01*
X15200857Y-13422429D01*
X15186571Y-13479571D01*
X15172286Y-13508143D01*
X15158000Y-13522429D01*
X15129428Y-13536714D01*
X15100857Y-13536714D01*
X15072286Y-13522429D01*
X15058000Y-13508143D01*
X15043714Y-13479571D01*
X15029428Y-13422429D01*
X15029428Y-13351000D01*
X15043714Y-13293857D01*
X15058000Y-13265286D01*
X15072286Y-13251000D01*
X15100857Y-13236714D01*
X15386571Y-13236714D02*
X15415143Y-13236714D01*
X15443714Y-13251000D01*
X15458000Y-13265286D01*
X15472286Y-13293857D01*
X15486571Y-13351000D01*
X15486571Y-13422429D01*
X15472286Y-13479571D01*
X15458000Y-13508143D01*
X15443714Y-13522429D01*
X15415143Y-13536714D01*
X15386571Y-13536714D01*
X15358000Y-13522429D01*
X15343714Y-13508143D01*
X15329428Y-13479571D01*
X15315143Y-13422429D01*
X15315143Y-13351000D01*
X15329428Y-13293857D01*
X15343714Y-13265286D01*
X15358000Y-13251000D01*
X15386571Y-13236714D01*
X15615143Y-13536714D02*
X15615143Y-13336714D01*
X15615143Y-13365286D02*
X15629428Y-13351000D01*
X15658000Y-13336714D01*
X15700857Y-13336714D01*
X15729428Y-13351000D01*
X15743714Y-13379571D01*
X15743714Y-13536714D01*
X15743714Y-13379571D02*
X15758000Y-13351000D01*
X15786571Y-13336714D01*
X15829428Y-13336714D01*
X15858000Y-13351000D01*
X15872286Y-13379571D01*
X15872286Y-13536714D01*
X16015143Y-13536714D02*
X16015143Y-13336714D01*
X16015143Y-13365286D02*
X16029428Y-13351000D01*
X16058000Y-13336714D01*
X16100857Y-13336714D01*
X16129428Y-13351000D01*
X16143714Y-13379571D01*
X16143714Y-13536714D01*
X16143714Y-13379571D02*
X16158000Y-13351000D01*
X16186571Y-13336714D01*
X16229428Y-13336714D01*
X16258000Y-13351000D01*
X16272286Y-13379571D01*
X16272286Y-13536714D01*
X16858000Y-13222429D02*
X16600857Y-13608143D01*
X17243714Y-13236714D02*
X17272286Y-13236714D01*
X17300857Y-13251000D01*
X17315143Y-13265286D01*
X17329428Y-13293857D01*
X17343714Y-13351000D01*
X17343714Y-13422429D01*
X17329428Y-13479571D01*
X17315143Y-13508143D01*
X17300857Y-13522429D01*
X17272286Y-13536714D01*
X17243714Y-13536714D01*
X17215143Y-13522429D01*
X17200857Y-13508143D01*
X17186571Y-13479571D01*
X17172286Y-13422429D01*
X17172286Y-13351000D01*
X17186571Y-13293857D01*
X17200857Y-13265286D01*
X17215143Y-13251000D01*
X17243714Y-13236714D01*
X17472286Y-13508143D02*
X17486571Y-13522429D01*
X17472286Y-13536714D01*
X17458000Y-13522429D01*
X17472286Y-13508143D01*
X17472286Y-13536714D01*
X17672286Y-13236714D02*
X17700857Y-13236714D01*
X17729428Y-13251000D01*
X17743714Y-13265286D01*
X17758000Y-13293857D01*
X17772286Y-13351000D01*
X17772286Y-13422429D01*
X17758000Y-13479571D01*
X17743714Y-13508143D01*
X17729428Y-13522429D01*
X17700857Y-13536714D01*
X17672286Y-13536714D01*
X17643714Y-13522429D01*
X17629428Y-13508143D01*
X17615143Y-13479571D01*
X17600857Y-13422429D01*
X17600857Y-13351000D01*
X17615143Y-13293857D01*
X17629428Y-13265286D01*
X17643714Y-13251000D01*
X17672286Y-13236714D01*
X18043714Y-13236714D02*
X17900857Y-13236714D01*
X17886571Y-13379571D01*
X17900857Y-13365286D01*
X17929428Y-13351000D01*
X18000857Y-13351000D01*
X18029428Y-13365286D01*
X18043714Y-13379571D01*
X18058000Y-13408143D01*
X18058000Y-13479571D01*
X18043714Y-13508143D01*
X18029428Y-13522429D01*
X18000857Y-13536714D01*
X17929428Y-13536714D01*
X17900857Y-13522429D01*
X17886571Y-13508143D01*
X18200857Y-13536714D02*
X18258000Y-13536714D01*
X18286571Y-13522429D01*
X18300857Y-13508143D01*
X18329428Y-13465286D01*
X18343714Y-13408143D01*
X18343714Y-13293857D01*
X18329428Y-13265286D01*
X18315143Y-13251000D01*
X18286571Y-13236714D01*
X18229428Y-13236714D01*
X18200857Y-13251000D01*
X18186571Y-13265286D01*
X18172286Y-13293857D01*
X18172286Y-13365286D01*
X18186571Y-13393857D01*
X18200857Y-13408143D01*
X18229428Y-13422429D01*
X18286571Y-13422429D01*
X18315143Y-13408143D01*
X18329428Y-13393857D01*
X18343714Y-13365286D01*
X18629428Y-13536714D02*
X18458000Y-13536714D01*
X18543714Y-13536714D02*
X18543714Y-13236714D01*
X18515143Y-13279571D01*
X18486571Y-13308143D01*
X18458000Y-13322429D01*
X18743714Y-13236714D02*
X18743714Y-13293857D01*
X18858000Y-13236714D02*
X18858000Y-13293857D01*
X19300857Y-13651000D02*
X19286571Y-13636714D01*
X19258000Y-13593857D01*
X19243714Y-13565286D01*
X19229428Y-13522429D01*
X19215143Y-13451000D01*
X19215143Y-13393857D01*
X19229428Y-13322429D01*
X19243714Y-13279571D01*
X19258000Y-13251000D01*
X19286571Y-13208143D01*
X19300857Y-13193857D01*
X19543714Y-13236714D02*
X19486571Y-13236714D01*
X19458000Y-13251000D01*
X19443714Y-13265286D01*
X19415143Y-13308143D01*
X19400857Y-13365286D01*
X19400857Y-13479571D01*
X19415143Y-13508143D01*
X19429428Y-13522429D01*
X19458000Y-13536714D01*
X19515143Y-13536714D01*
X19543714Y-13522429D01*
X19558000Y-13508143D01*
X19572286Y-13479571D01*
X19572286Y-13408143D01*
X19558000Y-13379571D01*
X19543714Y-13365286D01*
X19515143Y-13351000D01*
X19458000Y-13351000D01*
X19429428Y-13365286D01*
X19415143Y-13379571D01*
X19400857Y-13408143D01*
X19929428Y-13536714D02*
X19929428Y-13236714D01*
X20058000Y-13536714D02*
X20058000Y-13379571D01*
X20043714Y-13351000D01*
X20015143Y-13336714D01*
X19972286Y-13336714D01*
X19943714Y-13351000D01*
X19929428Y-13365286D01*
X20243714Y-13536714D02*
X20215143Y-13522429D01*
X20200857Y-13508143D01*
X20186571Y-13479571D01*
X20186571Y-13393857D01*
X20200857Y-13365286D01*
X20215143Y-13351000D01*
X20243714Y-13336714D01*
X20286571Y-13336714D01*
X20315143Y-13351000D01*
X20329428Y-13365286D01*
X20343714Y-13393857D01*
X20343714Y-13479571D01*
X20329428Y-13508143D01*
X20315143Y-13522429D01*
X20286571Y-13536714D01*
X20243714Y-13536714D01*
X20515143Y-13536714D02*
X20486571Y-13522429D01*
X20472286Y-13493857D01*
X20472286Y-13236714D01*
X20743714Y-13522429D02*
X20715143Y-13536714D01*
X20658000Y-13536714D01*
X20629428Y-13522429D01*
X20615143Y-13493857D01*
X20615143Y-13379571D01*
X20629428Y-13351000D01*
X20658000Y-13336714D01*
X20715143Y-13336714D01*
X20743714Y-13351000D01*
X20758000Y-13379571D01*
X20758000Y-13408143D01*
X20615143Y-13436714D01*
X20872286Y-13522429D02*
X20900857Y-13536714D01*
X20958000Y-13536714D01*
X20986571Y-13522429D01*
X21000857Y-13493857D01*
X21000857Y-13479571D01*
X20986571Y-13451000D01*
X20958000Y-13436714D01*
X20915143Y-13436714D01*
X20886571Y-13422429D01*
X20872286Y-13393857D01*
X20872286Y-13379571D01*
X20886571Y-13351000D01*
X20915143Y-13336714D01*
X20958000Y-13336714D01*
X20986571Y-13351000D01*
X21100857Y-13651000D02*
X21115143Y-13636714D01*
X21143714Y-13593857D01*
X21158000Y-13565286D01*
X21172286Y-13522429D01*
X21186571Y-13451000D01*
X21186571Y-13393857D01*
X21172286Y-13322429D01*
X21158000Y-13279571D01*
X21143714Y-13251000D01*
X21115143Y-13208143D01*
X21100857Y-13193857D01*
X14018105Y-13857105D02*
X14018105Y-13736895D01*
X13897895Y-13736895D01*
X13897895Y-13857105D01*
X14018105Y-13857105D01*
X14486571Y-13932714D02*
X14315143Y-13932714D01*
X14400857Y-13932714D02*
X14400857Y-13632714D01*
X14372286Y-13675571D01*
X14343714Y-13704143D01*
X14315143Y-13718429D01*
X14615143Y-13904143D02*
X14629428Y-13918429D01*
X14615143Y-13932714D01*
X14600857Y-13918429D01*
X14615143Y-13904143D01*
X14615143Y-13932714D01*
X14729428Y-13632714D02*
X14929428Y-13632714D01*
X14800857Y-13932714D01*
X15100857Y-13632714D02*
X15129428Y-13632714D01*
X15158000Y-13647000D01*
X15172286Y-13661286D01*
X15186571Y-13689857D01*
X15200857Y-13747000D01*
X15200857Y-13818429D01*
X15186571Y-13875571D01*
X15172286Y-13904143D01*
X15158000Y-13918429D01*
X15129428Y-13932714D01*
X15100857Y-13932714D01*
X15072286Y-13918429D01*
X15058000Y-13904143D01*
X15043714Y-13875571D01*
X15029428Y-13818429D01*
X15029428Y-13747000D01*
X15043714Y-13689857D01*
X15058000Y-13661286D01*
X15072286Y-13647000D01*
X15100857Y-13632714D01*
X15386571Y-13632714D02*
X15415143Y-13632714D01*
X15443714Y-13647000D01*
X15458000Y-13661286D01*
X15472286Y-13689857D01*
X15486571Y-13747000D01*
X15486571Y-13818429D01*
X15472286Y-13875571D01*
X15458000Y-13904143D01*
X15443714Y-13918429D01*
X15415143Y-13932714D01*
X15386571Y-13932714D01*
X15358000Y-13918429D01*
X15343714Y-13904143D01*
X15329428Y-13875571D01*
X15315143Y-13818429D01*
X15315143Y-13747000D01*
X15329428Y-13689857D01*
X15343714Y-13661286D01*
X15358000Y-13647000D01*
X15386571Y-13632714D01*
X15615143Y-13932714D02*
X15615143Y-13732714D01*
X15615143Y-13761286D02*
X15629428Y-13747000D01*
X15658000Y-13732714D01*
X15700857Y-13732714D01*
X15729428Y-13747000D01*
X15743714Y-13775571D01*
X15743714Y-13932714D01*
X15743714Y-13775571D02*
X15758000Y-13747000D01*
X15786571Y-13732714D01*
X15829428Y-13732714D01*
X15858000Y-13747000D01*
X15872286Y-13775571D01*
X15872286Y-13932714D01*
X16015143Y-13932714D02*
X16015143Y-13732714D01*
X16015143Y-13761286D02*
X16029428Y-13747000D01*
X16058000Y-13732714D01*
X16100857Y-13732714D01*
X16129428Y-13747000D01*
X16143714Y-13775571D01*
X16143714Y-13932714D01*
X16143714Y-13775571D02*
X16158000Y-13747000D01*
X16186571Y-13732714D01*
X16229428Y-13732714D01*
X16258000Y-13747000D01*
X16272286Y-13775571D01*
X16272286Y-13932714D01*
X16858000Y-13618429D02*
X16600857Y-14004143D01*
X17243714Y-13632714D02*
X17272286Y-13632714D01*
X17300857Y-13647000D01*
X17315143Y-13661286D01*
X17329428Y-13689857D01*
X17343714Y-13747000D01*
X17343714Y-13818429D01*
X17329428Y-13875571D01*
X17315143Y-13904143D01*
X17300857Y-13918429D01*
X17272286Y-13932714D01*
X17243714Y-13932714D01*
X17215143Y-13918429D01*
X17200857Y-13904143D01*
X17186571Y-13875571D01*
X17172286Y-13818429D01*
X17172286Y-13747000D01*
X17186571Y-13689857D01*
X17200857Y-13661286D01*
X17215143Y-13647000D01*
X17243714Y-13632714D01*
X17472286Y-13904143D02*
X17486571Y-13918429D01*
X17472286Y-13932714D01*
X17458000Y-13918429D01*
X17472286Y-13904143D01*
X17472286Y-13932714D01*
X17672286Y-13632714D02*
X17700857Y-13632714D01*
X17729428Y-13647000D01*
X17743714Y-13661286D01*
X17758000Y-13689857D01*
X17772286Y-13747000D01*
X17772286Y-13818429D01*
X17758000Y-13875571D01*
X17743714Y-13904143D01*
X17729428Y-13918429D01*
X17700857Y-13932714D01*
X17672286Y-13932714D01*
X17643714Y-13918429D01*
X17629428Y-13904143D01*
X17615143Y-13875571D01*
X17600857Y-13818429D01*
X17600857Y-13747000D01*
X17615143Y-13689857D01*
X17629428Y-13661286D01*
X17643714Y-13647000D01*
X17672286Y-13632714D01*
X18029428Y-13632714D02*
X17972286Y-13632714D01*
X17943714Y-13647000D01*
X17929428Y-13661286D01*
X17900857Y-13704143D01*
X17886571Y-13761286D01*
X17886571Y-13875571D01*
X17900857Y-13904143D01*
X17915143Y-13918429D01*
X17943714Y-13932714D01*
X18000857Y-13932714D01*
X18029428Y-13918429D01*
X18043714Y-13904143D01*
X18058000Y-13875571D01*
X18058000Y-13804143D01*
X18043714Y-13775571D01*
X18029428Y-13761286D01*
X18000857Y-13747000D01*
X17943714Y-13747000D01*
X17915143Y-13761286D01*
X17900857Y-13775571D01*
X17886571Y-13804143D01*
X18315143Y-13632714D02*
X18258000Y-13632714D01*
X18229428Y-13647000D01*
X18215143Y-13661286D01*
X18186571Y-13704143D01*
X18172286Y-13761286D01*
X18172286Y-13875571D01*
X18186571Y-13904143D01*
X18200857Y-13918429D01*
X18229428Y-13932714D01*
X18286571Y-13932714D01*
X18315143Y-13918429D01*
X18329428Y-13904143D01*
X18343714Y-13875571D01*
X18343714Y-13804143D01*
X18329428Y-13775571D01*
X18315143Y-13761286D01*
X18286571Y-13747000D01*
X18229428Y-13747000D01*
X18200857Y-13761286D01*
X18186571Y-13775571D01*
X18172286Y-13804143D01*
X18486571Y-13932714D02*
X18543714Y-13932714D01*
X18572286Y-13918429D01*
X18586571Y-13904143D01*
X18615143Y-13861286D01*
X18629428Y-13804143D01*
X18629428Y-13689857D01*
X18615143Y-13661286D01*
X18600857Y-13647000D01*
X18572286Y-13632714D01*
X18515143Y-13632714D01*
X18486571Y-13647000D01*
X18472286Y-13661286D01*
X18458000Y-13689857D01*
X18458000Y-13761286D01*
X18472286Y-13789857D01*
X18486571Y-13804143D01*
X18515143Y-13818429D01*
X18572286Y-13818429D01*
X18600857Y-13804143D01*
X18615143Y-13789857D01*
X18629428Y-13761286D01*
X18743714Y-13632714D02*
X18743714Y-13689857D01*
X18858000Y-13632714D02*
X18858000Y-13689857D01*
X19300857Y-14047000D02*
X19286571Y-14032714D01*
X19258000Y-13989857D01*
X19243714Y-13961286D01*
X19229428Y-13918429D01*
X19215143Y-13847000D01*
X19215143Y-13789857D01*
X19229428Y-13718429D01*
X19243714Y-13675571D01*
X19258000Y-13647000D01*
X19286571Y-13604143D01*
X19300857Y-13589857D01*
X19400857Y-13661286D02*
X19415143Y-13647000D01*
X19443714Y-13632714D01*
X19515143Y-13632714D01*
X19543714Y-13647000D01*
X19558000Y-13661286D01*
X19572286Y-13689857D01*
X19572286Y-13718429D01*
X19558000Y-13761286D01*
X19386571Y-13932714D01*
X19572286Y-13932714D01*
X19829428Y-13732714D02*
X19829428Y-13932714D01*
X19758000Y-13618429D02*
X19686571Y-13832714D01*
X19872286Y-13832714D01*
X20215143Y-13932714D02*
X20215143Y-13632714D01*
X20343714Y-13932714D02*
X20343714Y-13775571D01*
X20329428Y-13747000D01*
X20300857Y-13732714D01*
X20258000Y-13732714D01*
X20229428Y-13747000D01*
X20215143Y-13761286D01*
X20529428Y-13932714D02*
X20500857Y-13918429D01*
X20486571Y-13904143D01*
X20472286Y-13875571D01*
X20472286Y-13789857D01*
X20486571Y-13761286D01*
X20500857Y-13747000D01*
X20529428Y-13732714D01*
X20572286Y-13732714D01*
X20600857Y-13747000D01*
X20615143Y-13761286D01*
X20629428Y-13789857D01*
X20629428Y-13875571D01*
X20615143Y-13904143D01*
X20600857Y-13918429D01*
X20572286Y-13932714D01*
X20529428Y-13932714D01*
X20800857Y-13932714D02*
X20772286Y-13918429D01*
X20758000Y-13889857D01*
X20758000Y-13632714D01*
X21029428Y-13918429D02*
X21000857Y-13932714D01*
X20943714Y-13932714D01*
X20915143Y-13918429D01*
X20900857Y-13889857D01*
X20900857Y-13775571D01*
X20915143Y-13747000D01*
X20943714Y-13732714D01*
X21000857Y-13732714D01*
X21029428Y-13747000D01*
X21043714Y-13775571D01*
X21043714Y-13804143D01*
X20900857Y-13832714D01*
X21158000Y-13918429D02*
X21186571Y-13932714D01*
X21243714Y-13932714D01*
X21272286Y-13918429D01*
X21286571Y-13889857D01*
X21286571Y-13875571D01*
X21272286Y-13847000D01*
X21243714Y-13832714D01*
X21200857Y-13832714D01*
X21172286Y-13818429D01*
X21158000Y-13789857D01*
X21158000Y-13775571D01*
X21172286Y-13747000D01*
X21200857Y-13732714D01*
X21243714Y-13732714D01*
X21272286Y-13747000D01*
X21386571Y-14047000D02*
X21400857Y-14032714D01*
X21429428Y-13989857D01*
X21443714Y-13961286D01*
X21458000Y-13918429D01*
X21472286Y-13847000D01*
X21472286Y-13789857D01*
X21458000Y-13718429D01*
X21443714Y-13675571D01*
X21429428Y-13647000D01*
X21400857Y-13604143D01*
X21386571Y-13589857D01*
M02*
