G04 #@! TF.GenerationSoftware,KiCad,Pcbnew,5.1.10*
G04 #@! TF.CreationDate,2021-09-17T19:19:20-07:00*
G04 #@! TF.ProjectId,PCIEX1-SMA,50434945-5831-42d5-934d-412e6b696361,rev?*
G04 #@! TF.SameCoordinates,Original*
G04 #@! TF.FileFunction,Copper,L4,Bot*
G04 #@! TF.FilePolarity,Positive*
%FSLAX46Y46*%
G04 Gerber Fmt 4.6, Leading zero omitted, Abs format (unit mm)*
G04 Created by KiCad (PCBNEW 5.1.10) date 2021-09-17 19:19:20*
%MOMM*%
%LPD*%
G01*
G04 APERTURE LIST*
G04 #@! TA.AperFunction,ComponentPad*
%ADD10R,1.700000X1.700000*%
G04 #@! TD*
G04 #@! TA.AperFunction,ComponentPad*
%ADD11O,1.700000X1.700000*%
G04 #@! TD*
G04 #@! TA.AperFunction,ComponentPad*
%ADD12C,2.050000*%
G04 #@! TD*
G04 #@! TA.AperFunction,ComponentPad*
%ADD13C,2.250000*%
G04 #@! TD*
G04 #@! TA.AperFunction,ConnectorPad*
%ADD14R,0.700000X4.300000*%
G04 #@! TD*
G04 #@! TA.AperFunction,ConnectorPad*
%ADD15R,0.700000X3.200000*%
G04 #@! TD*
G04 #@! TA.AperFunction,ViaPad*
%ADD16C,0.800000*%
G04 #@! TD*
G04 #@! TA.AperFunction,Conductor*
%ADD17C,0.250000*%
G04 #@! TD*
G04 #@! TA.AperFunction,Conductor*
%ADD18C,0.149098*%
G04 #@! TD*
G04 APERTURE END LIST*
D10*
X150350000Y-104300000D03*
D11*
X147810000Y-104300000D03*
X145270000Y-104300000D03*
X142730000Y-104300000D03*
D12*
X155510000Y-76250000D03*
D13*
X158050000Y-78790000D03*
X158050000Y-73710000D03*
X152970000Y-73710000D03*
X152970000Y-78790000D03*
D12*
X155510000Y-95460000D03*
D13*
X158050000Y-98000000D03*
X158050000Y-92920000D03*
X152970000Y-92920000D03*
X152970000Y-98000000D03*
D12*
X145510000Y-76250000D03*
D13*
X148050000Y-78790000D03*
X148050000Y-73710000D03*
X142970000Y-73710000D03*
X142970000Y-78790000D03*
D12*
X155510000Y-86250000D03*
D13*
X158050000Y-88790000D03*
X158050000Y-83710000D03*
X152970000Y-83710000D03*
X152970000Y-88790000D03*
D12*
X145510000Y-86250000D03*
D13*
X148050000Y-88790000D03*
X148050000Y-83710000D03*
X142970000Y-83710000D03*
X142970000Y-88790000D03*
D12*
X145510000Y-95460000D03*
D13*
X148050000Y-98000000D03*
X148050000Y-92920000D03*
X142970000Y-92920000D03*
X142970000Y-98000000D03*
D14*
X155130000Y-112990000D03*
X154130000Y-112990000D03*
X160130000Y-112990000D03*
X159130000Y-112990000D03*
X158130000Y-112990000D03*
X157130000Y-112990000D03*
X156130000Y-112990000D03*
X151130000Y-112990000D03*
X150130000Y-112990000D03*
X149130000Y-112990000D03*
X148130000Y-112990000D03*
X147130000Y-112990000D03*
X146130000Y-112990000D03*
X145130000Y-112990000D03*
X144130000Y-112990000D03*
X143130000Y-112990000D03*
X142130000Y-112990000D03*
D15*
X141130000Y-112440000D03*
D16*
X147140000Y-110040000D03*
X144130000Y-110030000D03*
X154780000Y-108790000D03*
X157550000Y-109150000D03*
X159620000Y-109210000D03*
X149130000Y-110030000D03*
X150510000Y-71490000D03*
X141650000Y-101100000D03*
D17*
X144130000Y-112990000D02*
X144130000Y-110030000D01*
X154130000Y-109440000D02*
X154780000Y-108790000D01*
X154130000Y-112990000D02*
X154130000Y-109440000D01*
X157130000Y-109570000D02*
X157130000Y-112990000D01*
X157550000Y-109150000D02*
X157130000Y-109570000D01*
X160130000Y-109720000D02*
X159620000Y-109210000D01*
X160130000Y-112990000D02*
X160130000Y-109720000D01*
D18*
X155491951Y-109403048D02*
X155491951Y-105087183D01*
X155130000Y-109764999D02*
X155491951Y-109403048D01*
X155130000Y-112990000D02*
X155130000Y-109764999D01*
X149811951Y-89842817D02*
X150411951Y-89242817D01*
X149811951Y-99407183D02*
X149811951Y-89842817D01*
X150411951Y-89242817D02*
X150411951Y-77400000D01*
X155491951Y-105087183D02*
X149811951Y-99407183D01*
X150411951Y-77400000D02*
X149261951Y-76250000D01*
X149261951Y-76250000D02*
X145510000Y-76250000D01*
X155510000Y-95007366D02*
X155510000Y-95460000D01*
X155486072Y-93958401D02*
X155503942Y-94009470D01*
X155419028Y-93874331D02*
X155457286Y-93912589D01*
X155373216Y-93845545D02*
X155419028Y-93874331D01*
X155322147Y-93827675D02*
X155373216Y-93845545D01*
X155510000Y-94063236D02*
X155510000Y-95007366D01*
X155214616Y-93815560D02*
X155322147Y-93827675D01*
X155457286Y-93130646D02*
X155419028Y-93168904D01*
X155117735Y-93768904D02*
X155163547Y-93797690D01*
X155486072Y-93084834D02*
X155457286Y-93130646D01*
X155503942Y-93033765D02*
X155486072Y-93084834D01*
X155079477Y-93312589D02*
X155050691Y-93358401D01*
X155510000Y-92980000D02*
X155503942Y-93033765D01*
X155503942Y-94009470D02*
X155510000Y-94063236D01*
X159130000Y-112990000D02*
X159130000Y-109764999D01*
X155373216Y-93197690D02*
X155322147Y-93215560D01*
X151238049Y-92007183D02*
X152257183Y-90988049D01*
X158768049Y-106622817D02*
X151238049Y-99092817D01*
X151238049Y-99092817D02*
X151238049Y-92007183D01*
X155510000Y-92248049D02*
X155510000Y-92980000D01*
X158768049Y-109403048D02*
X158768049Y-106622817D01*
X155032821Y-93409470D02*
X155026764Y-93463236D01*
X159130000Y-109764999D02*
X158768049Y-109403048D01*
X155419028Y-93168904D02*
X155373216Y-93197690D01*
X155214616Y-93227675D02*
X155163547Y-93245545D01*
X155322147Y-93215560D02*
X155214616Y-93227675D01*
X155163547Y-93245545D02*
X155117735Y-93274331D01*
X155117735Y-93274331D02*
X155079477Y-93312589D01*
X155026764Y-93463236D02*
X155026764Y-93580000D01*
X155457286Y-93912589D02*
X155486072Y-93958401D01*
X152257183Y-90988049D02*
X154250000Y-90988049D01*
X155050691Y-93358401D02*
X155032821Y-93409470D01*
X155026764Y-93580000D02*
X155032821Y-93633765D01*
X154250000Y-90988049D02*
X155510000Y-92248049D01*
X155032821Y-93633765D02*
X155050691Y-93684834D01*
X155050691Y-93684834D02*
X155079477Y-93730646D01*
X155079477Y-93730646D02*
X155117735Y-93768904D01*
X155163547Y-93797690D02*
X155214616Y-93815560D01*
X158130000Y-112990000D02*
X158130000Y-109764999D01*
X158130000Y-109764999D02*
X158491951Y-109403048D01*
X154250000Y-90711951D02*
X155510000Y-89451951D01*
X158491951Y-109403048D02*
X158491951Y-106737183D01*
X158491951Y-106737183D02*
X150961951Y-99207183D01*
X155510000Y-89451951D02*
X155510000Y-86250000D01*
X150961951Y-99207183D02*
X150961951Y-91892817D01*
X150961951Y-91892817D02*
X152142817Y-90711951D01*
X152142817Y-90711951D02*
X154250000Y-90711951D01*
X151838049Y-76250000D02*
X155510000Y-76250000D01*
X150688049Y-77400000D02*
X151838049Y-76250000D01*
X150088049Y-89957183D02*
X150688049Y-89357183D01*
X155768049Y-109403048D02*
X155768049Y-104972817D01*
X156130000Y-112990000D02*
X156130000Y-109764999D01*
X150088049Y-99292817D02*
X150088049Y-89957183D01*
X155768049Y-104972817D02*
X150088049Y-99292817D01*
X150688049Y-89357183D02*
X150688049Y-77400000D01*
X156130000Y-109764999D02*
X155768049Y-109403048D01*
D17*
X147810000Y-104300000D02*
X147810000Y-106060000D01*
X151130000Y-109380000D02*
X151130000Y-112990000D01*
X147810000Y-106060000D02*
X151130000Y-109380000D01*
X149130000Y-112990000D02*
X149130000Y-110030000D01*
X149130000Y-110030000D02*
X149620000Y-110030000D01*
X149620000Y-110030000D02*
X150130000Y-110540000D01*
X150130000Y-112990000D02*
X150130000Y-110540000D01*
X141130000Y-101620000D02*
X141650000Y-101100000D01*
X141130000Y-112440000D02*
X141130000Y-101620000D01*
M02*
