G04 #@! TF.GenerationSoftware,KiCad,Pcbnew,5.1.10*
G04 #@! TF.CreationDate,2021-09-17T19:19:20-07:00*
G04 #@! TF.ProjectId,PCIEX1-SMA,50434945-5831-42d5-934d-412e6b696361,rev?*
G04 #@! TF.SameCoordinates,Original*
G04 #@! TF.FileFunction,Soldermask,Bot*
G04 #@! TF.FilePolarity,Negative*
%FSLAX46Y46*%
G04 Gerber Fmt 4.6, Leading zero omitted, Abs format (unit mm)*
G04 Created by KiCad (PCBNEW 5.1.10) date 2021-09-17 19:19:20*
%MOMM*%
%LPD*%
G01*
G04 APERTURE LIST*
%ADD10R,1.700000X1.700000*%
%ADD11O,1.700000X1.700000*%
%ADD12C,2.050000*%
%ADD13C,2.250000*%
%ADD14R,0.700000X4.300000*%
%ADD15R,0.700000X3.200000*%
G04 APERTURE END LIST*
D10*
X150350000Y-104300000D03*
D11*
X147810000Y-104300000D03*
X145270000Y-104300000D03*
X142730000Y-104300000D03*
D12*
X155510000Y-76250000D03*
D13*
X158050000Y-78790000D03*
X158050000Y-73710000D03*
X152970000Y-73710000D03*
X152970000Y-78790000D03*
D12*
X155510000Y-95460000D03*
D13*
X158050000Y-98000000D03*
X158050000Y-92920000D03*
X152970000Y-92920000D03*
X152970000Y-98000000D03*
D12*
X145510000Y-76250000D03*
D13*
X148050000Y-78790000D03*
X148050000Y-73710000D03*
X142970000Y-73710000D03*
X142970000Y-78790000D03*
D12*
X155510000Y-86250000D03*
D13*
X158050000Y-88790000D03*
X158050000Y-83710000D03*
X152970000Y-83710000D03*
X152970000Y-88790000D03*
D12*
X145510000Y-86250000D03*
D13*
X148050000Y-88790000D03*
X148050000Y-83710000D03*
X142970000Y-83710000D03*
X142970000Y-88790000D03*
D12*
X145510000Y-95460000D03*
D13*
X148050000Y-98000000D03*
X148050000Y-92920000D03*
X142970000Y-92920000D03*
X142970000Y-98000000D03*
D14*
X155130000Y-112990000D03*
X154130000Y-112990000D03*
X160130000Y-112990000D03*
X159130000Y-112990000D03*
X158130000Y-112990000D03*
X157130000Y-112990000D03*
X156130000Y-112990000D03*
X151130000Y-112990000D03*
X150130000Y-112990000D03*
X149130000Y-112990000D03*
X148130000Y-112990000D03*
X147130000Y-112990000D03*
X146130000Y-112990000D03*
X145130000Y-112990000D03*
X144130000Y-112990000D03*
X143130000Y-112990000D03*
X142130000Y-112990000D03*
D15*
X141130000Y-112440000D03*
M02*
