M48
; DRILL file {KiCad 5.1.10} date Fri Sep 17 19:19:26 2021
; FORMAT={-:-/ absolute / metric / decimal}
; #@! TF.CreationDate,2021-09-17T19:19:26-07:00
; #@! TF.GenerationSoftware,Kicad,Pcbnew,5.1.10
; #@! TF.FileFunction,Plated,1,4,PTH
FMAT,2
METRIC
T1C0.400
T2C1.000
T3C1.500
T4C1.700
%
G90
G05
T1
X141.65Y-101.1
X144.13Y-110.03
X147.14Y-110.04
X149.13Y-110.03
X150.51Y-71.49
X154.78Y-108.79
X157.55Y-109.15
X159.62Y-109.21
T2
X142.73Y-104.3
X145.27Y-104.3
X147.81Y-104.3
X150.35Y-104.3
T3
X145.51Y-76.25
X145.51Y-86.25
X145.51Y-95.46
X155.51Y-76.25
X155.51Y-86.25
X155.51Y-95.46
T4
X142.97Y-73.71
X142.97Y-78.79
X142.97Y-83.71
X142.97Y-88.79
X142.97Y-92.92
X142.97Y-98.0
X148.05Y-73.71
X148.05Y-78.79
X148.05Y-83.71
X148.05Y-88.79
X148.05Y-92.92
X148.05Y-98.0
X152.97Y-73.71
X152.97Y-78.79
X152.97Y-83.71
X152.97Y-88.79
X152.97Y-92.92
X152.97Y-98.0
X158.05Y-73.71
X158.05Y-78.79
X158.05Y-83.71
X158.05Y-88.79
X158.05Y-92.92
X158.05Y-98.0
T0
M30
