G04 #@! TF.GenerationSoftware,KiCad,Pcbnew,5.1.10*
G04 #@! TF.CreationDate,2021-09-17T19:19:20-07:00*
G04 #@! TF.ProjectId,PCIEX1-SMA,50434945-5831-42d5-934d-412e6b696361,rev?*
G04 #@! TF.SameCoordinates,Original*
G04 #@! TF.FileFunction,Copper,L3,Inr*
G04 #@! TF.FilePolarity,Positive*
%FSLAX46Y46*%
G04 Gerber Fmt 4.6, Leading zero omitted, Abs format (unit mm)*
G04 Created by KiCad (PCBNEW 5.1.10) date 2021-09-17 19:19:20*
%MOMM*%
%LPD*%
G01*
G04 APERTURE LIST*
G04 #@! TA.AperFunction,ComponentPad*
%ADD10R,1.700000X1.700000*%
G04 #@! TD*
G04 #@! TA.AperFunction,ComponentPad*
%ADD11O,1.700000X1.700000*%
G04 #@! TD*
G04 #@! TA.AperFunction,ComponentPad*
%ADD12C,2.050000*%
G04 #@! TD*
G04 #@! TA.AperFunction,ComponentPad*
%ADD13C,2.250000*%
G04 #@! TD*
G04 #@! TA.AperFunction,ViaPad*
%ADD14C,0.800000*%
G04 #@! TD*
G04 #@! TA.AperFunction,Conductor*
%ADD15C,0.254000*%
G04 #@! TD*
G04 #@! TA.AperFunction,Conductor*
%ADD16C,0.100000*%
G04 #@! TD*
G04 APERTURE END LIST*
D10*
X150350000Y-104300000D03*
D11*
X147810000Y-104300000D03*
X145270000Y-104300000D03*
X142730000Y-104300000D03*
D12*
X155510000Y-76250000D03*
D13*
X158050000Y-78790000D03*
X158050000Y-73710000D03*
X152970000Y-73710000D03*
X152970000Y-78790000D03*
D12*
X155510000Y-95460000D03*
D13*
X158050000Y-98000000D03*
X158050000Y-92920000D03*
X152970000Y-92920000D03*
X152970000Y-98000000D03*
D12*
X145510000Y-76250000D03*
D13*
X148050000Y-78790000D03*
X148050000Y-73710000D03*
X142970000Y-73710000D03*
X142970000Y-78790000D03*
D12*
X155510000Y-86250000D03*
D13*
X158050000Y-88790000D03*
X158050000Y-83710000D03*
X152970000Y-83710000D03*
X152970000Y-88790000D03*
D12*
X145510000Y-86250000D03*
D13*
X148050000Y-88790000D03*
X148050000Y-83710000D03*
X142970000Y-83710000D03*
X142970000Y-88790000D03*
D12*
X145510000Y-95460000D03*
D13*
X148050000Y-98000000D03*
X148050000Y-92920000D03*
X142970000Y-92920000D03*
X142970000Y-98000000D03*
D14*
X147140000Y-110040000D03*
X144130000Y-110030000D03*
X154780000Y-108790000D03*
X157550000Y-109150000D03*
X159620000Y-109210000D03*
X149130000Y-110030000D03*
X150510000Y-71490000D03*
X141650000Y-101100000D03*
D15*
X160120000Y-107855979D02*
X160104912Y-107905718D01*
X160095000Y-108006354D01*
X160095000Y-108286476D01*
X159921898Y-108214774D01*
X159721939Y-108175000D01*
X159518061Y-108175000D01*
X159318102Y-108214774D01*
X159129744Y-108292795D01*
X158960226Y-108406063D01*
X158816063Y-108550226D01*
X158702795Y-108719744D01*
X158624774Y-108908102D01*
X158585000Y-109108061D01*
X158585000Y-109048061D01*
X158545226Y-108848102D01*
X158467205Y-108659744D01*
X158353937Y-108490226D01*
X158209774Y-108346063D01*
X158040256Y-108232795D01*
X157851898Y-108154774D01*
X157651939Y-108115000D01*
X157448061Y-108115000D01*
X157248102Y-108154774D01*
X157059744Y-108232795D01*
X156890226Y-108346063D01*
X156746063Y-108490226D01*
X156632795Y-108659744D01*
X156554774Y-108848102D01*
X156515000Y-109048061D01*
X156515000Y-109251939D01*
X156554774Y-109451898D01*
X156632795Y-109640256D01*
X156746063Y-109809774D01*
X156890226Y-109953937D01*
X157059744Y-110067205D01*
X157248102Y-110145226D01*
X157448061Y-110185000D01*
X157651939Y-110185000D01*
X157851898Y-110145226D01*
X158040256Y-110067205D01*
X158209774Y-109953937D01*
X158353937Y-109809774D01*
X158467205Y-109640256D01*
X158545226Y-109451898D01*
X158585000Y-109251939D01*
X158585000Y-109311939D01*
X158624774Y-109511898D01*
X158702795Y-109700256D01*
X158816063Y-109869774D01*
X158960226Y-110013937D01*
X159129744Y-110127205D01*
X159318102Y-110205226D01*
X159518061Y-110245000D01*
X159721939Y-110245000D01*
X159921898Y-110205226D01*
X160095000Y-110133524D01*
X160095001Y-115656263D01*
X159996264Y-115755000D01*
X154363736Y-115755000D01*
X154265000Y-115656264D01*
X154265000Y-109690672D01*
X154289744Y-109707205D01*
X154478102Y-109785226D01*
X154678061Y-109825000D01*
X154881939Y-109825000D01*
X155081898Y-109785226D01*
X155270256Y-109707205D01*
X155439774Y-109593937D01*
X155583937Y-109449774D01*
X155697205Y-109280256D01*
X155775226Y-109091898D01*
X155815000Y-108891939D01*
X155815000Y-108688061D01*
X155775226Y-108488102D01*
X155697205Y-108299744D01*
X155583937Y-108130226D01*
X155439774Y-107986063D01*
X155270256Y-107872795D01*
X155081898Y-107794774D01*
X154881939Y-107755000D01*
X154678061Y-107755000D01*
X154478102Y-107794774D01*
X154289744Y-107872795D01*
X154120226Y-107986063D01*
X154001481Y-108104808D01*
X153979037Y-108072031D01*
X153944693Y-108020339D01*
X153938597Y-108012970D01*
X153819419Y-107870940D01*
X153775062Y-107827502D01*
X153731315Y-107783449D01*
X153723903Y-107777404D01*
X153579409Y-107661228D01*
X153527499Y-107627259D01*
X153475988Y-107592515D01*
X153467544Y-107588025D01*
X153303235Y-107502126D01*
X153245680Y-107478872D01*
X153188435Y-107454809D01*
X153179283Y-107452046D01*
X153179277Y-107452044D01*
X153001415Y-107399697D01*
X152940408Y-107388059D01*
X152879614Y-107375580D01*
X152870096Y-107374646D01*
X152685452Y-107357842D01*
X152623362Y-107358276D01*
X152561283Y-107357843D01*
X152551764Y-107358776D01*
X152367372Y-107378157D01*
X152306569Y-107390638D01*
X152245574Y-107402273D01*
X152236418Y-107405038D01*
X152236413Y-107405039D01*
X152236408Y-107405041D01*
X152059302Y-107459864D01*
X152002057Y-107483927D01*
X151944502Y-107507181D01*
X151936063Y-107511668D01*
X151936059Y-107511670D01*
X151936058Y-107511671D01*
X151772965Y-107599855D01*
X151721508Y-107634563D01*
X151669542Y-107668569D01*
X151662130Y-107674614D01*
X151519271Y-107792798D01*
X151475526Y-107836850D01*
X151431168Y-107880288D01*
X151425072Y-107887657D01*
X151425069Y-107887660D01*
X151425067Y-107887664D01*
X151307889Y-108031337D01*
X151273535Y-108083044D01*
X151238456Y-108134275D01*
X151233907Y-108142688D01*
X151146863Y-108306394D01*
X151123213Y-108363772D01*
X151098745Y-108420862D01*
X151095917Y-108429998D01*
X151042329Y-108607492D01*
X151030274Y-108668373D01*
X151017362Y-108729119D01*
X151016362Y-108738631D01*
X150998269Y-108923154D01*
X150998269Y-108923159D01*
X150995000Y-108956354D01*
X150995001Y-115656263D01*
X150896264Y-115755000D01*
X141485555Y-115755000D01*
X141263298Y-115754562D01*
X141165000Y-115656264D01*
X141165000Y-109928061D01*
X143095000Y-109928061D01*
X143095000Y-110131939D01*
X143134774Y-110331898D01*
X143212795Y-110520256D01*
X143326063Y-110689774D01*
X143470226Y-110833937D01*
X143639744Y-110947205D01*
X143828102Y-111025226D01*
X144028061Y-111065000D01*
X144231939Y-111065000D01*
X144431898Y-111025226D01*
X144620256Y-110947205D01*
X144789774Y-110833937D01*
X144933937Y-110689774D01*
X145047205Y-110520256D01*
X145125226Y-110331898D01*
X145165000Y-110131939D01*
X145165000Y-109938061D01*
X146105000Y-109938061D01*
X146105000Y-110141939D01*
X146144774Y-110341898D01*
X146222795Y-110530256D01*
X146336063Y-110699774D01*
X146480226Y-110843937D01*
X146649744Y-110957205D01*
X146838102Y-111035226D01*
X147038061Y-111075000D01*
X147241939Y-111075000D01*
X147441898Y-111035226D01*
X147630256Y-110957205D01*
X147799774Y-110843937D01*
X147943937Y-110699774D01*
X148057205Y-110530256D01*
X148135226Y-110341898D01*
X148175000Y-110141939D01*
X148175000Y-109938061D01*
X148135226Y-109738102D01*
X148057205Y-109549744D01*
X147943937Y-109380226D01*
X147799774Y-109236063D01*
X147630256Y-109122795D01*
X147441898Y-109044774D01*
X147241939Y-109005000D01*
X147038061Y-109005000D01*
X146838102Y-109044774D01*
X146649744Y-109122795D01*
X146480226Y-109236063D01*
X146336063Y-109380226D01*
X146222795Y-109549744D01*
X146144774Y-109738102D01*
X146105000Y-109938061D01*
X145165000Y-109938061D01*
X145165000Y-109928061D01*
X145125226Y-109728102D01*
X145047205Y-109539744D01*
X144933937Y-109370226D01*
X144789774Y-109226063D01*
X144620256Y-109112795D01*
X144431898Y-109034774D01*
X144231939Y-108995000D01*
X144028061Y-108995000D01*
X143828102Y-109034774D01*
X143639744Y-109112795D01*
X143470226Y-109226063D01*
X143326063Y-109370226D01*
X143212795Y-109539744D01*
X143134774Y-109728102D01*
X143095000Y-109928061D01*
X141165000Y-109928061D01*
X141165000Y-108006353D01*
X141155088Y-107905717D01*
X141140000Y-107855978D01*
X141140000Y-104153740D01*
X141245000Y-104153740D01*
X141245000Y-104446260D01*
X141302068Y-104733158D01*
X141414010Y-105003411D01*
X141576525Y-105246632D01*
X141783368Y-105453475D01*
X142026589Y-105615990D01*
X142296842Y-105727932D01*
X142583740Y-105785000D01*
X142876260Y-105785000D01*
X143163158Y-105727932D01*
X143433411Y-105615990D01*
X143676632Y-105453475D01*
X143883475Y-105246632D01*
X144000000Y-105072240D01*
X144116525Y-105246632D01*
X144323368Y-105453475D01*
X144566589Y-105615990D01*
X144836842Y-105727932D01*
X145123740Y-105785000D01*
X145416260Y-105785000D01*
X145703158Y-105727932D01*
X145973411Y-105615990D01*
X146216632Y-105453475D01*
X146423475Y-105246632D01*
X146540000Y-105072240D01*
X146656525Y-105246632D01*
X146863368Y-105453475D01*
X147106589Y-105615990D01*
X147376842Y-105727932D01*
X147663740Y-105785000D01*
X147956260Y-105785000D01*
X148243158Y-105727932D01*
X148513411Y-105615990D01*
X148756632Y-105453475D01*
X148888487Y-105321620D01*
X148910498Y-105394180D01*
X148969463Y-105504494D01*
X149048815Y-105601185D01*
X149145506Y-105680537D01*
X149255820Y-105739502D01*
X149375518Y-105775812D01*
X149500000Y-105788072D01*
X151200000Y-105788072D01*
X151324482Y-105775812D01*
X151444180Y-105739502D01*
X151554494Y-105680537D01*
X151651185Y-105601185D01*
X151730537Y-105504494D01*
X151789502Y-105394180D01*
X151825812Y-105274482D01*
X151838072Y-105150000D01*
X151838072Y-103450000D01*
X151825812Y-103325518D01*
X151789502Y-103205820D01*
X151730537Y-103095506D01*
X151651185Y-102998815D01*
X151554494Y-102919463D01*
X151444180Y-102860498D01*
X151324482Y-102824188D01*
X151200000Y-102811928D01*
X149500000Y-102811928D01*
X149375518Y-102824188D01*
X149255820Y-102860498D01*
X149145506Y-102919463D01*
X149048815Y-102998815D01*
X148969463Y-103095506D01*
X148910498Y-103205820D01*
X148888487Y-103278380D01*
X148756632Y-103146525D01*
X148513411Y-102984010D01*
X148243158Y-102872068D01*
X147956260Y-102815000D01*
X147663740Y-102815000D01*
X147376842Y-102872068D01*
X147106589Y-102984010D01*
X146863368Y-103146525D01*
X146656525Y-103353368D01*
X146540000Y-103527760D01*
X146423475Y-103353368D01*
X146216632Y-103146525D01*
X145973411Y-102984010D01*
X145703158Y-102872068D01*
X145416260Y-102815000D01*
X145123740Y-102815000D01*
X144836842Y-102872068D01*
X144566589Y-102984010D01*
X144323368Y-103146525D01*
X144116525Y-103353368D01*
X144000000Y-103527760D01*
X143883475Y-103353368D01*
X143676632Y-103146525D01*
X143433411Y-102984010D01*
X143163158Y-102872068D01*
X142876260Y-102815000D01*
X142583740Y-102815000D01*
X142296842Y-102872068D01*
X142026589Y-102984010D01*
X141783368Y-103146525D01*
X141576525Y-103353368D01*
X141414010Y-103596589D01*
X141302068Y-103866842D01*
X141245000Y-104153740D01*
X141140000Y-104153740D01*
X141140000Y-102004013D01*
X141159744Y-102017205D01*
X141348102Y-102095226D01*
X141548061Y-102135000D01*
X141751939Y-102135000D01*
X141951898Y-102095226D01*
X142140256Y-102017205D01*
X142309774Y-101903937D01*
X142453937Y-101759774D01*
X142567205Y-101590256D01*
X142645226Y-101401898D01*
X142685000Y-101201939D01*
X142685000Y-100998061D01*
X142645226Y-100798102D01*
X142567205Y-100609744D01*
X142453937Y-100440226D01*
X142309774Y-100296063D01*
X142140256Y-100182795D01*
X141951898Y-100104774D01*
X141751939Y-100065000D01*
X141548061Y-100065000D01*
X141348102Y-100104774D01*
X141159744Y-100182795D01*
X141140000Y-100195987D01*
X141140000Y-97826655D01*
X141210000Y-97826655D01*
X141210000Y-98173345D01*
X141277636Y-98513373D01*
X141410308Y-98833673D01*
X141602919Y-99121935D01*
X141848065Y-99367081D01*
X142136327Y-99559692D01*
X142456627Y-99692364D01*
X142796655Y-99760000D01*
X143143345Y-99760000D01*
X143483373Y-99692364D01*
X143803673Y-99559692D01*
X144091935Y-99367081D01*
X144337081Y-99121935D01*
X144529692Y-98833673D01*
X144662364Y-98513373D01*
X144730000Y-98173345D01*
X144730000Y-97826655D01*
X146290000Y-97826655D01*
X146290000Y-98173345D01*
X146357636Y-98513373D01*
X146490308Y-98833673D01*
X146682919Y-99121935D01*
X146928065Y-99367081D01*
X147216327Y-99559692D01*
X147536627Y-99692364D01*
X147876655Y-99760000D01*
X148223345Y-99760000D01*
X148563373Y-99692364D01*
X148883673Y-99559692D01*
X149171935Y-99367081D01*
X149417081Y-99121935D01*
X149609692Y-98833673D01*
X149742364Y-98513373D01*
X149810000Y-98173345D01*
X149810000Y-97826655D01*
X151210000Y-97826655D01*
X151210000Y-98173345D01*
X151277636Y-98513373D01*
X151410308Y-98833673D01*
X151602919Y-99121935D01*
X151848065Y-99367081D01*
X152136327Y-99559692D01*
X152456627Y-99692364D01*
X152796655Y-99760000D01*
X153143345Y-99760000D01*
X153483373Y-99692364D01*
X153803673Y-99559692D01*
X154091935Y-99367081D01*
X154337081Y-99121935D01*
X154529692Y-98833673D01*
X154662364Y-98513373D01*
X154730000Y-98173345D01*
X154730000Y-97826655D01*
X156290000Y-97826655D01*
X156290000Y-98173345D01*
X156357636Y-98513373D01*
X156490308Y-98833673D01*
X156682919Y-99121935D01*
X156928065Y-99367081D01*
X157216327Y-99559692D01*
X157536627Y-99692364D01*
X157876655Y-99760000D01*
X158223345Y-99760000D01*
X158563373Y-99692364D01*
X158883673Y-99559692D01*
X159171935Y-99367081D01*
X159417081Y-99121935D01*
X159609692Y-98833673D01*
X159742364Y-98513373D01*
X159810000Y-98173345D01*
X159810000Y-97826655D01*
X159742364Y-97486627D01*
X159609692Y-97166327D01*
X159417081Y-96878065D01*
X159171935Y-96632919D01*
X158883673Y-96440308D01*
X158563373Y-96307636D01*
X158223345Y-96240000D01*
X157876655Y-96240000D01*
X157536627Y-96307636D01*
X157216327Y-96440308D01*
X156928065Y-96632919D01*
X156682919Y-96878065D01*
X156490308Y-97166327D01*
X156357636Y-97486627D01*
X156290000Y-97826655D01*
X154730000Y-97826655D01*
X154662364Y-97486627D01*
X154529692Y-97166327D01*
X154337081Y-96878065D01*
X154091935Y-96632919D01*
X153803673Y-96440308D01*
X153483373Y-96307636D01*
X153143345Y-96240000D01*
X152796655Y-96240000D01*
X152456627Y-96307636D01*
X152136327Y-96440308D01*
X151848065Y-96632919D01*
X151602919Y-96878065D01*
X151410308Y-97166327D01*
X151277636Y-97486627D01*
X151210000Y-97826655D01*
X149810000Y-97826655D01*
X149742364Y-97486627D01*
X149609692Y-97166327D01*
X149417081Y-96878065D01*
X149171935Y-96632919D01*
X148883673Y-96440308D01*
X148563373Y-96307636D01*
X148223345Y-96240000D01*
X147876655Y-96240000D01*
X147536627Y-96307636D01*
X147216327Y-96440308D01*
X146928065Y-96632919D01*
X146682919Y-96878065D01*
X146490308Y-97166327D01*
X146357636Y-97486627D01*
X146290000Y-97826655D01*
X144730000Y-97826655D01*
X144662364Y-97486627D01*
X144529692Y-97166327D01*
X144337081Y-96878065D01*
X144091935Y-96632919D01*
X143803673Y-96440308D01*
X143483373Y-96307636D01*
X143143345Y-96240000D01*
X142796655Y-96240000D01*
X142456627Y-96307636D01*
X142136327Y-96440308D01*
X141848065Y-96632919D01*
X141602919Y-96878065D01*
X141410308Y-97166327D01*
X141277636Y-97486627D01*
X141210000Y-97826655D01*
X141140000Y-97826655D01*
X141140000Y-95296504D01*
X143850000Y-95296504D01*
X143850000Y-95623496D01*
X143913793Y-95944204D01*
X144038927Y-96246305D01*
X144220594Y-96518188D01*
X144451812Y-96749406D01*
X144723695Y-96931073D01*
X145025796Y-97056207D01*
X145346504Y-97120000D01*
X145673496Y-97120000D01*
X145994204Y-97056207D01*
X146296305Y-96931073D01*
X146568188Y-96749406D01*
X146799406Y-96518188D01*
X146981073Y-96246305D01*
X147106207Y-95944204D01*
X147170000Y-95623496D01*
X147170000Y-95296504D01*
X153850000Y-95296504D01*
X153850000Y-95623496D01*
X153913793Y-95944204D01*
X154038927Y-96246305D01*
X154220594Y-96518188D01*
X154451812Y-96749406D01*
X154723695Y-96931073D01*
X155025796Y-97056207D01*
X155346504Y-97120000D01*
X155673496Y-97120000D01*
X155994204Y-97056207D01*
X156296305Y-96931073D01*
X156568188Y-96749406D01*
X156799406Y-96518188D01*
X156981073Y-96246305D01*
X157106207Y-95944204D01*
X157170000Y-95623496D01*
X157170000Y-95296504D01*
X157106207Y-94975796D01*
X156981073Y-94673695D01*
X156799406Y-94401812D01*
X156568188Y-94170594D01*
X156296305Y-93988927D01*
X155994204Y-93863793D01*
X155673496Y-93800000D01*
X155346504Y-93800000D01*
X155025796Y-93863793D01*
X154723695Y-93988927D01*
X154451812Y-94170594D01*
X154220594Y-94401812D01*
X154038927Y-94673695D01*
X153913793Y-94975796D01*
X153850000Y-95296504D01*
X147170000Y-95296504D01*
X147106207Y-94975796D01*
X146981073Y-94673695D01*
X146799406Y-94401812D01*
X146568188Y-94170594D01*
X146296305Y-93988927D01*
X145994204Y-93863793D01*
X145673496Y-93800000D01*
X145346504Y-93800000D01*
X145025796Y-93863793D01*
X144723695Y-93988927D01*
X144451812Y-94170594D01*
X144220594Y-94401812D01*
X144038927Y-94673695D01*
X143913793Y-94975796D01*
X143850000Y-95296504D01*
X141140000Y-95296504D01*
X141140000Y-92746655D01*
X141210000Y-92746655D01*
X141210000Y-93093345D01*
X141277636Y-93433373D01*
X141410308Y-93753673D01*
X141602919Y-94041935D01*
X141848065Y-94287081D01*
X142136327Y-94479692D01*
X142456627Y-94612364D01*
X142796655Y-94680000D01*
X143143345Y-94680000D01*
X143483373Y-94612364D01*
X143803673Y-94479692D01*
X144091935Y-94287081D01*
X144337081Y-94041935D01*
X144529692Y-93753673D01*
X144662364Y-93433373D01*
X144730000Y-93093345D01*
X144730000Y-92746655D01*
X146290000Y-92746655D01*
X146290000Y-93093345D01*
X146357636Y-93433373D01*
X146490308Y-93753673D01*
X146682919Y-94041935D01*
X146928065Y-94287081D01*
X147216327Y-94479692D01*
X147536627Y-94612364D01*
X147876655Y-94680000D01*
X148223345Y-94680000D01*
X148563373Y-94612364D01*
X148883673Y-94479692D01*
X149171935Y-94287081D01*
X149417081Y-94041935D01*
X149609692Y-93753673D01*
X149742364Y-93433373D01*
X149810000Y-93093345D01*
X149810000Y-92746655D01*
X151210000Y-92746655D01*
X151210000Y-93093345D01*
X151277636Y-93433373D01*
X151410308Y-93753673D01*
X151602919Y-94041935D01*
X151848065Y-94287081D01*
X152136327Y-94479692D01*
X152456627Y-94612364D01*
X152796655Y-94680000D01*
X153143345Y-94680000D01*
X153483373Y-94612364D01*
X153803673Y-94479692D01*
X154091935Y-94287081D01*
X154337081Y-94041935D01*
X154529692Y-93753673D01*
X154662364Y-93433373D01*
X154730000Y-93093345D01*
X154730000Y-92746655D01*
X156290000Y-92746655D01*
X156290000Y-93093345D01*
X156357636Y-93433373D01*
X156490308Y-93753673D01*
X156682919Y-94041935D01*
X156928065Y-94287081D01*
X157216327Y-94479692D01*
X157536627Y-94612364D01*
X157876655Y-94680000D01*
X158223345Y-94680000D01*
X158563373Y-94612364D01*
X158883673Y-94479692D01*
X159171935Y-94287081D01*
X159417081Y-94041935D01*
X159609692Y-93753673D01*
X159742364Y-93433373D01*
X159810000Y-93093345D01*
X159810000Y-92746655D01*
X159742364Y-92406627D01*
X159609692Y-92086327D01*
X159417081Y-91798065D01*
X159171935Y-91552919D01*
X158883673Y-91360308D01*
X158563373Y-91227636D01*
X158223345Y-91160000D01*
X157876655Y-91160000D01*
X157536627Y-91227636D01*
X157216327Y-91360308D01*
X156928065Y-91552919D01*
X156682919Y-91798065D01*
X156490308Y-92086327D01*
X156357636Y-92406627D01*
X156290000Y-92746655D01*
X154730000Y-92746655D01*
X154662364Y-92406627D01*
X154529692Y-92086327D01*
X154337081Y-91798065D01*
X154091935Y-91552919D01*
X153803673Y-91360308D01*
X153483373Y-91227636D01*
X153143345Y-91160000D01*
X152796655Y-91160000D01*
X152456627Y-91227636D01*
X152136327Y-91360308D01*
X151848065Y-91552919D01*
X151602919Y-91798065D01*
X151410308Y-92086327D01*
X151277636Y-92406627D01*
X151210000Y-92746655D01*
X149810000Y-92746655D01*
X149742364Y-92406627D01*
X149609692Y-92086327D01*
X149417081Y-91798065D01*
X149171935Y-91552919D01*
X148883673Y-91360308D01*
X148563373Y-91227636D01*
X148223345Y-91160000D01*
X147876655Y-91160000D01*
X147536627Y-91227636D01*
X147216327Y-91360308D01*
X146928065Y-91552919D01*
X146682919Y-91798065D01*
X146490308Y-92086327D01*
X146357636Y-92406627D01*
X146290000Y-92746655D01*
X144730000Y-92746655D01*
X144662364Y-92406627D01*
X144529692Y-92086327D01*
X144337081Y-91798065D01*
X144091935Y-91552919D01*
X143803673Y-91360308D01*
X143483373Y-91227636D01*
X143143345Y-91160000D01*
X142796655Y-91160000D01*
X142456627Y-91227636D01*
X142136327Y-91360308D01*
X141848065Y-91552919D01*
X141602919Y-91798065D01*
X141410308Y-92086327D01*
X141277636Y-92406627D01*
X141210000Y-92746655D01*
X141140000Y-92746655D01*
X141140000Y-88616655D01*
X141210000Y-88616655D01*
X141210000Y-88963345D01*
X141277636Y-89303373D01*
X141410308Y-89623673D01*
X141602919Y-89911935D01*
X141848065Y-90157081D01*
X142136327Y-90349692D01*
X142456627Y-90482364D01*
X142796655Y-90550000D01*
X143143345Y-90550000D01*
X143483373Y-90482364D01*
X143803673Y-90349692D01*
X144091935Y-90157081D01*
X144337081Y-89911935D01*
X144529692Y-89623673D01*
X144662364Y-89303373D01*
X144730000Y-88963345D01*
X144730000Y-88616655D01*
X146290000Y-88616655D01*
X146290000Y-88963345D01*
X146357636Y-89303373D01*
X146490308Y-89623673D01*
X146682919Y-89911935D01*
X146928065Y-90157081D01*
X147216327Y-90349692D01*
X147536627Y-90482364D01*
X147876655Y-90550000D01*
X148223345Y-90550000D01*
X148563373Y-90482364D01*
X148883673Y-90349692D01*
X149171935Y-90157081D01*
X149417081Y-89911935D01*
X149609692Y-89623673D01*
X149742364Y-89303373D01*
X149810000Y-88963345D01*
X149810000Y-88616655D01*
X151210000Y-88616655D01*
X151210000Y-88963345D01*
X151277636Y-89303373D01*
X151410308Y-89623673D01*
X151602919Y-89911935D01*
X151848065Y-90157081D01*
X152136327Y-90349692D01*
X152456627Y-90482364D01*
X152796655Y-90550000D01*
X153143345Y-90550000D01*
X153483373Y-90482364D01*
X153803673Y-90349692D01*
X154091935Y-90157081D01*
X154337081Y-89911935D01*
X154529692Y-89623673D01*
X154662364Y-89303373D01*
X154730000Y-88963345D01*
X154730000Y-88616655D01*
X156290000Y-88616655D01*
X156290000Y-88963345D01*
X156357636Y-89303373D01*
X156490308Y-89623673D01*
X156682919Y-89911935D01*
X156928065Y-90157081D01*
X157216327Y-90349692D01*
X157536627Y-90482364D01*
X157876655Y-90550000D01*
X158223345Y-90550000D01*
X158563373Y-90482364D01*
X158883673Y-90349692D01*
X159171935Y-90157081D01*
X159417081Y-89911935D01*
X159609692Y-89623673D01*
X159742364Y-89303373D01*
X159810000Y-88963345D01*
X159810000Y-88616655D01*
X159742364Y-88276627D01*
X159609692Y-87956327D01*
X159417081Y-87668065D01*
X159171935Y-87422919D01*
X158883673Y-87230308D01*
X158563373Y-87097636D01*
X158223345Y-87030000D01*
X157876655Y-87030000D01*
X157536627Y-87097636D01*
X157216327Y-87230308D01*
X156928065Y-87422919D01*
X156682919Y-87668065D01*
X156490308Y-87956327D01*
X156357636Y-88276627D01*
X156290000Y-88616655D01*
X154730000Y-88616655D01*
X154662364Y-88276627D01*
X154529692Y-87956327D01*
X154337081Y-87668065D01*
X154091935Y-87422919D01*
X153803673Y-87230308D01*
X153483373Y-87097636D01*
X153143345Y-87030000D01*
X152796655Y-87030000D01*
X152456627Y-87097636D01*
X152136327Y-87230308D01*
X151848065Y-87422919D01*
X151602919Y-87668065D01*
X151410308Y-87956327D01*
X151277636Y-88276627D01*
X151210000Y-88616655D01*
X149810000Y-88616655D01*
X149742364Y-88276627D01*
X149609692Y-87956327D01*
X149417081Y-87668065D01*
X149171935Y-87422919D01*
X148883673Y-87230308D01*
X148563373Y-87097636D01*
X148223345Y-87030000D01*
X147876655Y-87030000D01*
X147536627Y-87097636D01*
X147216327Y-87230308D01*
X146928065Y-87422919D01*
X146682919Y-87668065D01*
X146490308Y-87956327D01*
X146357636Y-88276627D01*
X146290000Y-88616655D01*
X144730000Y-88616655D01*
X144662364Y-88276627D01*
X144529692Y-87956327D01*
X144337081Y-87668065D01*
X144091935Y-87422919D01*
X143803673Y-87230308D01*
X143483373Y-87097636D01*
X143143345Y-87030000D01*
X142796655Y-87030000D01*
X142456627Y-87097636D01*
X142136327Y-87230308D01*
X141848065Y-87422919D01*
X141602919Y-87668065D01*
X141410308Y-87956327D01*
X141277636Y-88276627D01*
X141210000Y-88616655D01*
X141140000Y-88616655D01*
X141140000Y-86086504D01*
X143850000Y-86086504D01*
X143850000Y-86413496D01*
X143913793Y-86734204D01*
X144038927Y-87036305D01*
X144220594Y-87308188D01*
X144451812Y-87539406D01*
X144723695Y-87721073D01*
X145025796Y-87846207D01*
X145346504Y-87910000D01*
X145673496Y-87910000D01*
X145994204Y-87846207D01*
X146296305Y-87721073D01*
X146568188Y-87539406D01*
X146799406Y-87308188D01*
X146981073Y-87036305D01*
X147106207Y-86734204D01*
X147170000Y-86413496D01*
X147170000Y-86086504D01*
X153850000Y-86086504D01*
X153850000Y-86413496D01*
X153913793Y-86734204D01*
X154038927Y-87036305D01*
X154220594Y-87308188D01*
X154451812Y-87539406D01*
X154723695Y-87721073D01*
X155025796Y-87846207D01*
X155346504Y-87910000D01*
X155673496Y-87910000D01*
X155994204Y-87846207D01*
X156296305Y-87721073D01*
X156568188Y-87539406D01*
X156799406Y-87308188D01*
X156981073Y-87036305D01*
X157106207Y-86734204D01*
X157170000Y-86413496D01*
X157170000Y-86086504D01*
X157106207Y-85765796D01*
X156981073Y-85463695D01*
X156799406Y-85191812D01*
X156568188Y-84960594D01*
X156296305Y-84778927D01*
X155994204Y-84653793D01*
X155673496Y-84590000D01*
X155346504Y-84590000D01*
X155025796Y-84653793D01*
X154723695Y-84778927D01*
X154451812Y-84960594D01*
X154220594Y-85191812D01*
X154038927Y-85463695D01*
X153913793Y-85765796D01*
X153850000Y-86086504D01*
X147170000Y-86086504D01*
X147106207Y-85765796D01*
X146981073Y-85463695D01*
X146799406Y-85191812D01*
X146568188Y-84960594D01*
X146296305Y-84778927D01*
X145994204Y-84653793D01*
X145673496Y-84590000D01*
X145346504Y-84590000D01*
X145025796Y-84653793D01*
X144723695Y-84778927D01*
X144451812Y-84960594D01*
X144220594Y-85191812D01*
X144038927Y-85463695D01*
X143913793Y-85765796D01*
X143850000Y-86086504D01*
X141140000Y-86086504D01*
X141140000Y-83536655D01*
X141210000Y-83536655D01*
X141210000Y-83883345D01*
X141277636Y-84223373D01*
X141410308Y-84543673D01*
X141602919Y-84831935D01*
X141848065Y-85077081D01*
X142136327Y-85269692D01*
X142456627Y-85402364D01*
X142796655Y-85470000D01*
X143143345Y-85470000D01*
X143483373Y-85402364D01*
X143803673Y-85269692D01*
X144091935Y-85077081D01*
X144337081Y-84831935D01*
X144529692Y-84543673D01*
X144662364Y-84223373D01*
X144730000Y-83883345D01*
X144730000Y-83536655D01*
X146290000Y-83536655D01*
X146290000Y-83883345D01*
X146357636Y-84223373D01*
X146490308Y-84543673D01*
X146682919Y-84831935D01*
X146928065Y-85077081D01*
X147216327Y-85269692D01*
X147536627Y-85402364D01*
X147876655Y-85470000D01*
X148223345Y-85470000D01*
X148563373Y-85402364D01*
X148883673Y-85269692D01*
X149171935Y-85077081D01*
X149417081Y-84831935D01*
X149609692Y-84543673D01*
X149742364Y-84223373D01*
X149810000Y-83883345D01*
X149810000Y-83536655D01*
X151210000Y-83536655D01*
X151210000Y-83883345D01*
X151277636Y-84223373D01*
X151410308Y-84543673D01*
X151602919Y-84831935D01*
X151848065Y-85077081D01*
X152136327Y-85269692D01*
X152456627Y-85402364D01*
X152796655Y-85470000D01*
X153143345Y-85470000D01*
X153483373Y-85402364D01*
X153803673Y-85269692D01*
X154091935Y-85077081D01*
X154337081Y-84831935D01*
X154529692Y-84543673D01*
X154662364Y-84223373D01*
X154730000Y-83883345D01*
X154730000Y-83536655D01*
X156290000Y-83536655D01*
X156290000Y-83883345D01*
X156357636Y-84223373D01*
X156490308Y-84543673D01*
X156682919Y-84831935D01*
X156928065Y-85077081D01*
X157216327Y-85269692D01*
X157536627Y-85402364D01*
X157876655Y-85470000D01*
X158223345Y-85470000D01*
X158563373Y-85402364D01*
X158883673Y-85269692D01*
X159171935Y-85077081D01*
X159417081Y-84831935D01*
X159609692Y-84543673D01*
X159742364Y-84223373D01*
X159810000Y-83883345D01*
X159810000Y-83536655D01*
X159742364Y-83196627D01*
X159609692Y-82876327D01*
X159417081Y-82588065D01*
X159171935Y-82342919D01*
X158883673Y-82150308D01*
X158563373Y-82017636D01*
X158223345Y-81950000D01*
X157876655Y-81950000D01*
X157536627Y-82017636D01*
X157216327Y-82150308D01*
X156928065Y-82342919D01*
X156682919Y-82588065D01*
X156490308Y-82876327D01*
X156357636Y-83196627D01*
X156290000Y-83536655D01*
X154730000Y-83536655D01*
X154662364Y-83196627D01*
X154529692Y-82876327D01*
X154337081Y-82588065D01*
X154091935Y-82342919D01*
X153803673Y-82150308D01*
X153483373Y-82017636D01*
X153143345Y-81950000D01*
X152796655Y-81950000D01*
X152456627Y-82017636D01*
X152136327Y-82150308D01*
X151848065Y-82342919D01*
X151602919Y-82588065D01*
X151410308Y-82876327D01*
X151277636Y-83196627D01*
X151210000Y-83536655D01*
X149810000Y-83536655D01*
X149742364Y-83196627D01*
X149609692Y-82876327D01*
X149417081Y-82588065D01*
X149171935Y-82342919D01*
X148883673Y-82150308D01*
X148563373Y-82017636D01*
X148223345Y-81950000D01*
X147876655Y-81950000D01*
X147536627Y-82017636D01*
X147216327Y-82150308D01*
X146928065Y-82342919D01*
X146682919Y-82588065D01*
X146490308Y-82876327D01*
X146357636Y-83196627D01*
X146290000Y-83536655D01*
X144730000Y-83536655D01*
X144662364Y-83196627D01*
X144529692Y-82876327D01*
X144337081Y-82588065D01*
X144091935Y-82342919D01*
X143803673Y-82150308D01*
X143483373Y-82017636D01*
X143143345Y-81950000D01*
X142796655Y-81950000D01*
X142456627Y-82017636D01*
X142136327Y-82150308D01*
X141848065Y-82342919D01*
X141602919Y-82588065D01*
X141410308Y-82876327D01*
X141277636Y-83196627D01*
X141210000Y-83536655D01*
X141140000Y-83536655D01*
X141140000Y-78616655D01*
X141210000Y-78616655D01*
X141210000Y-78963345D01*
X141277636Y-79303373D01*
X141410308Y-79623673D01*
X141602919Y-79911935D01*
X141848065Y-80157081D01*
X142136327Y-80349692D01*
X142456627Y-80482364D01*
X142796655Y-80550000D01*
X143143345Y-80550000D01*
X143483373Y-80482364D01*
X143803673Y-80349692D01*
X144091935Y-80157081D01*
X144337081Y-79911935D01*
X144529692Y-79623673D01*
X144662364Y-79303373D01*
X144730000Y-78963345D01*
X144730000Y-78616655D01*
X146290000Y-78616655D01*
X146290000Y-78963345D01*
X146357636Y-79303373D01*
X146490308Y-79623673D01*
X146682919Y-79911935D01*
X146928065Y-80157081D01*
X147216327Y-80349692D01*
X147536627Y-80482364D01*
X147876655Y-80550000D01*
X148223345Y-80550000D01*
X148563373Y-80482364D01*
X148883673Y-80349692D01*
X149171935Y-80157081D01*
X149417081Y-79911935D01*
X149609692Y-79623673D01*
X149742364Y-79303373D01*
X149810000Y-78963345D01*
X149810000Y-78616655D01*
X151210000Y-78616655D01*
X151210000Y-78963345D01*
X151277636Y-79303373D01*
X151410308Y-79623673D01*
X151602919Y-79911935D01*
X151848065Y-80157081D01*
X152136327Y-80349692D01*
X152456627Y-80482364D01*
X152796655Y-80550000D01*
X153143345Y-80550000D01*
X153483373Y-80482364D01*
X153803673Y-80349692D01*
X154091935Y-80157081D01*
X154337081Y-79911935D01*
X154529692Y-79623673D01*
X154662364Y-79303373D01*
X154730000Y-78963345D01*
X154730000Y-78616655D01*
X156290000Y-78616655D01*
X156290000Y-78963345D01*
X156357636Y-79303373D01*
X156490308Y-79623673D01*
X156682919Y-79911935D01*
X156928065Y-80157081D01*
X157216327Y-80349692D01*
X157536627Y-80482364D01*
X157876655Y-80550000D01*
X158223345Y-80550000D01*
X158563373Y-80482364D01*
X158883673Y-80349692D01*
X159171935Y-80157081D01*
X159417081Y-79911935D01*
X159609692Y-79623673D01*
X159742364Y-79303373D01*
X159810000Y-78963345D01*
X159810000Y-78616655D01*
X159742364Y-78276627D01*
X159609692Y-77956327D01*
X159417081Y-77668065D01*
X159171935Y-77422919D01*
X158883673Y-77230308D01*
X158563373Y-77097636D01*
X158223345Y-77030000D01*
X157876655Y-77030000D01*
X157536627Y-77097636D01*
X157216327Y-77230308D01*
X156928065Y-77422919D01*
X156682919Y-77668065D01*
X156490308Y-77956327D01*
X156357636Y-78276627D01*
X156290000Y-78616655D01*
X154730000Y-78616655D01*
X154662364Y-78276627D01*
X154529692Y-77956327D01*
X154337081Y-77668065D01*
X154091935Y-77422919D01*
X153803673Y-77230308D01*
X153483373Y-77097636D01*
X153143345Y-77030000D01*
X152796655Y-77030000D01*
X152456627Y-77097636D01*
X152136327Y-77230308D01*
X151848065Y-77422919D01*
X151602919Y-77668065D01*
X151410308Y-77956327D01*
X151277636Y-78276627D01*
X151210000Y-78616655D01*
X149810000Y-78616655D01*
X149742364Y-78276627D01*
X149609692Y-77956327D01*
X149417081Y-77668065D01*
X149171935Y-77422919D01*
X148883673Y-77230308D01*
X148563373Y-77097636D01*
X148223345Y-77030000D01*
X147876655Y-77030000D01*
X147536627Y-77097636D01*
X147216327Y-77230308D01*
X146928065Y-77422919D01*
X146682919Y-77668065D01*
X146490308Y-77956327D01*
X146357636Y-78276627D01*
X146290000Y-78616655D01*
X144730000Y-78616655D01*
X144662364Y-78276627D01*
X144529692Y-77956327D01*
X144337081Y-77668065D01*
X144091935Y-77422919D01*
X143803673Y-77230308D01*
X143483373Y-77097636D01*
X143143345Y-77030000D01*
X142796655Y-77030000D01*
X142456627Y-77097636D01*
X142136327Y-77230308D01*
X141848065Y-77422919D01*
X141602919Y-77668065D01*
X141410308Y-77956327D01*
X141277636Y-78276627D01*
X141210000Y-78616655D01*
X141140000Y-78616655D01*
X141140000Y-76086504D01*
X143850000Y-76086504D01*
X143850000Y-76413496D01*
X143913793Y-76734204D01*
X144038927Y-77036305D01*
X144220594Y-77308188D01*
X144451812Y-77539406D01*
X144723695Y-77721073D01*
X145025796Y-77846207D01*
X145346504Y-77910000D01*
X145673496Y-77910000D01*
X145994204Y-77846207D01*
X146296305Y-77721073D01*
X146568188Y-77539406D01*
X146799406Y-77308188D01*
X146981073Y-77036305D01*
X147106207Y-76734204D01*
X147170000Y-76413496D01*
X147170000Y-76086504D01*
X153850000Y-76086504D01*
X153850000Y-76413496D01*
X153913793Y-76734204D01*
X154038927Y-77036305D01*
X154220594Y-77308188D01*
X154451812Y-77539406D01*
X154723695Y-77721073D01*
X155025796Y-77846207D01*
X155346504Y-77910000D01*
X155673496Y-77910000D01*
X155994204Y-77846207D01*
X156296305Y-77721073D01*
X156568188Y-77539406D01*
X156799406Y-77308188D01*
X156981073Y-77036305D01*
X157106207Y-76734204D01*
X157170000Y-76413496D01*
X157170000Y-76086504D01*
X157106207Y-75765796D01*
X156981073Y-75463695D01*
X156799406Y-75191812D01*
X156568188Y-74960594D01*
X156296305Y-74778927D01*
X155994204Y-74653793D01*
X155673496Y-74590000D01*
X155346504Y-74590000D01*
X155025796Y-74653793D01*
X154723695Y-74778927D01*
X154451812Y-74960594D01*
X154220594Y-75191812D01*
X154038927Y-75463695D01*
X153913793Y-75765796D01*
X153850000Y-76086504D01*
X147170000Y-76086504D01*
X147106207Y-75765796D01*
X146981073Y-75463695D01*
X146799406Y-75191812D01*
X146568188Y-74960594D01*
X146296305Y-74778927D01*
X145994204Y-74653793D01*
X145673496Y-74590000D01*
X145346504Y-74590000D01*
X145025796Y-74653793D01*
X144723695Y-74778927D01*
X144451812Y-74960594D01*
X144220594Y-75191812D01*
X144038927Y-75463695D01*
X143913793Y-75765796D01*
X143850000Y-76086504D01*
X141140000Y-76086504D01*
X141140000Y-73536655D01*
X141210000Y-73536655D01*
X141210000Y-73883345D01*
X141277636Y-74223373D01*
X141410308Y-74543673D01*
X141602919Y-74831935D01*
X141848065Y-75077081D01*
X142136327Y-75269692D01*
X142456627Y-75402364D01*
X142796655Y-75470000D01*
X143143345Y-75470000D01*
X143483373Y-75402364D01*
X143803673Y-75269692D01*
X144091935Y-75077081D01*
X144337081Y-74831935D01*
X144529692Y-74543673D01*
X144662364Y-74223373D01*
X144730000Y-73883345D01*
X144730000Y-73536655D01*
X146290000Y-73536655D01*
X146290000Y-73883345D01*
X146357636Y-74223373D01*
X146490308Y-74543673D01*
X146682919Y-74831935D01*
X146928065Y-75077081D01*
X147216327Y-75269692D01*
X147536627Y-75402364D01*
X147876655Y-75470000D01*
X148223345Y-75470000D01*
X148563373Y-75402364D01*
X148883673Y-75269692D01*
X149171935Y-75077081D01*
X149417081Y-74831935D01*
X149609692Y-74543673D01*
X149742364Y-74223373D01*
X149810000Y-73883345D01*
X149810000Y-73536655D01*
X151210000Y-73536655D01*
X151210000Y-73883345D01*
X151277636Y-74223373D01*
X151410308Y-74543673D01*
X151602919Y-74831935D01*
X151848065Y-75077081D01*
X152136327Y-75269692D01*
X152456627Y-75402364D01*
X152796655Y-75470000D01*
X153143345Y-75470000D01*
X153483373Y-75402364D01*
X153803673Y-75269692D01*
X154091935Y-75077081D01*
X154337081Y-74831935D01*
X154529692Y-74543673D01*
X154662364Y-74223373D01*
X154730000Y-73883345D01*
X154730000Y-73536655D01*
X156290000Y-73536655D01*
X156290000Y-73883345D01*
X156357636Y-74223373D01*
X156490308Y-74543673D01*
X156682919Y-74831935D01*
X156928065Y-75077081D01*
X157216327Y-75269692D01*
X157536627Y-75402364D01*
X157876655Y-75470000D01*
X158223345Y-75470000D01*
X158563373Y-75402364D01*
X158883673Y-75269692D01*
X159171935Y-75077081D01*
X159417081Y-74831935D01*
X159609692Y-74543673D01*
X159742364Y-74223373D01*
X159810000Y-73883345D01*
X159810000Y-73536655D01*
X159742364Y-73196627D01*
X159609692Y-72876327D01*
X159417081Y-72588065D01*
X159171935Y-72342919D01*
X158883673Y-72150308D01*
X158563373Y-72017636D01*
X158223345Y-71950000D01*
X157876655Y-71950000D01*
X157536627Y-72017636D01*
X157216327Y-72150308D01*
X156928065Y-72342919D01*
X156682919Y-72588065D01*
X156490308Y-72876327D01*
X156357636Y-73196627D01*
X156290000Y-73536655D01*
X154730000Y-73536655D01*
X154662364Y-73196627D01*
X154529692Y-72876327D01*
X154337081Y-72588065D01*
X154091935Y-72342919D01*
X153803673Y-72150308D01*
X153483373Y-72017636D01*
X153143345Y-71950000D01*
X152796655Y-71950000D01*
X152456627Y-72017636D01*
X152136327Y-72150308D01*
X151848065Y-72342919D01*
X151602919Y-72588065D01*
X151410308Y-72876327D01*
X151277636Y-73196627D01*
X151210000Y-73536655D01*
X149810000Y-73536655D01*
X149742364Y-73196627D01*
X149609692Y-72876327D01*
X149417081Y-72588065D01*
X149171935Y-72342919D01*
X148883673Y-72150308D01*
X148563373Y-72017636D01*
X148223345Y-71950000D01*
X147876655Y-71950000D01*
X147536627Y-72017636D01*
X147216327Y-72150308D01*
X146928065Y-72342919D01*
X146682919Y-72588065D01*
X146490308Y-72876327D01*
X146357636Y-73196627D01*
X146290000Y-73536655D01*
X144730000Y-73536655D01*
X144662364Y-73196627D01*
X144529692Y-72876327D01*
X144337081Y-72588065D01*
X144091935Y-72342919D01*
X143803673Y-72150308D01*
X143483373Y-72017636D01*
X143143345Y-71950000D01*
X142796655Y-71950000D01*
X142456627Y-72017636D01*
X142136327Y-72150308D01*
X141848065Y-72342919D01*
X141602919Y-72588065D01*
X141410308Y-72876327D01*
X141277636Y-73196627D01*
X141210000Y-73536655D01*
X141140000Y-73536655D01*
X141140000Y-71110000D01*
X160120001Y-71110000D01*
X160120000Y-107855979D01*
G04 #@! TA.AperFunction,Conductor*
D16*
G36*
X160120000Y-107855979D02*
G01*
X160104912Y-107905718D01*
X160095000Y-108006354D01*
X160095000Y-108286476D01*
X159921898Y-108214774D01*
X159721939Y-108175000D01*
X159518061Y-108175000D01*
X159318102Y-108214774D01*
X159129744Y-108292795D01*
X158960226Y-108406063D01*
X158816063Y-108550226D01*
X158702795Y-108719744D01*
X158624774Y-108908102D01*
X158585000Y-109108061D01*
X158585000Y-109048061D01*
X158545226Y-108848102D01*
X158467205Y-108659744D01*
X158353937Y-108490226D01*
X158209774Y-108346063D01*
X158040256Y-108232795D01*
X157851898Y-108154774D01*
X157651939Y-108115000D01*
X157448061Y-108115000D01*
X157248102Y-108154774D01*
X157059744Y-108232795D01*
X156890226Y-108346063D01*
X156746063Y-108490226D01*
X156632795Y-108659744D01*
X156554774Y-108848102D01*
X156515000Y-109048061D01*
X156515000Y-109251939D01*
X156554774Y-109451898D01*
X156632795Y-109640256D01*
X156746063Y-109809774D01*
X156890226Y-109953937D01*
X157059744Y-110067205D01*
X157248102Y-110145226D01*
X157448061Y-110185000D01*
X157651939Y-110185000D01*
X157851898Y-110145226D01*
X158040256Y-110067205D01*
X158209774Y-109953937D01*
X158353937Y-109809774D01*
X158467205Y-109640256D01*
X158545226Y-109451898D01*
X158585000Y-109251939D01*
X158585000Y-109311939D01*
X158624774Y-109511898D01*
X158702795Y-109700256D01*
X158816063Y-109869774D01*
X158960226Y-110013937D01*
X159129744Y-110127205D01*
X159318102Y-110205226D01*
X159518061Y-110245000D01*
X159721939Y-110245000D01*
X159921898Y-110205226D01*
X160095000Y-110133524D01*
X160095001Y-115656263D01*
X159996264Y-115755000D01*
X154363736Y-115755000D01*
X154265000Y-115656264D01*
X154265000Y-109690672D01*
X154289744Y-109707205D01*
X154478102Y-109785226D01*
X154678061Y-109825000D01*
X154881939Y-109825000D01*
X155081898Y-109785226D01*
X155270256Y-109707205D01*
X155439774Y-109593937D01*
X155583937Y-109449774D01*
X155697205Y-109280256D01*
X155775226Y-109091898D01*
X155815000Y-108891939D01*
X155815000Y-108688061D01*
X155775226Y-108488102D01*
X155697205Y-108299744D01*
X155583937Y-108130226D01*
X155439774Y-107986063D01*
X155270256Y-107872795D01*
X155081898Y-107794774D01*
X154881939Y-107755000D01*
X154678061Y-107755000D01*
X154478102Y-107794774D01*
X154289744Y-107872795D01*
X154120226Y-107986063D01*
X154001481Y-108104808D01*
X153979037Y-108072031D01*
X153944693Y-108020339D01*
X153938597Y-108012970D01*
X153819419Y-107870940D01*
X153775062Y-107827502D01*
X153731315Y-107783449D01*
X153723903Y-107777404D01*
X153579409Y-107661228D01*
X153527499Y-107627259D01*
X153475988Y-107592515D01*
X153467544Y-107588025D01*
X153303235Y-107502126D01*
X153245680Y-107478872D01*
X153188435Y-107454809D01*
X153179283Y-107452046D01*
X153179277Y-107452044D01*
X153001415Y-107399697D01*
X152940408Y-107388059D01*
X152879614Y-107375580D01*
X152870096Y-107374646D01*
X152685452Y-107357842D01*
X152623362Y-107358276D01*
X152561283Y-107357843D01*
X152551764Y-107358776D01*
X152367372Y-107378157D01*
X152306569Y-107390638D01*
X152245574Y-107402273D01*
X152236418Y-107405038D01*
X152236413Y-107405039D01*
X152236408Y-107405041D01*
X152059302Y-107459864D01*
X152002057Y-107483927D01*
X151944502Y-107507181D01*
X151936063Y-107511668D01*
X151936059Y-107511670D01*
X151936058Y-107511671D01*
X151772965Y-107599855D01*
X151721508Y-107634563D01*
X151669542Y-107668569D01*
X151662130Y-107674614D01*
X151519271Y-107792798D01*
X151475526Y-107836850D01*
X151431168Y-107880288D01*
X151425072Y-107887657D01*
X151425069Y-107887660D01*
X151425067Y-107887664D01*
X151307889Y-108031337D01*
X151273535Y-108083044D01*
X151238456Y-108134275D01*
X151233907Y-108142688D01*
X151146863Y-108306394D01*
X151123213Y-108363772D01*
X151098745Y-108420862D01*
X151095917Y-108429998D01*
X151042329Y-108607492D01*
X151030274Y-108668373D01*
X151017362Y-108729119D01*
X151016362Y-108738631D01*
X150998269Y-108923154D01*
X150998269Y-108923159D01*
X150995000Y-108956354D01*
X150995001Y-115656263D01*
X150896264Y-115755000D01*
X141485555Y-115755000D01*
X141263298Y-115754562D01*
X141165000Y-115656264D01*
X141165000Y-109928061D01*
X143095000Y-109928061D01*
X143095000Y-110131939D01*
X143134774Y-110331898D01*
X143212795Y-110520256D01*
X143326063Y-110689774D01*
X143470226Y-110833937D01*
X143639744Y-110947205D01*
X143828102Y-111025226D01*
X144028061Y-111065000D01*
X144231939Y-111065000D01*
X144431898Y-111025226D01*
X144620256Y-110947205D01*
X144789774Y-110833937D01*
X144933937Y-110689774D01*
X145047205Y-110520256D01*
X145125226Y-110331898D01*
X145165000Y-110131939D01*
X145165000Y-109938061D01*
X146105000Y-109938061D01*
X146105000Y-110141939D01*
X146144774Y-110341898D01*
X146222795Y-110530256D01*
X146336063Y-110699774D01*
X146480226Y-110843937D01*
X146649744Y-110957205D01*
X146838102Y-111035226D01*
X147038061Y-111075000D01*
X147241939Y-111075000D01*
X147441898Y-111035226D01*
X147630256Y-110957205D01*
X147799774Y-110843937D01*
X147943937Y-110699774D01*
X148057205Y-110530256D01*
X148135226Y-110341898D01*
X148175000Y-110141939D01*
X148175000Y-109938061D01*
X148135226Y-109738102D01*
X148057205Y-109549744D01*
X147943937Y-109380226D01*
X147799774Y-109236063D01*
X147630256Y-109122795D01*
X147441898Y-109044774D01*
X147241939Y-109005000D01*
X147038061Y-109005000D01*
X146838102Y-109044774D01*
X146649744Y-109122795D01*
X146480226Y-109236063D01*
X146336063Y-109380226D01*
X146222795Y-109549744D01*
X146144774Y-109738102D01*
X146105000Y-109938061D01*
X145165000Y-109938061D01*
X145165000Y-109928061D01*
X145125226Y-109728102D01*
X145047205Y-109539744D01*
X144933937Y-109370226D01*
X144789774Y-109226063D01*
X144620256Y-109112795D01*
X144431898Y-109034774D01*
X144231939Y-108995000D01*
X144028061Y-108995000D01*
X143828102Y-109034774D01*
X143639744Y-109112795D01*
X143470226Y-109226063D01*
X143326063Y-109370226D01*
X143212795Y-109539744D01*
X143134774Y-109728102D01*
X143095000Y-109928061D01*
X141165000Y-109928061D01*
X141165000Y-108006353D01*
X141155088Y-107905717D01*
X141140000Y-107855978D01*
X141140000Y-104153740D01*
X141245000Y-104153740D01*
X141245000Y-104446260D01*
X141302068Y-104733158D01*
X141414010Y-105003411D01*
X141576525Y-105246632D01*
X141783368Y-105453475D01*
X142026589Y-105615990D01*
X142296842Y-105727932D01*
X142583740Y-105785000D01*
X142876260Y-105785000D01*
X143163158Y-105727932D01*
X143433411Y-105615990D01*
X143676632Y-105453475D01*
X143883475Y-105246632D01*
X144000000Y-105072240D01*
X144116525Y-105246632D01*
X144323368Y-105453475D01*
X144566589Y-105615990D01*
X144836842Y-105727932D01*
X145123740Y-105785000D01*
X145416260Y-105785000D01*
X145703158Y-105727932D01*
X145973411Y-105615990D01*
X146216632Y-105453475D01*
X146423475Y-105246632D01*
X146540000Y-105072240D01*
X146656525Y-105246632D01*
X146863368Y-105453475D01*
X147106589Y-105615990D01*
X147376842Y-105727932D01*
X147663740Y-105785000D01*
X147956260Y-105785000D01*
X148243158Y-105727932D01*
X148513411Y-105615990D01*
X148756632Y-105453475D01*
X148888487Y-105321620D01*
X148910498Y-105394180D01*
X148969463Y-105504494D01*
X149048815Y-105601185D01*
X149145506Y-105680537D01*
X149255820Y-105739502D01*
X149375518Y-105775812D01*
X149500000Y-105788072D01*
X151200000Y-105788072D01*
X151324482Y-105775812D01*
X151444180Y-105739502D01*
X151554494Y-105680537D01*
X151651185Y-105601185D01*
X151730537Y-105504494D01*
X151789502Y-105394180D01*
X151825812Y-105274482D01*
X151838072Y-105150000D01*
X151838072Y-103450000D01*
X151825812Y-103325518D01*
X151789502Y-103205820D01*
X151730537Y-103095506D01*
X151651185Y-102998815D01*
X151554494Y-102919463D01*
X151444180Y-102860498D01*
X151324482Y-102824188D01*
X151200000Y-102811928D01*
X149500000Y-102811928D01*
X149375518Y-102824188D01*
X149255820Y-102860498D01*
X149145506Y-102919463D01*
X149048815Y-102998815D01*
X148969463Y-103095506D01*
X148910498Y-103205820D01*
X148888487Y-103278380D01*
X148756632Y-103146525D01*
X148513411Y-102984010D01*
X148243158Y-102872068D01*
X147956260Y-102815000D01*
X147663740Y-102815000D01*
X147376842Y-102872068D01*
X147106589Y-102984010D01*
X146863368Y-103146525D01*
X146656525Y-103353368D01*
X146540000Y-103527760D01*
X146423475Y-103353368D01*
X146216632Y-103146525D01*
X145973411Y-102984010D01*
X145703158Y-102872068D01*
X145416260Y-102815000D01*
X145123740Y-102815000D01*
X144836842Y-102872068D01*
X144566589Y-102984010D01*
X144323368Y-103146525D01*
X144116525Y-103353368D01*
X144000000Y-103527760D01*
X143883475Y-103353368D01*
X143676632Y-103146525D01*
X143433411Y-102984010D01*
X143163158Y-102872068D01*
X142876260Y-102815000D01*
X142583740Y-102815000D01*
X142296842Y-102872068D01*
X142026589Y-102984010D01*
X141783368Y-103146525D01*
X141576525Y-103353368D01*
X141414010Y-103596589D01*
X141302068Y-103866842D01*
X141245000Y-104153740D01*
X141140000Y-104153740D01*
X141140000Y-102004013D01*
X141159744Y-102017205D01*
X141348102Y-102095226D01*
X141548061Y-102135000D01*
X141751939Y-102135000D01*
X141951898Y-102095226D01*
X142140256Y-102017205D01*
X142309774Y-101903937D01*
X142453937Y-101759774D01*
X142567205Y-101590256D01*
X142645226Y-101401898D01*
X142685000Y-101201939D01*
X142685000Y-100998061D01*
X142645226Y-100798102D01*
X142567205Y-100609744D01*
X142453937Y-100440226D01*
X142309774Y-100296063D01*
X142140256Y-100182795D01*
X141951898Y-100104774D01*
X141751939Y-100065000D01*
X141548061Y-100065000D01*
X141348102Y-100104774D01*
X141159744Y-100182795D01*
X141140000Y-100195987D01*
X141140000Y-97826655D01*
X141210000Y-97826655D01*
X141210000Y-98173345D01*
X141277636Y-98513373D01*
X141410308Y-98833673D01*
X141602919Y-99121935D01*
X141848065Y-99367081D01*
X142136327Y-99559692D01*
X142456627Y-99692364D01*
X142796655Y-99760000D01*
X143143345Y-99760000D01*
X143483373Y-99692364D01*
X143803673Y-99559692D01*
X144091935Y-99367081D01*
X144337081Y-99121935D01*
X144529692Y-98833673D01*
X144662364Y-98513373D01*
X144730000Y-98173345D01*
X144730000Y-97826655D01*
X146290000Y-97826655D01*
X146290000Y-98173345D01*
X146357636Y-98513373D01*
X146490308Y-98833673D01*
X146682919Y-99121935D01*
X146928065Y-99367081D01*
X147216327Y-99559692D01*
X147536627Y-99692364D01*
X147876655Y-99760000D01*
X148223345Y-99760000D01*
X148563373Y-99692364D01*
X148883673Y-99559692D01*
X149171935Y-99367081D01*
X149417081Y-99121935D01*
X149609692Y-98833673D01*
X149742364Y-98513373D01*
X149810000Y-98173345D01*
X149810000Y-97826655D01*
X151210000Y-97826655D01*
X151210000Y-98173345D01*
X151277636Y-98513373D01*
X151410308Y-98833673D01*
X151602919Y-99121935D01*
X151848065Y-99367081D01*
X152136327Y-99559692D01*
X152456627Y-99692364D01*
X152796655Y-99760000D01*
X153143345Y-99760000D01*
X153483373Y-99692364D01*
X153803673Y-99559692D01*
X154091935Y-99367081D01*
X154337081Y-99121935D01*
X154529692Y-98833673D01*
X154662364Y-98513373D01*
X154730000Y-98173345D01*
X154730000Y-97826655D01*
X156290000Y-97826655D01*
X156290000Y-98173345D01*
X156357636Y-98513373D01*
X156490308Y-98833673D01*
X156682919Y-99121935D01*
X156928065Y-99367081D01*
X157216327Y-99559692D01*
X157536627Y-99692364D01*
X157876655Y-99760000D01*
X158223345Y-99760000D01*
X158563373Y-99692364D01*
X158883673Y-99559692D01*
X159171935Y-99367081D01*
X159417081Y-99121935D01*
X159609692Y-98833673D01*
X159742364Y-98513373D01*
X159810000Y-98173345D01*
X159810000Y-97826655D01*
X159742364Y-97486627D01*
X159609692Y-97166327D01*
X159417081Y-96878065D01*
X159171935Y-96632919D01*
X158883673Y-96440308D01*
X158563373Y-96307636D01*
X158223345Y-96240000D01*
X157876655Y-96240000D01*
X157536627Y-96307636D01*
X157216327Y-96440308D01*
X156928065Y-96632919D01*
X156682919Y-96878065D01*
X156490308Y-97166327D01*
X156357636Y-97486627D01*
X156290000Y-97826655D01*
X154730000Y-97826655D01*
X154662364Y-97486627D01*
X154529692Y-97166327D01*
X154337081Y-96878065D01*
X154091935Y-96632919D01*
X153803673Y-96440308D01*
X153483373Y-96307636D01*
X153143345Y-96240000D01*
X152796655Y-96240000D01*
X152456627Y-96307636D01*
X152136327Y-96440308D01*
X151848065Y-96632919D01*
X151602919Y-96878065D01*
X151410308Y-97166327D01*
X151277636Y-97486627D01*
X151210000Y-97826655D01*
X149810000Y-97826655D01*
X149742364Y-97486627D01*
X149609692Y-97166327D01*
X149417081Y-96878065D01*
X149171935Y-96632919D01*
X148883673Y-96440308D01*
X148563373Y-96307636D01*
X148223345Y-96240000D01*
X147876655Y-96240000D01*
X147536627Y-96307636D01*
X147216327Y-96440308D01*
X146928065Y-96632919D01*
X146682919Y-96878065D01*
X146490308Y-97166327D01*
X146357636Y-97486627D01*
X146290000Y-97826655D01*
X144730000Y-97826655D01*
X144662364Y-97486627D01*
X144529692Y-97166327D01*
X144337081Y-96878065D01*
X144091935Y-96632919D01*
X143803673Y-96440308D01*
X143483373Y-96307636D01*
X143143345Y-96240000D01*
X142796655Y-96240000D01*
X142456627Y-96307636D01*
X142136327Y-96440308D01*
X141848065Y-96632919D01*
X141602919Y-96878065D01*
X141410308Y-97166327D01*
X141277636Y-97486627D01*
X141210000Y-97826655D01*
X141140000Y-97826655D01*
X141140000Y-95296504D01*
X143850000Y-95296504D01*
X143850000Y-95623496D01*
X143913793Y-95944204D01*
X144038927Y-96246305D01*
X144220594Y-96518188D01*
X144451812Y-96749406D01*
X144723695Y-96931073D01*
X145025796Y-97056207D01*
X145346504Y-97120000D01*
X145673496Y-97120000D01*
X145994204Y-97056207D01*
X146296305Y-96931073D01*
X146568188Y-96749406D01*
X146799406Y-96518188D01*
X146981073Y-96246305D01*
X147106207Y-95944204D01*
X147170000Y-95623496D01*
X147170000Y-95296504D01*
X153850000Y-95296504D01*
X153850000Y-95623496D01*
X153913793Y-95944204D01*
X154038927Y-96246305D01*
X154220594Y-96518188D01*
X154451812Y-96749406D01*
X154723695Y-96931073D01*
X155025796Y-97056207D01*
X155346504Y-97120000D01*
X155673496Y-97120000D01*
X155994204Y-97056207D01*
X156296305Y-96931073D01*
X156568188Y-96749406D01*
X156799406Y-96518188D01*
X156981073Y-96246305D01*
X157106207Y-95944204D01*
X157170000Y-95623496D01*
X157170000Y-95296504D01*
X157106207Y-94975796D01*
X156981073Y-94673695D01*
X156799406Y-94401812D01*
X156568188Y-94170594D01*
X156296305Y-93988927D01*
X155994204Y-93863793D01*
X155673496Y-93800000D01*
X155346504Y-93800000D01*
X155025796Y-93863793D01*
X154723695Y-93988927D01*
X154451812Y-94170594D01*
X154220594Y-94401812D01*
X154038927Y-94673695D01*
X153913793Y-94975796D01*
X153850000Y-95296504D01*
X147170000Y-95296504D01*
X147106207Y-94975796D01*
X146981073Y-94673695D01*
X146799406Y-94401812D01*
X146568188Y-94170594D01*
X146296305Y-93988927D01*
X145994204Y-93863793D01*
X145673496Y-93800000D01*
X145346504Y-93800000D01*
X145025796Y-93863793D01*
X144723695Y-93988927D01*
X144451812Y-94170594D01*
X144220594Y-94401812D01*
X144038927Y-94673695D01*
X143913793Y-94975796D01*
X143850000Y-95296504D01*
X141140000Y-95296504D01*
X141140000Y-92746655D01*
X141210000Y-92746655D01*
X141210000Y-93093345D01*
X141277636Y-93433373D01*
X141410308Y-93753673D01*
X141602919Y-94041935D01*
X141848065Y-94287081D01*
X142136327Y-94479692D01*
X142456627Y-94612364D01*
X142796655Y-94680000D01*
X143143345Y-94680000D01*
X143483373Y-94612364D01*
X143803673Y-94479692D01*
X144091935Y-94287081D01*
X144337081Y-94041935D01*
X144529692Y-93753673D01*
X144662364Y-93433373D01*
X144730000Y-93093345D01*
X144730000Y-92746655D01*
X146290000Y-92746655D01*
X146290000Y-93093345D01*
X146357636Y-93433373D01*
X146490308Y-93753673D01*
X146682919Y-94041935D01*
X146928065Y-94287081D01*
X147216327Y-94479692D01*
X147536627Y-94612364D01*
X147876655Y-94680000D01*
X148223345Y-94680000D01*
X148563373Y-94612364D01*
X148883673Y-94479692D01*
X149171935Y-94287081D01*
X149417081Y-94041935D01*
X149609692Y-93753673D01*
X149742364Y-93433373D01*
X149810000Y-93093345D01*
X149810000Y-92746655D01*
X151210000Y-92746655D01*
X151210000Y-93093345D01*
X151277636Y-93433373D01*
X151410308Y-93753673D01*
X151602919Y-94041935D01*
X151848065Y-94287081D01*
X152136327Y-94479692D01*
X152456627Y-94612364D01*
X152796655Y-94680000D01*
X153143345Y-94680000D01*
X153483373Y-94612364D01*
X153803673Y-94479692D01*
X154091935Y-94287081D01*
X154337081Y-94041935D01*
X154529692Y-93753673D01*
X154662364Y-93433373D01*
X154730000Y-93093345D01*
X154730000Y-92746655D01*
X156290000Y-92746655D01*
X156290000Y-93093345D01*
X156357636Y-93433373D01*
X156490308Y-93753673D01*
X156682919Y-94041935D01*
X156928065Y-94287081D01*
X157216327Y-94479692D01*
X157536627Y-94612364D01*
X157876655Y-94680000D01*
X158223345Y-94680000D01*
X158563373Y-94612364D01*
X158883673Y-94479692D01*
X159171935Y-94287081D01*
X159417081Y-94041935D01*
X159609692Y-93753673D01*
X159742364Y-93433373D01*
X159810000Y-93093345D01*
X159810000Y-92746655D01*
X159742364Y-92406627D01*
X159609692Y-92086327D01*
X159417081Y-91798065D01*
X159171935Y-91552919D01*
X158883673Y-91360308D01*
X158563373Y-91227636D01*
X158223345Y-91160000D01*
X157876655Y-91160000D01*
X157536627Y-91227636D01*
X157216327Y-91360308D01*
X156928065Y-91552919D01*
X156682919Y-91798065D01*
X156490308Y-92086327D01*
X156357636Y-92406627D01*
X156290000Y-92746655D01*
X154730000Y-92746655D01*
X154662364Y-92406627D01*
X154529692Y-92086327D01*
X154337081Y-91798065D01*
X154091935Y-91552919D01*
X153803673Y-91360308D01*
X153483373Y-91227636D01*
X153143345Y-91160000D01*
X152796655Y-91160000D01*
X152456627Y-91227636D01*
X152136327Y-91360308D01*
X151848065Y-91552919D01*
X151602919Y-91798065D01*
X151410308Y-92086327D01*
X151277636Y-92406627D01*
X151210000Y-92746655D01*
X149810000Y-92746655D01*
X149742364Y-92406627D01*
X149609692Y-92086327D01*
X149417081Y-91798065D01*
X149171935Y-91552919D01*
X148883673Y-91360308D01*
X148563373Y-91227636D01*
X148223345Y-91160000D01*
X147876655Y-91160000D01*
X147536627Y-91227636D01*
X147216327Y-91360308D01*
X146928065Y-91552919D01*
X146682919Y-91798065D01*
X146490308Y-92086327D01*
X146357636Y-92406627D01*
X146290000Y-92746655D01*
X144730000Y-92746655D01*
X144662364Y-92406627D01*
X144529692Y-92086327D01*
X144337081Y-91798065D01*
X144091935Y-91552919D01*
X143803673Y-91360308D01*
X143483373Y-91227636D01*
X143143345Y-91160000D01*
X142796655Y-91160000D01*
X142456627Y-91227636D01*
X142136327Y-91360308D01*
X141848065Y-91552919D01*
X141602919Y-91798065D01*
X141410308Y-92086327D01*
X141277636Y-92406627D01*
X141210000Y-92746655D01*
X141140000Y-92746655D01*
X141140000Y-88616655D01*
X141210000Y-88616655D01*
X141210000Y-88963345D01*
X141277636Y-89303373D01*
X141410308Y-89623673D01*
X141602919Y-89911935D01*
X141848065Y-90157081D01*
X142136327Y-90349692D01*
X142456627Y-90482364D01*
X142796655Y-90550000D01*
X143143345Y-90550000D01*
X143483373Y-90482364D01*
X143803673Y-90349692D01*
X144091935Y-90157081D01*
X144337081Y-89911935D01*
X144529692Y-89623673D01*
X144662364Y-89303373D01*
X144730000Y-88963345D01*
X144730000Y-88616655D01*
X146290000Y-88616655D01*
X146290000Y-88963345D01*
X146357636Y-89303373D01*
X146490308Y-89623673D01*
X146682919Y-89911935D01*
X146928065Y-90157081D01*
X147216327Y-90349692D01*
X147536627Y-90482364D01*
X147876655Y-90550000D01*
X148223345Y-90550000D01*
X148563373Y-90482364D01*
X148883673Y-90349692D01*
X149171935Y-90157081D01*
X149417081Y-89911935D01*
X149609692Y-89623673D01*
X149742364Y-89303373D01*
X149810000Y-88963345D01*
X149810000Y-88616655D01*
X151210000Y-88616655D01*
X151210000Y-88963345D01*
X151277636Y-89303373D01*
X151410308Y-89623673D01*
X151602919Y-89911935D01*
X151848065Y-90157081D01*
X152136327Y-90349692D01*
X152456627Y-90482364D01*
X152796655Y-90550000D01*
X153143345Y-90550000D01*
X153483373Y-90482364D01*
X153803673Y-90349692D01*
X154091935Y-90157081D01*
X154337081Y-89911935D01*
X154529692Y-89623673D01*
X154662364Y-89303373D01*
X154730000Y-88963345D01*
X154730000Y-88616655D01*
X156290000Y-88616655D01*
X156290000Y-88963345D01*
X156357636Y-89303373D01*
X156490308Y-89623673D01*
X156682919Y-89911935D01*
X156928065Y-90157081D01*
X157216327Y-90349692D01*
X157536627Y-90482364D01*
X157876655Y-90550000D01*
X158223345Y-90550000D01*
X158563373Y-90482364D01*
X158883673Y-90349692D01*
X159171935Y-90157081D01*
X159417081Y-89911935D01*
X159609692Y-89623673D01*
X159742364Y-89303373D01*
X159810000Y-88963345D01*
X159810000Y-88616655D01*
X159742364Y-88276627D01*
X159609692Y-87956327D01*
X159417081Y-87668065D01*
X159171935Y-87422919D01*
X158883673Y-87230308D01*
X158563373Y-87097636D01*
X158223345Y-87030000D01*
X157876655Y-87030000D01*
X157536627Y-87097636D01*
X157216327Y-87230308D01*
X156928065Y-87422919D01*
X156682919Y-87668065D01*
X156490308Y-87956327D01*
X156357636Y-88276627D01*
X156290000Y-88616655D01*
X154730000Y-88616655D01*
X154662364Y-88276627D01*
X154529692Y-87956327D01*
X154337081Y-87668065D01*
X154091935Y-87422919D01*
X153803673Y-87230308D01*
X153483373Y-87097636D01*
X153143345Y-87030000D01*
X152796655Y-87030000D01*
X152456627Y-87097636D01*
X152136327Y-87230308D01*
X151848065Y-87422919D01*
X151602919Y-87668065D01*
X151410308Y-87956327D01*
X151277636Y-88276627D01*
X151210000Y-88616655D01*
X149810000Y-88616655D01*
X149742364Y-88276627D01*
X149609692Y-87956327D01*
X149417081Y-87668065D01*
X149171935Y-87422919D01*
X148883673Y-87230308D01*
X148563373Y-87097636D01*
X148223345Y-87030000D01*
X147876655Y-87030000D01*
X147536627Y-87097636D01*
X147216327Y-87230308D01*
X146928065Y-87422919D01*
X146682919Y-87668065D01*
X146490308Y-87956327D01*
X146357636Y-88276627D01*
X146290000Y-88616655D01*
X144730000Y-88616655D01*
X144662364Y-88276627D01*
X144529692Y-87956327D01*
X144337081Y-87668065D01*
X144091935Y-87422919D01*
X143803673Y-87230308D01*
X143483373Y-87097636D01*
X143143345Y-87030000D01*
X142796655Y-87030000D01*
X142456627Y-87097636D01*
X142136327Y-87230308D01*
X141848065Y-87422919D01*
X141602919Y-87668065D01*
X141410308Y-87956327D01*
X141277636Y-88276627D01*
X141210000Y-88616655D01*
X141140000Y-88616655D01*
X141140000Y-86086504D01*
X143850000Y-86086504D01*
X143850000Y-86413496D01*
X143913793Y-86734204D01*
X144038927Y-87036305D01*
X144220594Y-87308188D01*
X144451812Y-87539406D01*
X144723695Y-87721073D01*
X145025796Y-87846207D01*
X145346504Y-87910000D01*
X145673496Y-87910000D01*
X145994204Y-87846207D01*
X146296305Y-87721073D01*
X146568188Y-87539406D01*
X146799406Y-87308188D01*
X146981073Y-87036305D01*
X147106207Y-86734204D01*
X147170000Y-86413496D01*
X147170000Y-86086504D01*
X153850000Y-86086504D01*
X153850000Y-86413496D01*
X153913793Y-86734204D01*
X154038927Y-87036305D01*
X154220594Y-87308188D01*
X154451812Y-87539406D01*
X154723695Y-87721073D01*
X155025796Y-87846207D01*
X155346504Y-87910000D01*
X155673496Y-87910000D01*
X155994204Y-87846207D01*
X156296305Y-87721073D01*
X156568188Y-87539406D01*
X156799406Y-87308188D01*
X156981073Y-87036305D01*
X157106207Y-86734204D01*
X157170000Y-86413496D01*
X157170000Y-86086504D01*
X157106207Y-85765796D01*
X156981073Y-85463695D01*
X156799406Y-85191812D01*
X156568188Y-84960594D01*
X156296305Y-84778927D01*
X155994204Y-84653793D01*
X155673496Y-84590000D01*
X155346504Y-84590000D01*
X155025796Y-84653793D01*
X154723695Y-84778927D01*
X154451812Y-84960594D01*
X154220594Y-85191812D01*
X154038927Y-85463695D01*
X153913793Y-85765796D01*
X153850000Y-86086504D01*
X147170000Y-86086504D01*
X147106207Y-85765796D01*
X146981073Y-85463695D01*
X146799406Y-85191812D01*
X146568188Y-84960594D01*
X146296305Y-84778927D01*
X145994204Y-84653793D01*
X145673496Y-84590000D01*
X145346504Y-84590000D01*
X145025796Y-84653793D01*
X144723695Y-84778927D01*
X144451812Y-84960594D01*
X144220594Y-85191812D01*
X144038927Y-85463695D01*
X143913793Y-85765796D01*
X143850000Y-86086504D01*
X141140000Y-86086504D01*
X141140000Y-83536655D01*
X141210000Y-83536655D01*
X141210000Y-83883345D01*
X141277636Y-84223373D01*
X141410308Y-84543673D01*
X141602919Y-84831935D01*
X141848065Y-85077081D01*
X142136327Y-85269692D01*
X142456627Y-85402364D01*
X142796655Y-85470000D01*
X143143345Y-85470000D01*
X143483373Y-85402364D01*
X143803673Y-85269692D01*
X144091935Y-85077081D01*
X144337081Y-84831935D01*
X144529692Y-84543673D01*
X144662364Y-84223373D01*
X144730000Y-83883345D01*
X144730000Y-83536655D01*
X146290000Y-83536655D01*
X146290000Y-83883345D01*
X146357636Y-84223373D01*
X146490308Y-84543673D01*
X146682919Y-84831935D01*
X146928065Y-85077081D01*
X147216327Y-85269692D01*
X147536627Y-85402364D01*
X147876655Y-85470000D01*
X148223345Y-85470000D01*
X148563373Y-85402364D01*
X148883673Y-85269692D01*
X149171935Y-85077081D01*
X149417081Y-84831935D01*
X149609692Y-84543673D01*
X149742364Y-84223373D01*
X149810000Y-83883345D01*
X149810000Y-83536655D01*
X151210000Y-83536655D01*
X151210000Y-83883345D01*
X151277636Y-84223373D01*
X151410308Y-84543673D01*
X151602919Y-84831935D01*
X151848065Y-85077081D01*
X152136327Y-85269692D01*
X152456627Y-85402364D01*
X152796655Y-85470000D01*
X153143345Y-85470000D01*
X153483373Y-85402364D01*
X153803673Y-85269692D01*
X154091935Y-85077081D01*
X154337081Y-84831935D01*
X154529692Y-84543673D01*
X154662364Y-84223373D01*
X154730000Y-83883345D01*
X154730000Y-83536655D01*
X156290000Y-83536655D01*
X156290000Y-83883345D01*
X156357636Y-84223373D01*
X156490308Y-84543673D01*
X156682919Y-84831935D01*
X156928065Y-85077081D01*
X157216327Y-85269692D01*
X157536627Y-85402364D01*
X157876655Y-85470000D01*
X158223345Y-85470000D01*
X158563373Y-85402364D01*
X158883673Y-85269692D01*
X159171935Y-85077081D01*
X159417081Y-84831935D01*
X159609692Y-84543673D01*
X159742364Y-84223373D01*
X159810000Y-83883345D01*
X159810000Y-83536655D01*
X159742364Y-83196627D01*
X159609692Y-82876327D01*
X159417081Y-82588065D01*
X159171935Y-82342919D01*
X158883673Y-82150308D01*
X158563373Y-82017636D01*
X158223345Y-81950000D01*
X157876655Y-81950000D01*
X157536627Y-82017636D01*
X157216327Y-82150308D01*
X156928065Y-82342919D01*
X156682919Y-82588065D01*
X156490308Y-82876327D01*
X156357636Y-83196627D01*
X156290000Y-83536655D01*
X154730000Y-83536655D01*
X154662364Y-83196627D01*
X154529692Y-82876327D01*
X154337081Y-82588065D01*
X154091935Y-82342919D01*
X153803673Y-82150308D01*
X153483373Y-82017636D01*
X153143345Y-81950000D01*
X152796655Y-81950000D01*
X152456627Y-82017636D01*
X152136327Y-82150308D01*
X151848065Y-82342919D01*
X151602919Y-82588065D01*
X151410308Y-82876327D01*
X151277636Y-83196627D01*
X151210000Y-83536655D01*
X149810000Y-83536655D01*
X149742364Y-83196627D01*
X149609692Y-82876327D01*
X149417081Y-82588065D01*
X149171935Y-82342919D01*
X148883673Y-82150308D01*
X148563373Y-82017636D01*
X148223345Y-81950000D01*
X147876655Y-81950000D01*
X147536627Y-82017636D01*
X147216327Y-82150308D01*
X146928065Y-82342919D01*
X146682919Y-82588065D01*
X146490308Y-82876327D01*
X146357636Y-83196627D01*
X146290000Y-83536655D01*
X144730000Y-83536655D01*
X144662364Y-83196627D01*
X144529692Y-82876327D01*
X144337081Y-82588065D01*
X144091935Y-82342919D01*
X143803673Y-82150308D01*
X143483373Y-82017636D01*
X143143345Y-81950000D01*
X142796655Y-81950000D01*
X142456627Y-82017636D01*
X142136327Y-82150308D01*
X141848065Y-82342919D01*
X141602919Y-82588065D01*
X141410308Y-82876327D01*
X141277636Y-83196627D01*
X141210000Y-83536655D01*
X141140000Y-83536655D01*
X141140000Y-78616655D01*
X141210000Y-78616655D01*
X141210000Y-78963345D01*
X141277636Y-79303373D01*
X141410308Y-79623673D01*
X141602919Y-79911935D01*
X141848065Y-80157081D01*
X142136327Y-80349692D01*
X142456627Y-80482364D01*
X142796655Y-80550000D01*
X143143345Y-80550000D01*
X143483373Y-80482364D01*
X143803673Y-80349692D01*
X144091935Y-80157081D01*
X144337081Y-79911935D01*
X144529692Y-79623673D01*
X144662364Y-79303373D01*
X144730000Y-78963345D01*
X144730000Y-78616655D01*
X146290000Y-78616655D01*
X146290000Y-78963345D01*
X146357636Y-79303373D01*
X146490308Y-79623673D01*
X146682919Y-79911935D01*
X146928065Y-80157081D01*
X147216327Y-80349692D01*
X147536627Y-80482364D01*
X147876655Y-80550000D01*
X148223345Y-80550000D01*
X148563373Y-80482364D01*
X148883673Y-80349692D01*
X149171935Y-80157081D01*
X149417081Y-79911935D01*
X149609692Y-79623673D01*
X149742364Y-79303373D01*
X149810000Y-78963345D01*
X149810000Y-78616655D01*
X151210000Y-78616655D01*
X151210000Y-78963345D01*
X151277636Y-79303373D01*
X151410308Y-79623673D01*
X151602919Y-79911935D01*
X151848065Y-80157081D01*
X152136327Y-80349692D01*
X152456627Y-80482364D01*
X152796655Y-80550000D01*
X153143345Y-80550000D01*
X153483373Y-80482364D01*
X153803673Y-80349692D01*
X154091935Y-80157081D01*
X154337081Y-79911935D01*
X154529692Y-79623673D01*
X154662364Y-79303373D01*
X154730000Y-78963345D01*
X154730000Y-78616655D01*
X156290000Y-78616655D01*
X156290000Y-78963345D01*
X156357636Y-79303373D01*
X156490308Y-79623673D01*
X156682919Y-79911935D01*
X156928065Y-80157081D01*
X157216327Y-80349692D01*
X157536627Y-80482364D01*
X157876655Y-80550000D01*
X158223345Y-80550000D01*
X158563373Y-80482364D01*
X158883673Y-80349692D01*
X159171935Y-80157081D01*
X159417081Y-79911935D01*
X159609692Y-79623673D01*
X159742364Y-79303373D01*
X159810000Y-78963345D01*
X159810000Y-78616655D01*
X159742364Y-78276627D01*
X159609692Y-77956327D01*
X159417081Y-77668065D01*
X159171935Y-77422919D01*
X158883673Y-77230308D01*
X158563373Y-77097636D01*
X158223345Y-77030000D01*
X157876655Y-77030000D01*
X157536627Y-77097636D01*
X157216327Y-77230308D01*
X156928065Y-77422919D01*
X156682919Y-77668065D01*
X156490308Y-77956327D01*
X156357636Y-78276627D01*
X156290000Y-78616655D01*
X154730000Y-78616655D01*
X154662364Y-78276627D01*
X154529692Y-77956327D01*
X154337081Y-77668065D01*
X154091935Y-77422919D01*
X153803673Y-77230308D01*
X153483373Y-77097636D01*
X153143345Y-77030000D01*
X152796655Y-77030000D01*
X152456627Y-77097636D01*
X152136327Y-77230308D01*
X151848065Y-77422919D01*
X151602919Y-77668065D01*
X151410308Y-77956327D01*
X151277636Y-78276627D01*
X151210000Y-78616655D01*
X149810000Y-78616655D01*
X149742364Y-78276627D01*
X149609692Y-77956327D01*
X149417081Y-77668065D01*
X149171935Y-77422919D01*
X148883673Y-77230308D01*
X148563373Y-77097636D01*
X148223345Y-77030000D01*
X147876655Y-77030000D01*
X147536627Y-77097636D01*
X147216327Y-77230308D01*
X146928065Y-77422919D01*
X146682919Y-77668065D01*
X146490308Y-77956327D01*
X146357636Y-78276627D01*
X146290000Y-78616655D01*
X144730000Y-78616655D01*
X144662364Y-78276627D01*
X144529692Y-77956327D01*
X144337081Y-77668065D01*
X144091935Y-77422919D01*
X143803673Y-77230308D01*
X143483373Y-77097636D01*
X143143345Y-77030000D01*
X142796655Y-77030000D01*
X142456627Y-77097636D01*
X142136327Y-77230308D01*
X141848065Y-77422919D01*
X141602919Y-77668065D01*
X141410308Y-77956327D01*
X141277636Y-78276627D01*
X141210000Y-78616655D01*
X141140000Y-78616655D01*
X141140000Y-76086504D01*
X143850000Y-76086504D01*
X143850000Y-76413496D01*
X143913793Y-76734204D01*
X144038927Y-77036305D01*
X144220594Y-77308188D01*
X144451812Y-77539406D01*
X144723695Y-77721073D01*
X145025796Y-77846207D01*
X145346504Y-77910000D01*
X145673496Y-77910000D01*
X145994204Y-77846207D01*
X146296305Y-77721073D01*
X146568188Y-77539406D01*
X146799406Y-77308188D01*
X146981073Y-77036305D01*
X147106207Y-76734204D01*
X147170000Y-76413496D01*
X147170000Y-76086504D01*
X153850000Y-76086504D01*
X153850000Y-76413496D01*
X153913793Y-76734204D01*
X154038927Y-77036305D01*
X154220594Y-77308188D01*
X154451812Y-77539406D01*
X154723695Y-77721073D01*
X155025796Y-77846207D01*
X155346504Y-77910000D01*
X155673496Y-77910000D01*
X155994204Y-77846207D01*
X156296305Y-77721073D01*
X156568188Y-77539406D01*
X156799406Y-77308188D01*
X156981073Y-77036305D01*
X157106207Y-76734204D01*
X157170000Y-76413496D01*
X157170000Y-76086504D01*
X157106207Y-75765796D01*
X156981073Y-75463695D01*
X156799406Y-75191812D01*
X156568188Y-74960594D01*
X156296305Y-74778927D01*
X155994204Y-74653793D01*
X155673496Y-74590000D01*
X155346504Y-74590000D01*
X155025796Y-74653793D01*
X154723695Y-74778927D01*
X154451812Y-74960594D01*
X154220594Y-75191812D01*
X154038927Y-75463695D01*
X153913793Y-75765796D01*
X153850000Y-76086504D01*
X147170000Y-76086504D01*
X147106207Y-75765796D01*
X146981073Y-75463695D01*
X146799406Y-75191812D01*
X146568188Y-74960594D01*
X146296305Y-74778927D01*
X145994204Y-74653793D01*
X145673496Y-74590000D01*
X145346504Y-74590000D01*
X145025796Y-74653793D01*
X144723695Y-74778927D01*
X144451812Y-74960594D01*
X144220594Y-75191812D01*
X144038927Y-75463695D01*
X143913793Y-75765796D01*
X143850000Y-76086504D01*
X141140000Y-76086504D01*
X141140000Y-73536655D01*
X141210000Y-73536655D01*
X141210000Y-73883345D01*
X141277636Y-74223373D01*
X141410308Y-74543673D01*
X141602919Y-74831935D01*
X141848065Y-75077081D01*
X142136327Y-75269692D01*
X142456627Y-75402364D01*
X142796655Y-75470000D01*
X143143345Y-75470000D01*
X143483373Y-75402364D01*
X143803673Y-75269692D01*
X144091935Y-75077081D01*
X144337081Y-74831935D01*
X144529692Y-74543673D01*
X144662364Y-74223373D01*
X144730000Y-73883345D01*
X144730000Y-73536655D01*
X146290000Y-73536655D01*
X146290000Y-73883345D01*
X146357636Y-74223373D01*
X146490308Y-74543673D01*
X146682919Y-74831935D01*
X146928065Y-75077081D01*
X147216327Y-75269692D01*
X147536627Y-75402364D01*
X147876655Y-75470000D01*
X148223345Y-75470000D01*
X148563373Y-75402364D01*
X148883673Y-75269692D01*
X149171935Y-75077081D01*
X149417081Y-74831935D01*
X149609692Y-74543673D01*
X149742364Y-74223373D01*
X149810000Y-73883345D01*
X149810000Y-73536655D01*
X151210000Y-73536655D01*
X151210000Y-73883345D01*
X151277636Y-74223373D01*
X151410308Y-74543673D01*
X151602919Y-74831935D01*
X151848065Y-75077081D01*
X152136327Y-75269692D01*
X152456627Y-75402364D01*
X152796655Y-75470000D01*
X153143345Y-75470000D01*
X153483373Y-75402364D01*
X153803673Y-75269692D01*
X154091935Y-75077081D01*
X154337081Y-74831935D01*
X154529692Y-74543673D01*
X154662364Y-74223373D01*
X154730000Y-73883345D01*
X154730000Y-73536655D01*
X156290000Y-73536655D01*
X156290000Y-73883345D01*
X156357636Y-74223373D01*
X156490308Y-74543673D01*
X156682919Y-74831935D01*
X156928065Y-75077081D01*
X157216327Y-75269692D01*
X157536627Y-75402364D01*
X157876655Y-75470000D01*
X158223345Y-75470000D01*
X158563373Y-75402364D01*
X158883673Y-75269692D01*
X159171935Y-75077081D01*
X159417081Y-74831935D01*
X159609692Y-74543673D01*
X159742364Y-74223373D01*
X159810000Y-73883345D01*
X159810000Y-73536655D01*
X159742364Y-73196627D01*
X159609692Y-72876327D01*
X159417081Y-72588065D01*
X159171935Y-72342919D01*
X158883673Y-72150308D01*
X158563373Y-72017636D01*
X158223345Y-71950000D01*
X157876655Y-71950000D01*
X157536627Y-72017636D01*
X157216327Y-72150308D01*
X156928065Y-72342919D01*
X156682919Y-72588065D01*
X156490308Y-72876327D01*
X156357636Y-73196627D01*
X156290000Y-73536655D01*
X154730000Y-73536655D01*
X154662364Y-73196627D01*
X154529692Y-72876327D01*
X154337081Y-72588065D01*
X154091935Y-72342919D01*
X153803673Y-72150308D01*
X153483373Y-72017636D01*
X153143345Y-71950000D01*
X152796655Y-71950000D01*
X152456627Y-72017636D01*
X152136327Y-72150308D01*
X151848065Y-72342919D01*
X151602919Y-72588065D01*
X151410308Y-72876327D01*
X151277636Y-73196627D01*
X151210000Y-73536655D01*
X149810000Y-73536655D01*
X149742364Y-73196627D01*
X149609692Y-72876327D01*
X149417081Y-72588065D01*
X149171935Y-72342919D01*
X148883673Y-72150308D01*
X148563373Y-72017636D01*
X148223345Y-71950000D01*
X147876655Y-71950000D01*
X147536627Y-72017636D01*
X147216327Y-72150308D01*
X146928065Y-72342919D01*
X146682919Y-72588065D01*
X146490308Y-72876327D01*
X146357636Y-73196627D01*
X146290000Y-73536655D01*
X144730000Y-73536655D01*
X144662364Y-73196627D01*
X144529692Y-72876327D01*
X144337081Y-72588065D01*
X144091935Y-72342919D01*
X143803673Y-72150308D01*
X143483373Y-72017636D01*
X143143345Y-71950000D01*
X142796655Y-71950000D01*
X142456627Y-72017636D01*
X142136327Y-72150308D01*
X141848065Y-72342919D01*
X141602919Y-72588065D01*
X141410308Y-72876327D01*
X141277636Y-73196627D01*
X141210000Y-73536655D01*
X141140000Y-73536655D01*
X141140000Y-71110000D01*
X160120001Y-71110000D01*
X160120000Y-107855979D01*
G37*
G04 #@! TD.AperFunction*
M02*
